<?xml version="1.0" encoding="utf-8" standalone="no"?>
<!DOCTYPE svg PUBLIC "-//W3C//DTD SVG 1.1//EN"
  "http://www.w3.org/Graphics/SVG/1.1/DTD/svg11.dtd">
<svg xmlns:xlink="http://www.w3.org/1999/xlink" width="655.314063pt" height="561.5pt" viewBox="0 0 655.314063 561.5" xmlns="http://www.w3.org/2000/svg" version="1.1">
 <metadata>
  <rdf:RDF xmlns:dc="http://purl.org/dc/elements/1.1/" xmlns:cc="http://creativecommons.org/ns#" xmlns:rdf="http://www.w3.org/1999/02/22-rdf-syntax-ns#">
   <cc:Work>
    <dc:type rdf:resource="http://purl.org/dc/dcmitype/StillImage"/>
    <dc:date>2023-05-22T17:15:47.392590</dc:date>
    <dc:format>image/svg+xml</dc:format>
    <dc:creator>
     <cc:Agent>
      <dc:title>Matplotlib v3.5.3, https://matplotlib.org/</dc:title>
     </cc:Agent>
    </dc:creator>
   </cc:Work>
  </rdf:RDF>
 </metadata>
 <defs>
  <style type="text/css">*{stroke-linejoin: round; stroke-linecap: butt}</style>
 </defs>
 <g id="figure_1">
  <g id="patch_1">
   <path d="M 0 561.5 
L 655.314063 561.5 
L 655.314063 0 
L 0 0 
z
" style="fill: #ffffff"/>
  </g>
  <g id="axes_1">
   <g id="patch_2">
    <path d="M 90.114063 550.8 
L 648.114063 550.8 
L 648.114063 7.2 
L 90.114063 7.2 
z
" style="fill: #ffffff"/>
   </g>
   <g id="matplotlib.axis_1"/>
   <g id="matplotlib.axis_2">
    <g id="ytick_1">
     <g id="line2d_1">
      <path d="M 90.114063 497.505882 
L 648.114063 497.505882 
" clip-path="url(#p66c56a0ed8)" style="fill: none; stroke: #b0b0b0; stroke-opacity: 0.5; stroke-width: 0.8; stroke-linecap: square"/>
     </g>
     <g id="line2d_2">
      <defs>
       <path id="mfee008cf1e" d="M 0 0 
L -3.5 0 
" style="stroke: #000000; stroke-width: 0.8"/>
      </defs>
      <g>
       <use xlink:href="#mfee008cf1e" x="90.114063" y="497.505882" style="stroke: #000000; stroke-width: 0.8"/>
      </g>
     </g>
     <g id="text_1">
      <!-- 10 -->
      <g transform="translate(51.301563 507.003929)scale(0.25 -0.25)">
       <defs>
        <path id="DejaVuSans-31" d="M 794 531 
L 1825 531 
L 1825 4091 
L 703 3866 
L 703 4441 
L 1819 4666 
L 2450 4666 
L 2450 531 
L 3481 531 
L 3481 0 
L 794 0 
L 794 531 
z
" transform="scale(0.015625)"/>
        <path id="DejaVuSans-30" d="M 2034 4250 
Q 1547 4250 1301 3770 
Q 1056 3291 1056 2328 
Q 1056 1369 1301 889 
Q 1547 409 2034 409 
Q 2525 409 2770 889 
Q 3016 1369 3016 2328 
Q 3016 3291 2770 3770 
Q 2525 4250 2034 4250 
z
M 2034 4750 
Q 2819 4750 3233 4129 
Q 3647 3509 3647 2328 
Q 3647 1150 3233 529 
Q 2819 -91 2034 -91 
Q 1250 -91 836 529 
Q 422 1150 422 2328 
Q 422 3509 836 4129 
Q 1250 4750 2034 4750 
z
" transform="scale(0.015625)"/>
       </defs>
       <use xlink:href="#DejaVuSans-31"/>
       <use xlink:href="#DejaVuSans-30" x="63.623047"/>
      </g>
     </g>
    </g>
    <g id="ytick_2">
     <g id="line2d_3">
      <path d="M 90.114063 444.211765 
L 648.114063 444.211765 
" clip-path="url(#p66c56a0ed8)" style="fill: none; stroke: #b0b0b0; stroke-opacity: 0.5; stroke-width: 0.8; stroke-linecap: square"/>
     </g>
     <g id="line2d_4">
      <g>
       <use xlink:href="#mfee008cf1e" x="90.114063" y="444.211765" style="stroke: #000000; stroke-width: 0.8"/>
      </g>
     </g>
     <g id="text_2">
      <!-- 20 -->
      <g transform="translate(51.301563 453.709812)scale(0.25 -0.25)">
       <defs>
        <path id="DejaVuSans-32" d="M 1228 531 
L 3431 531 
L 3431 0 
L 469 0 
L 469 531 
Q 828 903 1448 1529 
Q 2069 2156 2228 2338 
Q 2531 2678 2651 2914 
Q 2772 3150 2772 3378 
Q 2772 3750 2511 3984 
Q 2250 4219 1831 4219 
Q 1534 4219 1204 4116 
Q 875 4013 500 3803 
L 500 4441 
Q 881 4594 1212 4672 
Q 1544 4750 1819 4750 
Q 2544 4750 2975 4387 
Q 3406 4025 3406 3419 
Q 3406 3131 3298 2873 
Q 3191 2616 2906 2266 
Q 2828 2175 2409 1742 
Q 1991 1309 1228 531 
z
" transform="scale(0.015625)"/>
       </defs>
       <use xlink:href="#DejaVuSans-32"/>
       <use xlink:href="#DejaVuSans-30" x="63.623047"/>
      </g>
     </g>
    </g>
    <g id="ytick_3">
     <g id="line2d_5">
      <path d="M 90.114063 390.917647 
L 648.114063 390.917647 
" clip-path="url(#p66c56a0ed8)" style="fill: none; stroke: #b0b0b0; stroke-opacity: 0.5; stroke-width: 0.8; stroke-linecap: square"/>
     </g>
     <g id="line2d_6">
      <g>
       <use xlink:href="#mfee008cf1e" x="90.114063" y="390.917647" style="stroke: #000000; stroke-width: 0.8"/>
      </g>
     </g>
     <g id="text_3">
      <!-- 30 -->
      <g transform="translate(51.301563 400.415694)scale(0.25 -0.25)">
       <defs>
        <path id="DejaVuSans-33" d="M 2597 2516 
Q 3050 2419 3304 2112 
Q 3559 1806 3559 1356 
Q 3559 666 3084 287 
Q 2609 -91 1734 -91 
Q 1441 -91 1130 -33 
Q 819 25 488 141 
L 488 750 
Q 750 597 1062 519 
Q 1375 441 1716 441 
Q 2309 441 2620 675 
Q 2931 909 2931 1356 
Q 2931 1769 2642 2001 
Q 2353 2234 1838 2234 
L 1294 2234 
L 1294 2753 
L 1863 2753 
Q 2328 2753 2575 2939 
Q 2822 3125 2822 3475 
Q 2822 3834 2567 4026 
Q 2313 4219 1838 4219 
Q 1578 4219 1281 4162 
Q 984 4106 628 3988 
L 628 4550 
Q 988 4650 1302 4700 
Q 1616 4750 1894 4750 
Q 2613 4750 3031 4423 
Q 3450 4097 3450 3541 
Q 3450 3153 3228 2886 
Q 3006 2619 2597 2516 
z
" transform="scale(0.015625)"/>
       </defs>
       <use xlink:href="#DejaVuSans-33"/>
       <use xlink:href="#DejaVuSans-30" x="63.623047"/>
      </g>
     </g>
    </g>
    <g id="ytick_4">
     <g id="line2d_7">
      <path d="M 90.114063 337.623529 
L 648.114063 337.623529 
" clip-path="url(#p66c56a0ed8)" style="fill: none; stroke: #b0b0b0; stroke-opacity: 0.5; stroke-width: 0.8; stroke-linecap: square"/>
     </g>
     <g id="line2d_8">
      <g>
       <use xlink:href="#mfee008cf1e" x="90.114063" y="337.623529" style="stroke: #000000; stroke-width: 0.8"/>
      </g>
     </g>
     <g id="text_4">
      <!-- 40 -->
      <g transform="translate(51.301563 347.121576)scale(0.25 -0.25)">
       <defs>
        <path id="DejaVuSans-34" d="M 2419 4116 
L 825 1625 
L 2419 1625 
L 2419 4116 
z
M 2253 4666 
L 3047 4666 
L 3047 1625 
L 3713 1625 
L 3713 1100 
L 3047 1100 
L 3047 0 
L 2419 0 
L 2419 1100 
L 313 1100 
L 313 1709 
L 2253 4666 
z
" transform="scale(0.015625)"/>
       </defs>
       <use xlink:href="#DejaVuSans-34"/>
       <use xlink:href="#DejaVuSans-30" x="63.623047"/>
      </g>
     </g>
    </g>
    <g id="ytick_5">
     <g id="line2d_9">
      <path d="M 90.114063 284.329412 
L 648.114063 284.329412 
" clip-path="url(#p66c56a0ed8)" style="fill: none; stroke: #b0b0b0; stroke-opacity: 0.5; stroke-width: 0.8; stroke-linecap: square"/>
     </g>
     <g id="line2d_10">
      <g>
       <use xlink:href="#mfee008cf1e" x="90.114063" y="284.329412" style="stroke: #000000; stroke-width: 0.8"/>
      </g>
     </g>
     <g id="text_5">
      <!-- 50 -->
      <g transform="translate(51.301563 293.827459)scale(0.25 -0.25)">
       <defs>
        <path id="DejaVuSans-35" d="M 691 4666 
L 3169 4666 
L 3169 4134 
L 1269 4134 
L 1269 2991 
Q 1406 3038 1543 3061 
Q 1681 3084 1819 3084 
Q 2600 3084 3056 2656 
Q 3513 2228 3513 1497 
Q 3513 744 3044 326 
Q 2575 -91 1722 -91 
Q 1428 -91 1123 -41 
Q 819 9 494 109 
L 494 744 
Q 775 591 1075 516 
Q 1375 441 1709 441 
Q 2250 441 2565 725 
Q 2881 1009 2881 1497 
Q 2881 1984 2565 2268 
Q 2250 2553 1709 2553 
Q 1456 2553 1204 2497 
Q 953 2441 691 2322 
L 691 4666 
z
" transform="scale(0.015625)"/>
       </defs>
       <use xlink:href="#DejaVuSans-35"/>
       <use xlink:href="#DejaVuSans-30" x="63.623047"/>
      </g>
     </g>
    </g>
    <g id="ytick_6">
     <g id="line2d_11">
      <path d="M 90.114063 231.035294 
L 648.114063 231.035294 
" clip-path="url(#p66c56a0ed8)" style="fill: none; stroke: #b0b0b0; stroke-opacity: 0.5; stroke-width: 0.8; stroke-linecap: square"/>
     </g>
     <g id="line2d_12">
      <g>
       <use xlink:href="#mfee008cf1e" x="90.114063" y="231.035294" style="stroke: #000000; stroke-width: 0.8"/>
      </g>
     </g>
     <g id="text_6">
      <!-- 60 -->
      <g transform="translate(51.301563 240.533341)scale(0.25 -0.25)">
       <defs>
        <path id="DejaVuSans-36" d="M 2113 2584 
Q 1688 2584 1439 2293 
Q 1191 2003 1191 1497 
Q 1191 994 1439 701 
Q 1688 409 2113 409 
Q 2538 409 2786 701 
Q 3034 994 3034 1497 
Q 3034 2003 2786 2293 
Q 2538 2584 2113 2584 
z
M 3366 4563 
L 3366 3988 
Q 3128 4100 2886 4159 
Q 2644 4219 2406 4219 
Q 1781 4219 1451 3797 
Q 1122 3375 1075 2522 
Q 1259 2794 1537 2939 
Q 1816 3084 2150 3084 
Q 2853 3084 3261 2657 
Q 3669 2231 3669 1497 
Q 3669 778 3244 343 
Q 2819 -91 2113 -91 
Q 1303 -91 875 529 
Q 447 1150 447 2328 
Q 447 3434 972 4092 
Q 1497 4750 2381 4750 
Q 2619 4750 2861 4703 
Q 3103 4656 3366 4563 
z
" transform="scale(0.015625)"/>
       </defs>
       <use xlink:href="#DejaVuSans-36"/>
       <use xlink:href="#DejaVuSans-30" x="63.623047"/>
      </g>
     </g>
    </g>
    <g id="ytick_7">
     <g id="line2d_13">
      <path d="M 90.114063 177.741176 
L 648.114063 177.741176 
" clip-path="url(#p66c56a0ed8)" style="fill: none; stroke: #b0b0b0; stroke-opacity: 0.5; stroke-width: 0.8; stroke-linecap: square"/>
     </g>
     <g id="line2d_14">
      <g>
       <use xlink:href="#mfee008cf1e" x="90.114063" y="177.741176" style="stroke: #000000; stroke-width: 0.8"/>
      </g>
     </g>
     <g id="text_7">
      <!-- 70 -->
      <g transform="translate(51.301563 187.239223)scale(0.25 -0.25)">
       <defs>
        <path id="DejaVuSans-37" d="M 525 4666 
L 3525 4666 
L 3525 4397 
L 1831 0 
L 1172 0 
L 2766 4134 
L 525 4134 
L 525 4666 
z
" transform="scale(0.015625)"/>
       </defs>
       <use xlink:href="#DejaVuSans-37"/>
       <use xlink:href="#DejaVuSans-30" x="63.623047"/>
      </g>
     </g>
    </g>
    <g id="ytick_8">
     <g id="line2d_15">
      <path d="M 90.114063 124.447059 
L 648.114063 124.447059 
" clip-path="url(#p66c56a0ed8)" style="fill: none; stroke: #b0b0b0; stroke-opacity: 0.5; stroke-width: 0.8; stroke-linecap: square"/>
     </g>
     <g id="line2d_16">
      <g>
       <use xlink:href="#mfee008cf1e" x="90.114063" y="124.447059" style="stroke: #000000; stroke-width: 0.8"/>
      </g>
     </g>
     <g id="text_8">
      <!-- 80 -->
      <g transform="translate(51.301563 133.945106)scale(0.25 -0.25)">
       <defs>
        <path id="DejaVuSans-38" d="M 2034 2216 
Q 1584 2216 1326 1975 
Q 1069 1734 1069 1313 
Q 1069 891 1326 650 
Q 1584 409 2034 409 
Q 2484 409 2743 651 
Q 3003 894 3003 1313 
Q 3003 1734 2745 1975 
Q 2488 2216 2034 2216 
z
M 1403 2484 
Q 997 2584 770 2862 
Q 544 3141 544 3541 
Q 544 4100 942 4425 
Q 1341 4750 2034 4750 
Q 2731 4750 3128 4425 
Q 3525 4100 3525 3541 
Q 3525 3141 3298 2862 
Q 3072 2584 2669 2484 
Q 3125 2378 3379 2068 
Q 3634 1759 3634 1313 
Q 3634 634 3220 271 
Q 2806 -91 2034 -91 
Q 1263 -91 848 271 
Q 434 634 434 1313 
Q 434 1759 690 2068 
Q 947 2378 1403 2484 
z
M 1172 3481 
Q 1172 3119 1398 2916 
Q 1625 2713 2034 2713 
Q 2441 2713 2670 2916 
Q 2900 3119 2900 3481 
Q 2900 3844 2670 4047 
Q 2441 4250 2034 4250 
Q 1625 4250 1398 4047 
Q 1172 3844 1172 3481 
z
" transform="scale(0.015625)"/>
       </defs>
       <use xlink:href="#DejaVuSans-38"/>
       <use xlink:href="#DejaVuSans-30" x="63.623047"/>
      </g>
     </g>
    </g>
    <g id="ytick_9">
     <g id="line2d_17">
      <path d="M 90.114063 71.152941 
L 648.114063 71.152941 
" clip-path="url(#p66c56a0ed8)" style="fill: none; stroke: #b0b0b0; stroke-opacity: 0.5; stroke-width: 0.8; stroke-linecap: square"/>
     </g>
     <g id="line2d_18">
      <g>
       <use xlink:href="#mfee008cf1e" x="90.114063" y="71.152941" style="stroke: #000000; stroke-width: 0.8"/>
      </g>
     </g>
     <g id="text_9">
      <!-- 90 -->
      <g transform="translate(51.301563 80.650988)scale(0.25 -0.25)">
       <defs>
        <path id="DejaVuSans-39" d="M 703 97 
L 703 672 
Q 941 559 1184 500 
Q 1428 441 1663 441 
Q 2288 441 2617 861 
Q 2947 1281 2994 2138 
Q 2813 1869 2534 1725 
Q 2256 1581 1919 1581 
Q 1219 1581 811 2004 
Q 403 2428 403 3163 
Q 403 3881 828 4315 
Q 1253 4750 1959 4750 
Q 2769 4750 3195 4129 
Q 3622 3509 3622 2328 
Q 3622 1225 3098 567 
Q 2575 -91 1691 -91 
Q 1453 -91 1209 -44 
Q 966 3 703 97 
z
M 1959 2075 
Q 2384 2075 2632 2365 
Q 2881 2656 2881 3163 
Q 2881 3666 2632 3958 
Q 2384 4250 1959 4250 
Q 1534 4250 1286 3958 
Q 1038 3666 1038 3163 
Q 1038 2656 1286 2365 
Q 1534 2075 1959 2075 
z
" transform="scale(0.015625)"/>
       </defs>
       <use xlink:href="#DejaVuSans-39"/>
       <use xlink:href="#DejaVuSans-30" x="63.623047"/>
      </g>
     </g>
    </g>
    <g id="ytick_10">
     <g id="line2d_19">
      <path d="M 90.114063 17.858824 
L 648.114063 17.858824 
" clip-path="url(#p66c56a0ed8)" style="fill: none; stroke: #b0b0b0; stroke-opacity: 0.5; stroke-width: 0.8; stroke-linecap: square"/>
     </g>
     <g id="line2d_20">
      <g>
       <use xlink:href="#mfee008cf1e" x="90.114063" y="17.858824" style="stroke: #000000; stroke-width: 0.8"/>
      </g>
     </g>
     <g id="text_10">
      <!-- 100 -->
      <g transform="translate(35.395313 27.35687)scale(0.25 -0.25)">
       <use xlink:href="#DejaVuSans-31"/>
       <use xlink:href="#DejaVuSans-30" x="63.623047"/>
       <use xlink:href="#DejaVuSans-30" x="127.246094"/>
      </g>
     </g>
    </g>
    <g id="text_11">
     <!-- Confirmatory activity percentile -->
     <g transform="translate(26.196094 477.542969)rotate(-90)scale(0.25 -0.25)">
      <defs>
       <path id="DejaVuSans-43" d="M 4122 4306 
L 4122 3641 
Q 3803 3938 3442 4084 
Q 3081 4231 2675 4231 
Q 1875 4231 1450 3742 
Q 1025 3253 1025 2328 
Q 1025 1406 1450 917 
Q 1875 428 2675 428 
Q 3081 428 3442 575 
Q 3803 722 4122 1019 
L 4122 359 
Q 3791 134 3420 21 
Q 3050 -91 2638 -91 
Q 1578 -91 968 557 
Q 359 1206 359 2328 
Q 359 3453 968 4101 
Q 1578 4750 2638 4750 
Q 3056 4750 3426 4639 
Q 3797 4528 4122 4306 
z
" transform="scale(0.015625)"/>
       <path id="DejaVuSans-6f" d="M 1959 3097 
Q 1497 3097 1228 2736 
Q 959 2375 959 1747 
Q 959 1119 1226 758 
Q 1494 397 1959 397 
Q 2419 397 2687 759 
Q 2956 1122 2956 1747 
Q 2956 2369 2687 2733 
Q 2419 3097 1959 3097 
z
M 1959 3584 
Q 2709 3584 3137 3096 
Q 3566 2609 3566 1747 
Q 3566 888 3137 398 
Q 2709 -91 1959 -91 
Q 1206 -91 779 398 
Q 353 888 353 1747 
Q 353 2609 779 3096 
Q 1206 3584 1959 3584 
z
" transform="scale(0.015625)"/>
       <path id="DejaVuSans-6e" d="M 3513 2113 
L 3513 0 
L 2938 0 
L 2938 2094 
Q 2938 2591 2744 2837 
Q 2550 3084 2163 3084 
Q 1697 3084 1428 2787 
Q 1159 2491 1159 1978 
L 1159 0 
L 581 0 
L 581 3500 
L 1159 3500 
L 1159 2956 
Q 1366 3272 1645 3428 
Q 1925 3584 2291 3584 
Q 2894 3584 3203 3211 
Q 3513 2838 3513 2113 
z
" transform="scale(0.015625)"/>
       <path id="DejaVuSans-66" d="M 2375 4863 
L 2375 4384 
L 1825 4384 
Q 1516 4384 1395 4259 
Q 1275 4134 1275 3809 
L 1275 3500 
L 2222 3500 
L 2222 3053 
L 1275 3053 
L 1275 0 
L 697 0 
L 697 3053 
L 147 3053 
L 147 3500 
L 697 3500 
L 697 3744 
Q 697 4328 969 4595 
Q 1241 4863 1831 4863 
L 2375 4863 
z
" transform="scale(0.015625)"/>
       <path id="DejaVuSans-69" d="M 603 3500 
L 1178 3500 
L 1178 0 
L 603 0 
L 603 3500 
z
M 603 4863 
L 1178 4863 
L 1178 4134 
L 603 4134 
L 603 4863 
z
" transform="scale(0.015625)"/>
       <path id="DejaVuSans-72" d="M 2631 2963 
Q 2534 3019 2420 3045 
Q 2306 3072 2169 3072 
Q 1681 3072 1420 2755 
Q 1159 2438 1159 1844 
L 1159 0 
L 581 0 
L 581 3500 
L 1159 3500 
L 1159 2956 
Q 1341 3275 1631 3429 
Q 1922 3584 2338 3584 
Q 2397 3584 2469 3576 
Q 2541 3569 2628 3553 
L 2631 2963 
z
" transform="scale(0.015625)"/>
       <path id="DejaVuSans-6d" d="M 3328 2828 
Q 3544 3216 3844 3400 
Q 4144 3584 4550 3584 
Q 5097 3584 5394 3201 
Q 5691 2819 5691 2113 
L 5691 0 
L 5113 0 
L 5113 2094 
Q 5113 2597 4934 2840 
Q 4756 3084 4391 3084 
Q 3944 3084 3684 2787 
Q 3425 2491 3425 1978 
L 3425 0 
L 2847 0 
L 2847 2094 
Q 2847 2600 2669 2842 
Q 2491 3084 2119 3084 
Q 1678 3084 1418 2786 
Q 1159 2488 1159 1978 
L 1159 0 
L 581 0 
L 581 3500 
L 1159 3500 
L 1159 2956 
Q 1356 3278 1631 3431 
Q 1906 3584 2284 3584 
Q 2666 3584 2933 3390 
Q 3200 3197 3328 2828 
z
" transform="scale(0.015625)"/>
       <path id="DejaVuSans-61" d="M 2194 1759 
Q 1497 1759 1228 1600 
Q 959 1441 959 1056 
Q 959 750 1161 570 
Q 1363 391 1709 391 
Q 2188 391 2477 730 
Q 2766 1069 2766 1631 
L 2766 1759 
L 2194 1759 
z
M 3341 1997 
L 3341 0 
L 2766 0 
L 2766 531 
Q 2569 213 2275 61 
Q 1981 -91 1556 -91 
Q 1019 -91 701 211 
Q 384 513 384 1019 
Q 384 1609 779 1909 
Q 1175 2209 1959 2209 
L 2766 2209 
L 2766 2266 
Q 2766 2663 2505 2880 
Q 2244 3097 1772 3097 
Q 1472 3097 1187 3025 
Q 903 2953 641 2809 
L 641 3341 
Q 956 3463 1253 3523 
Q 1550 3584 1831 3584 
Q 2591 3584 2966 3190 
Q 3341 2797 3341 1997 
z
" transform="scale(0.015625)"/>
       <path id="DejaVuSans-74" d="M 1172 4494 
L 1172 3500 
L 2356 3500 
L 2356 3053 
L 1172 3053 
L 1172 1153 
Q 1172 725 1289 603 
Q 1406 481 1766 481 
L 2356 481 
L 2356 0 
L 1766 0 
Q 1100 0 847 248 
Q 594 497 594 1153 
L 594 3053 
L 172 3053 
L 172 3500 
L 594 3500 
L 594 4494 
L 1172 4494 
z
" transform="scale(0.015625)"/>
       <path id="DejaVuSans-79" d="M 2059 -325 
Q 1816 -950 1584 -1140 
Q 1353 -1331 966 -1331 
L 506 -1331 
L 506 -850 
L 844 -850 
Q 1081 -850 1212 -737 
Q 1344 -625 1503 -206 
L 1606 56 
L 191 3500 
L 800 3500 
L 1894 763 
L 2988 3500 
L 3597 3500 
L 2059 -325 
z
" transform="scale(0.015625)"/>
       <path id="DejaVuSans-20" transform="scale(0.015625)"/>
       <path id="DejaVuSans-63" d="M 3122 3366 
L 3122 2828 
Q 2878 2963 2633 3030 
Q 2388 3097 2138 3097 
Q 1578 3097 1268 2742 
Q 959 2388 959 1747 
Q 959 1106 1268 751 
Q 1578 397 2138 397 
Q 2388 397 2633 464 
Q 2878 531 3122 666 
L 3122 134 
Q 2881 22 2623 -34 
Q 2366 -91 2075 -91 
Q 1284 -91 818 406 
Q 353 903 353 1747 
Q 353 2603 823 3093 
Q 1294 3584 2113 3584 
Q 2378 3584 2631 3529 
Q 2884 3475 3122 3366 
z
" transform="scale(0.015625)"/>
       <path id="DejaVuSans-76" d="M 191 3500 
L 800 3500 
L 1894 563 
L 2988 3500 
L 3597 3500 
L 2284 0 
L 1503 0 
L 191 3500 
z
" transform="scale(0.015625)"/>
       <path id="DejaVuSans-70" d="M 1159 525 
L 1159 -1331 
L 581 -1331 
L 581 3500 
L 1159 3500 
L 1159 2969 
Q 1341 3281 1617 3432 
Q 1894 3584 2278 3584 
Q 2916 3584 3314 3078 
Q 3713 2572 3713 1747 
Q 3713 922 3314 415 
Q 2916 -91 2278 -91 
Q 1894 -91 1617 61 
Q 1341 213 1159 525 
z
M 3116 1747 
Q 3116 2381 2855 2742 
Q 2594 3103 2138 3103 
Q 1681 3103 1420 2742 
Q 1159 2381 1159 1747 
Q 1159 1113 1420 752 
Q 1681 391 2138 391 
Q 2594 391 2855 752 
Q 3116 1113 3116 1747 
z
" transform="scale(0.015625)"/>
       <path id="DejaVuSans-65" d="M 3597 1894 
L 3597 1613 
L 953 1613 
Q 991 1019 1311 708 
Q 1631 397 2203 397 
Q 2534 397 2845 478 
Q 3156 559 3463 722 
L 3463 178 
Q 3153 47 2828 -22 
Q 2503 -91 2169 -91 
Q 1331 -91 842 396 
Q 353 884 353 1716 
Q 353 2575 817 3079 
Q 1281 3584 2069 3584 
Q 2775 3584 3186 3129 
Q 3597 2675 3597 1894 
z
M 3022 2063 
Q 3016 2534 2758 2815 
Q 2500 3097 2075 3097 
Q 1594 3097 1305 2825 
Q 1016 2553 972 2059 
L 3022 2063 
z
" transform="scale(0.015625)"/>
       <path id="DejaVuSans-6c" d="M 603 4863 
L 1178 4863 
L 1178 0 
L 603 0 
L 603 4863 
z
" transform="scale(0.015625)"/>
      </defs>
      <use xlink:href="#DejaVuSans-43"/>
      <use xlink:href="#DejaVuSans-6f" x="69.824219"/>
      <use xlink:href="#DejaVuSans-6e" x="131.005859"/>
      <use xlink:href="#DejaVuSans-66" x="194.384766"/>
      <use xlink:href="#DejaVuSans-69" x="229.589844"/>
      <use xlink:href="#DejaVuSans-72" x="257.373047"/>
      <use xlink:href="#DejaVuSans-6d" x="296.736328"/>
      <use xlink:href="#DejaVuSans-61" x="394.148438"/>
      <use xlink:href="#DejaVuSans-74" x="455.427734"/>
      <use xlink:href="#DejaVuSans-6f" x="494.636719"/>
      <use xlink:href="#DejaVuSans-72" x="555.818359"/>
      <use xlink:href="#DejaVuSans-79" x="596.931641"/>
      <use xlink:href="#DejaVuSans-20" x="656.111328"/>
      <use xlink:href="#DejaVuSans-61" x="687.898438"/>
      <use xlink:href="#DejaVuSans-63" x="749.177734"/>
      <use xlink:href="#DejaVuSans-74" x="804.158203"/>
      <use xlink:href="#DejaVuSans-69" x="843.367188"/>
      <use xlink:href="#DejaVuSans-76" x="871.150391"/>
      <use xlink:href="#DejaVuSans-69" x="930.330078"/>
      <use xlink:href="#DejaVuSans-74" x="958.113281"/>
      <use xlink:href="#DejaVuSans-79" x="997.322266"/>
      <use xlink:href="#DejaVuSans-20" x="1056.501953"/>
      <use xlink:href="#DejaVuSans-70" x="1088.289062"/>
      <use xlink:href="#DejaVuSans-65" x="1151.765625"/>
      <use xlink:href="#DejaVuSans-72" x="1213.289062"/>
      <use xlink:href="#DejaVuSans-63" x="1252.152344"/>
      <use xlink:href="#DejaVuSans-65" x="1307.132812"/>
      <use xlink:href="#DejaVuSans-6e" x="1368.65625"/>
      <use xlink:href="#DejaVuSans-74" x="1432.035156"/>
      <use xlink:href="#DejaVuSans-69" x="1471.244141"/>
      <use xlink:href="#DejaVuSans-6c" x="1499.027344"/>
      <use xlink:href="#DejaVuSans-65" x="1526.810547"/>
     </g>
    </g>
   </g>
   <g id="patch_3">
    <path d="M 90.114063 550.8 
L 90.114063 7.2 
" style="fill: none; stroke: #000000; stroke-width: 0.8; stroke-linejoin: miter; stroke-linecap: square"/>
   </g>
   <g id="patch_4">
    <path d="M 648.114063 550.8 
L 648.114063 7.2 
" style="fill: none; stroke: #000000; stroke-width: 0.8; stroke-linejoin: miter; stroke-linecap: square"/>
   </g>
   <g id="patch_5">
    <path d="M 90.114063 550.8 
L 648.114063 550.8 
" style="fill: none; stroke: #000000; stroke-width: 0.8; stroke-linejoin: miter; stroke-linecap: square"/>
   </g>
   <g id="patch_6">
    <path d="M 90.114063 7.2 
L 648.114063 7.2 
" style="fill: none; stroke: #000000; stroke-width: 0.8; stroke-linejoin: miter; stroke-linecap: square"/>
   </g>
   <g id="legend_1">
    <g id="patch_7">
     <path d="M 105.514063 153.9675 
L 353.481563 153.9675 
Q 357.881563 153.9675 357.881563 149.5675 
L 357.881563 22.6 
Q 357.881563 18.2 353.481563 18.2 
L 105.514063 18.2 
Q 101.114063 18.2 101.114063 22.6 
L 101.114063 149.5675 
Q 101.114063 153.9675 105.514063 153.9675 
z
" style="fill: #ffffff; opacity: 0.8; stroke: #cccccc; stroke-linejoin: miter"/>
    </g>
    <g id="patch_8">
     <path d="M 109.914063 43.716563 
L 153.914062 43.716563 
L 153.914062 28.316563 
L 109.914063 28.316563 
z
" style="fill: #6495ed; stroke: #6495ed; stroke-linejoin: miter"/>
    </g>
    <g id="text_12">
     <!-- MVS-A -->
     <g transform="translate(171.514063 43.716563)scale(0.22 -0.22)">
      <defs>
       <path id="DejaVuSans-4d" d="M 628 4666 
L 1569 4666 
L 2759 1491 
L 3956 4666 
L 4897 4666 
L 4897 0 
L 4281 0 
L 4281 4097 
L 3078 897 
L 2444 897 
L 1241 4097 
L 1241 0 
L 628 0 
L 628 4666 
z
" transform="scale(0.015625)"/>
       <path id="DejaVuSans-56" d="M 1831 0 
L 50 4666 
L 709 4666 
L 2188 738 
L 3669 4666 
L 4325 4666 
L 2547 0 
L 1831 0 
z
" transform="scale(0.015625)"/>
       <path id="DejaVuSans-53" d="M 3425 4513 
L 3425 3897 
Q 3066 4069 2747 4153 
Q 2428 4238 2131 4238 
Q 1616 4238 1336 4038 
Q 1056 3838 1056 3469 
Q 1056 3159 1242 3001 
Q 1428 2844 1947 2747 
L 2328 2669 
Q 3034 2534 3370 2195 
Q 3706 1856 3706 1288 
Q 3706 609 3251 259 
Q 2797 -91 1919 -91 
Q 1588 -91 1214 -16 
Q 841 59 441 206 
L 441 856 
Q 825 641 1194 531 
Q 1563 422 1919 422 
Q 2459 422 2753 634 
Q 3047 847 3047 1241 
Q 3047 1584 2836 1778 
Q 2625 1972 2144 2069 
L 1759 2144 
Q 1053 2284 737 2584 
Q 422 2884 422 3419 
Q 422 4038 858 4394 
Q 1294 4750 2059 4750 
Q 2388 4750 2728 4690 
Q 3069 4631 3425 4513 
z
" transform="scale(0.015625)"/>
       <path id="DejaVuSans-2d" d="M 313 2009 
L 1997 2009 
L 1997 1497 
L 313 1497 
L 313 2009 
z
" transform="scale(0.015625)"/>
       <path id="DejaVuSans-41" d="M 2188 4044 
L 1331 1722 
L 3047 1722 
L 2188 4044 
z
M 1831 4666 
L 2547 4666 
L 4325 0 
L 3669 0 
L 3244 1197 
L 1141 1197 
L 716 0 
L 50 0 
L 1831 4666 
z
" transform="scale(0.015625)"/>
      </defs>
      <use xlink:href="#DejaVuSans-4d"/>
      <use xlink:href="#DejaVuSans-56" x="86.279297"/>
      <use xlink:href="#DejaVuSans-53" x="154.6875"/>
      <use xlink:href="#DejaVuSans-2d" x="218.164062"/>
      <use xlink:href="#DejaVuSans-41" x="251.998047"/>
     </g>
    </g>
    <g id="patch_9">
     <path d="M 109.914063 76.008438 
L 153.914062 76.008438 
L 153.914062 60.608438 
L 109.914063 60.608438 
z
" style="fill: #cd5c5c; stroke: #cd5c5c; stroke-linejoin: miter"/>
    </g>
    <g id="text_13">
     <!-- CatBoost -->
     <g transform="translate(171.514063 76.008438)scale(0.22 -0.22)">
      <defs>
       <path id="DejaVuSans-42" d="M 1259 2228 
L 1259 519 
L 2272 519 
Q 2781 519 3026 730 
Q 3272 941 3272 1375 
Q 3272 1813 3026 2020 
Q 2781 2228 2272 2228 
L 1259 2228 
z
M 1259 4147 
L 1259 2741 
L 2194 2741 
Q 2656 2741 2882 2914 
Q 3109 3088 3109 3444 
Q 3109 3797 2882 3972 
Q 2656 4147 2194 4147 
L 1259 4147 
z
M 628 4666 
L 2241 4666 
Q 2963 4666 3353 4366 
Q 3744 4066 3744 3513 
Q 3744 3084 3544 2831 
Q 3344 2578 2956 2516 
Q 3422 2416 3680 2098 
Q 3938 1781 3938 1306 
Q 3938 681 3513 340 
Q 3088 0 2303 0 
L 628 0 
L 628 4666 
z
" transform="scale(0.015625)"/>
       <path id="DejaVuSans-73" d="M 2834 3397 
L 2834 2853 
Q 2591 2978 2328 3040 
Q 2066 3103 1784 3103 
Q 1356 3103 1142 2972 
Q 928 2841 928 2578 
Q 928 2378 1081 2264 
Q 1234 2150 1697 2047 
L 1894 2003 
Q 2506 1872 2764 1633 
Q 3022 1394 3022 966 
Q 3022 478 2636 193 
Q 2250 -91 1575 -91 
Q 1294 -91 989 -36 
Q 684 19 347 128 
L 347 722 
Q 666 556 975 473 
Q 1284 391 1588 391 
Q 1994 391 2212 530 
Q 2431 669 2431 922 
Q 2431 1156 2273 1281 
Q 2116 1406 1581 1522 
L 1381 1569 
Q 847 1681 609 1914 
Q 372 2147 372 2553 
Q 372 3047 722 3315 
Q 1072 3584 1716 3584 
Q 2034 3584 2315 3537 
Q 2597 3491 2834 3397 
z
" transform="scale(0.015625)"/>
      </defs>
      <use xlink:href="#DejaVuSans-43"/>
      <use xlink:href="#DejaVuSans-61" x="69.824219"/>
      <use xlink:href="#DejaVuSans-74" x="131.103516"/>
      <use xlink:href="#DejaVuSans-42" x="170.3125"/>
      <use xlink:href="#DejaVuSans-6f" x="238.916016"/>
      <use xlink:href="#DejaVuSans-6f" x="300.097656"/>
      <use xlink:href="#DejaVuSans-73" x="361.279297"/>
      <use xlink:href="#DejaVuSans-74" x="413.378906"/>
     </g>
    </g>
    <g id="patch_10">
     <path d="M 109.914063 108.300313 
L 153.914062 108.300313 
L 153.914062 92.900313 
L 109.914063 92.900313 
z
" style="fill: #c0c0c0; stroke: #c0c0c0; stroke-linejoin: miter"/>
    </g>
    <g id="text_14">
     <!-- PAINS -->
     <g transform="translate(171.514063 108.300313)scale(0.22 -0.22)">
      <defs>
       <path id="DejaVuSans-50" d="M 1259 4147 
L 1259 2394 
L 2053 2394 
Q 2494 2394 2734 2622 
Q 2975 2850 2975 3272 
Q 2975 3691 2734 3919 
Q 2494 4147 2053 4147 
L 1259 4147 
z
M 628 4666 
L 2053 4666 
Q 2838 4666 3239 4311 
Q 3641 3956 3641 3272 
Q 3641 2581 3239 2228 
Q 2838 1875 2053 1875 
L 1259 1875 
L 1259 0 
L 628 0 
L 628 4666 
z
" transform="scale(0.015625)"/>
       <path id="DejaVuSans-49" d="M 628 4666 
L 1259 4666 
L 1259 0 
L 628 0 
L 628 4666 
z
" transform="scale(0.015625)"/>
       <path id="DejaVuSans-4e" d="M 628 4666 
L 1478 4666 
L 3547 763 
L 3547 4666 
L 4159 4666 
L 4159 0 
L 3309 0 
L 1241 3903 
L 1241 0 
L 628 0 
L 628 4666 
z
" transform="scale(0.015625)"/>
      </defs>
      <use xlink:href="#DejaVuSans-50"/>
      <use xlink:href="#DejaVuSans-41" x="53.927734"/>
      <use xlink:href="#DejaVuSans-49" x="122.335938"/>
      <use xlink:href="#DejaVuSans-4e" x="151.828125"/>
      <use xlink:href="#DejaVuSans-53" x="226.632812"/>
     </g>
    </g>
    <g id="patch_11">
     <path d="M 109.914063 140.592188 
L 153.914062 140.592188 
L 153.914062 125.192188 
L 109.914063 125.192188 
z
" style="fill: #696969; stroke: #696969; stroke-linejoin: miter"/>
    </g>
    <g id="text_15">
     <!-- Primary readout -->
     <g transform="translate(171.514063 140.592188)scale(0.22 -0.22)">
      <defs>
       <path id="DejaVuSans-64" d="M 2906 2969 
L 2906 4863 
L 3481 4863 
L 3481 0 
L 2906 0 
L 2906 525 
Q 2725 213 2448 61 
Q 2172 -91 1784 -91 
Q 1150 -91 751 415 
Q 353 922 353 1747 
Q 353 2572 751 3078 
Q 1150 3584 1784 3584 
Q 2172 3584 2448 3432 
Q 2725 3281 2906 2969 
z
M 947 1747 
Q 947 1113 1208 752 
Q 1469 391 1925 391 
Q 2381 391 2643 752 
Q 2906 1113 2906 1747 
Q 2906 2381 2643 2742 
Q 2381 3103 1925 3103 
Q 1469 3103 1208 2742 
Q 947 2381 947 1747 
z
" transform="scale(0.015625)"/>
       <path id="DejaVuSans-75" d="M 544 1381 
L 544 3500 
L 1119 3500 
L 1119 1403 
Q 1119 906 1312 657 
Q 1506 409 1894 409 
Q 2359 409 2629 706 
Q 2900 1003 2900 1516 
L 2900 3500 
L 3475 3500 
L 3475 0 
L 2900 0 
L 2900 538 
Q 2691 219 2414 64 
Q 2138 -91 1772 -91 
Q 1169 -91 856 284 
Q 544 659 544 1381 
z
M 1991 3584 
L 1991 3584 
z
" transform="scale(0.015625)"/>
      </defs>
      <use xlink:href="#DejaVuSans-50"/>
      <use xlink:href="#DejaVuSans-72" x="58.552734"/>
      <use xlink:href="#DejaVuSans-69" x="99.666016"/>
      <use xlink:href="#DejaVuSans-6d" x="127.449219"/>
      <use xlink:href="#DejaVuSans-61" x="224.861328"/>
      <use xlink:href="#DejaVuSans-72" x="286.140625"/>
      <use xlink:href="#DejaVuSans-79" x="327.253906"/>
      <use xlink:href="#DejaVuSans-20" x="386.433594"/>
      <use xlink:href="#DejaVuSans-72" x="418.220703"/>
      <use xlink:href="#DejaVuSans-65" x="457.083984"/>
      <use xlink:href="#DejaVuSans-61" x="518.607422"/>
      <use xlink:href="#DejaVuSans-64" x="579.886719"/>
      <use xlink:href="#DejaVuSans-6f" x="643.363281"/>
      <use xlink:href="#DejaVuSans-75" x="704.544922"/>
      <use xlink:href="#DejaVuSans-74" x="767.923828"/>
     </g>
    </g>
   </g>
   <g id="PolyCollection_1">
    <defs>
     <path id="m3ad2659857" d="M 168.505551 -94.021773 
L 134.917379 -94.021773 
L 134.428655 -96.789464 
L 133.954404 -99.557154 
L 133.494461 -102.324844 
L 133.048372 -105.092535 
L 132.615409 -107.860225 
L 132.194587 -110.627915 
L 131.784693 -113.395606 
L 131.384318 -116.163296 
L 130.991893 -118.930986 
L 130.605728 -121.698677 
L 130.224057 -124.466367 
L 129.845077 -127.234057 
L 129.466998 -130.001747 
L 129.088084 -132.769438 
L 128.706695 -135.537128 
L 128.321327 -138.304818 
L 127.93065 -141.072509 
L 127.533535 -143.840199 
L 127.129084 -146.607889 
L 126.716647 -149.37558 
L 126.295842 -152.14327 
L 125.866559 -154.91096 
L 125.428965 -157.67865 
L 124.983498 -160.446341 
L 124.53086 -163.214031 
L 124.072001 -165.981721 
L 123.608103 -168.749412 
L 123.140552 -171.517102 
L 122.670916 -174.284792 
L 122.200916 -177.052483 
L 121.732393 -179.820173 
L 121.267285 -182.587863 
L 120.807587 -185.355553 
L 120.355332 -188.123244 
L 119.912557 -190.890934 
L 119.481279 -193.658624 
L 119.063475 -196.426315 
L 118.661059 -199.194005 
L 118.27587 -201.961695 
L 117.909657 -204.729386 
L 117.564067 -207.497076 
L 117.240642 -210.264766 
L 116.940815 -213.032456 
L 116.665906 -215.800147 
L 116.417124 -218.567837 
L 116.195568 -221.335527 
L 116.002232 -224.103218 
L 115.838004 -226.870908 
L 115.703674 -229.638598 
L 115.599932 -232.406289 
L 115.527373 -235.173979 
L 115.486494 -237.941669 
L 115.477699 -240.70936 
L 115.501289 -243.47705 
L 115.557465 -246.24474 
L 115.646319 -249.01243 
L 115.76783 -251.780121 
L 115.921858 -254.547811 
L 116.108136 -257.315501 
L 116.326265 -260.083192 
L 116.575707 -262.850882 
L 116.855781 -265.618572 
L 117.165662 -268.386263 
L 117.504379 -271.153953 
L 117.870819 -273.921643 
L 118.263729 -276.689333 
L 118.681727 -279.457024 
L 119.123316 -282.224714 
L 119.586891 -284.992404 
L 120.070763 -287.760095 
L 120.573178 -290.527785 
L 121.092336 -293.295475 
L 121.626419 -296.063166 
L 122.173614 -298.830856 
L 122.732137 -301.598546 
L 123.300261 -304.366236 
L 123.876337 -307.133927 
L 124.458818 -309.901617 
L 125.046276 -312.669307 
L 125.637422 -315.436998 
L 126.231115 -318.204688 
L 126.826372 -320.972378 
L 127.422371 -323.740069 
L 128.018455 -326.507759 
L 128.614123 -329.275449 
L 129.20902 -332.043139 
L 129.802931 -334.81083 
L 130.395755 -337.57852 
L 130.987493 -340.34621 
L 131.578224 -343.113901 
L 132.168078 -345.881591 
L 132.757215 -348.649281 
L 133.3458 -351.416972 
L 133.933975 -354.184662 
L 134.521841 -356.952352 
L 135.109434 -359.720042 
L 135.696707 -362.487733 
L 136.283513 -365.255423 
L 136.869598 -368.023113 
L 166.553332 -368.023113 
L 166.553332 -368.023113 
L 167.139417 -365.255423 
L 167.726224 -362.487733 
L 168.313496 -359.720042 
L 168.901089 -356.952352 
L 169.488955 -354.184662 
L 170.077131 -351.416972 
L 170.665715 -348.649281 
L 171.254852 -345.881591 
L 171.844706 -343.113901 
L 172.435437 -340.34621 
L 173.027175 -337.57852 
L 173.62 -334.81083 
L 174.21391 -332.043139 
L 174.808807 -329.275449 
L 175.404475 -326.507759 
L 176.000559 -323.740069 
L 176.596559 -320.972378 
L 177.191815 -318.204688 
L 177.785508 -315.436998 
L 178.376654 -312.669307 
L 178.964113 -309.901617 
L 179.546593 -307.133927 
L 180.12267 -304.366236 
L 180.690793 -301.598546 
L 181.249316 -298.830856 
L 181.796511 -296.063166 
L 182.330594 -293.295475 
L 182.849752 -290.527785 
L 183.352167 -287.760095 
L 183.836039 -284.992404 
L 184.299614 -282.224714 
L 184.741203 -279.457024 
L 185.159202 -276.689333 
L 185.552111 -273.921643 
L 185.918551 -271.153953 
L 186.257268 -268.386263 
L 186.567149 -265.618572 
L 186.847223 -262.850882 
L 187.096665 -260.083192 
L 187.314794 -257.315501 
L 187.501072 -254.547811 
L 187.6551 -251.780121 
L 187.776612 -249.01243 
L 187.865465 -246.24474 
L 187.921641 -243.47705 
L 187.945231 -240.70936 
L 187.936436 -237.941669 
L 187.895558 -235.173979 
L 187.822998 -232.406289 
L 187.719256 -229.638598 
L 187.584926 -226.870908 
L 187.420698 -224.103218 
L 187.227362 -221.335527 
L 187.005806 -218.567837 
L 186.757024 -215.800147 
L 186.482115 -213.032456 
L 186.182288 -210.264766 
L 185.858863 -207.497076 
L 185.513273 -204.729386 
L 185.14706 -201.961695 
L 184.761871 -199.194005 
L 184.359456 -196.426315 
L 183.941651 -193.658624 
L 183.510373 -190.890934 
L 183.067598 -188.123244 
L 182.615343 -185.355553 
L 182.155646 -182.587863 
L 181.690537 -179.820173 
L 181.222014 -177.052483 
L 180.752014 -174.284792 
L 180.282378 -171.517102 
L 179.814827 -168.749412 
L 179.350929 -165.981721 
L 178.892071 -163.214031 
L 178.439433 -160.446341 
L 177.993965 -157.67865 
L 177.556371 -154.91096 
L 177.127088 -152.14327 
L 176.706283 -149.37558 
L 176.293847 -146.607889 
L 175.889395 -143.840199 
L 175.49228 -141.072509 
L 175.101603 -138.304818 
L 174.716236 -135.537128 
L 174.334847 -132.769438 
L 173.955933 -130.001747 
L 173.577854 -127.234057 
L 173.198874 -124.466367 
L 172.817202 -121.698677 
L 172.431037 -118.930986 
L 172.038612 -116.163296 
L 171.638238 -113.395606 
L 171.228344 -110.627915 
L 170.807521 -107.860225 
L 170.374558 -105.092535 
L 169.928469 -102.324844 
L 169.468526 -99.557154 
L 168.994275 -96.789464 
L 168.505551 -94.021773 
z
" style="stroke: #000000; stroke-opacity: 0.8"/>
    </defs>
    <g clip-path="url(#p66c56a0ed8)">
     <use xlink:href="#m3ad2659857" x="0" y="561.5" style="fill: #6495ed; fill-opacity: 0.8; stroke: #000000; stroke-opacity: 0.8"/>
    </g>
   </g>
   <g id="PolyCollection_2">
    <defs>
     <path id="m6ec4aa8808" d="M 311.214392 -102.030645 
L 282.078668 -102.030645 
L 281.686217 -104.683637 
L 281.314277 -107.336628 
L 280.962014 -109.98962 
L 280.628114 -112.642612 
L 280.31081 -115.295603 
L 280.007916 -117.948595 
L 279.716876 -120.601587 
L 279.434821 -123.254578 
L 279.158636 -125.90757 
L 278.885027 -128.560562 
L 278.610597 -131.213553 
L 278.331929 -133.866545 
L 278.045654 -136.519537 
L 277.748534 -139.172528 
L 277.437532 -141.82552 
L 277.109876 -144.478512 
L 276.763122 -147.131503 
L 276.395203 -149.784495 
L 276.004473 -152.437487 
L 275.589736 -155.090478 
L 275.150269 -157.74347 
L 274.685835 -160.396462 
L 274.196682 -163.049453 
L 273.683533 -165.702445 
L 273.147572 -168.355437 
L 272.590415 -171.008428 
L 272.014077 -173.66142 
L 271.420936 -176.314412 
L 270.813685 -178.967403 
L 270.195293 -181.620395 
L 269.568947 -184.273387 
L 268.938011 -186.926378 
L 268.305973 -189.57937 
L 267.676398 -192.232362 
L 267.052887 -194.885353 
L 266.439032 -197.538345 
L 265.838379 -200.191337 
L 265.254398 -202.844328 
L 264.690453 -205.49732 
L 264.149779 -208.150312 
L 263.635464 -210.803303 
L 263.150436 -213.456295 
L 262.697454 -216.109287 
L 262.279101 -218.762278 
L 261.897786 -221.41527 
L 261.555737 -224.068262 
L 261.255015 -226.721253 
L 260.997505 -229.374245 
L 260.784931 -232.027237 
L 260.618851 -234.680228 
L 260.500664 -237.33322 
L 260.431609 -239.986212 
L 260.412764 -242.639203 
L 260.445038 -245.292195 
L 260.529167 -247.945186 
L 260.665703 -250.598178 
L 260.854999 -253.25117 
L 261.097196 -255.904161 
L 261.392201 -258.557153 
L 261.739673 -261.210145 
L 262.139002 -263.863136 
L 262.589291 -266.516128 
L 263.089338 -269.16912 
L 263.637626 -271.822111 
L 264.232307 -274.475103 
L 264.871203 -277.128095 
L 265.551803 -279.781086 
L 266.271272 -282.434078 
L 267.026461 -285.08707 
L 267.813933 -287.740061 
L 268.629987 -290.393053 
L 269.470694 -293.046045 
L 270.331942 -295.699036 
L 271.209476 -298.352028 
L 272.098959 -301.00502 
L 272.996018 -303.658011 
L 273.896309 -306.311003 
L 274.795572 -308.963995 
L 275.68969 -311.616986 
L 276.574741 -314.269978 
L 277.447054 -316.92297 
L 278.303254 -319.575961 
L 279.140301 -322.228953 
L 279.955522 -324.881945 
L 280.746639 -327.534936 
L 281.511782 -330.187928 
L 282.249496 -332.84092 
L 282.95874 -335.493911 
L 283.638877 -338.146903 
L 284.289653 -340.799895 
L 284.911172 -343.452886 
L 285.503864 -346.105878 
L 286.068447 -348.75887 
L 286.605882 -351.411861 
L 287.117335 -354.064853 
L 287.604125 -356.717845 
L 288.067678 -359.370836 
L 288.509489 -362.023828 
L 288.93107 -364.67682 
L 304.36199 -364.67682 
L 304.36199 -364.67682 
L 304.783571 -362.023828 
L 305.225382 -359.370836 
L 305.688935 -356.717845 
L 306.175725 -354.064853 
L 306.687178 -351.411861 
L 307.224613 -348.75887 
L 307.789196 -346.105878 
L 308.381888 -343.452886 
L 309.003407 -340.799895 
L 309.654183 -338.146903 
L 310.33432 -335.493911 
L 311.043564 -332.84092 
L 311.781278 -330.187928 
L 312.546421 -327.534936 
L 313.337538 -324.881945 
L 314.152759 -322.228953 
L 314.989806 -319.575961 
L 315.846006 -316.92297 
L 316.718319 -314.269978 
L 317.60337 -311.616986 
L 318.497488 -308.963995 
L 319.396751 -306.311003 
L 320.297042 -303.658011 
L 321.194101 -301.00502 
L 322.083584 -298.352028 
L 322.961118 -295.699036 
L 323.822366 -293.046045 
L 324.663073 -290.393053 
L 325.479127 -287.740061 
L 326.266599 -285.08707 
L 327.021788 -282.434078 
L 327.741257 -279.781086 
L 328.421857 -277.128095 
L 329.060753 -274.475103 
L 329.655434 -271.822111 
L 330.203722 -269.16912 
L 330.703769 -266.516128 
L 331.154058 -263.863136 
L 331.553387 -261.210145 
L 331.900859 -258.557153 
L 332.195864 -255.904161 
L 332.438061 -253.25117 
L 332.627357 -250.598178 
L 332.763893 -247.945186 
L 332.848023 -245.292195 
L 332.880296 -242.639203 
L 332.861451 -239.986212 
L 332.792396 -237.33322 
L 332.674209 -234.680228 
L 332.508129 -232.027237 
L 332.295555 -229.374245 
L 332.038045 -226.721253 
L 331.737323 -224.068262 
L 331.395275 -221.41527 
L 331.013959 -218.762278 
L 330.595606 -216.109287 
L 330.142624 -213.456295 
L 329.657596 -210.803303 
L 329.143281 -208.150312 
L 328.602607 -205.49732 
L 328.038662 -202.844328 
L 327.454681 -200.191337 
L 326.854028 -197.538345 
L 326.240173 -194.885353 
L 325.616662 -192.232362 
L 324.987087 -189.57937 
L 324.355049 -186.926378 
L 323.724113 -184.273387 
L 323.097767 -181.620395 
L 322.479375 -178.967403 
L 321.872124 -176.314412 
L 321.278983 -173.66142 
L 320.702645 -171.008428 
L 320.145488 -168.355437 
L 319.609527 -165.702445 
L 319.096378 -163.049453 
L 318.607225 -160.396462 
L 318.142791 -157.74347 
L 317.703325 -155.090478 
L 317.288587 -152.437487 
L 316.897857 -149.784495 
L 316.529938 -147.131503 
L 316.183184 -144.478512 
L 315.855528 -141.82552 
L 315.544526 -139.172528 
L 315.247406 -136.519537 
L 314.961131 -133.866545 
L 314.682463 -131.213553 
L 314.408033 -128.560562 
L 314.134424 -125.90757 
L 313.858239 -123.254578 
L 313.576184 -120.601587 
L 313.285144 -117.948595 
L 312.98225 -115.295603 
L 312.664946 -112.642612 
L 312.331046 -109.98962 
L 311.978783 -107.336628 
L 311.606843 -104.683637 
L 311.214392 -102.030645 
z
" style="stroke: #000000; stroke-opacity: 0.8"/>
    </defs>
    <g clip-path="url(#p66c56a0ed8)">
     <use xlink:href="#m6ec4aa8808" x="0" y="561.5" style="fill: #cd5c5c; fill-opacity: 0.8; stroke: #000000; stroke-opacity: 0.8"/>
    </g>
   </g>
   <g id="PolyCollection_3">
    <defs>
     <path id="m1185e92b66" d="M 452.387772 -45.676442 
L 430.775418 -45.676442 
L 430.310879 -48.014766 
L 429.840857 -50.353091 
L 429.365448 -52.691416 
L 428.884659 -55.02974 
L 428.398414 -57.368065 
L 427.906545 -59.70639 
L 427.408802 -62.044715 
L 426.904851 -64.383039 
L 426.39429 -66.721364 
L 425.876649 -69.059689 
L 425.351412 -71.398013 
L 424.818026 -73.736338 
L 424.275922 -76.074663 
L 423.724536 -78.412988 
L 423.163328 -80.751312 
L 422.591807 -83.089637 
L 422.00956 -85.427962 
L 421.416274 -87.766286 
L 420.811766 -90.104611 
L 420.196008 -92.442936 
L 419.569153 -94.781261 
L 418.931563 -97.119585 
L 418.283827 -99.45791 
L 417.626785 -101.796235 
L 416.961542 -104.134559 
L 416.289485 -106.472884 
L 415.612284 -108.811209 
L 414.931904 -111.149534 
L 414.250595 -113.487858 
L 413.570891 -115.826183 
L 412.895589 -118.164508 
L 412.227733 -120.502832 
L 411.570587 -122.841157 
L 410.927599 -125.179482 
L 410.302367 -127.517807 
L 409.698593 -129.856131 
L 409.120037 -132.194456 
L 408.57046 -134.532781 
L 408.053575 -136.871105 
L 407.572983 -139.20943 
L 407.13212 -141.547755 
L 406.734195 -143.88608 
L 406.382132 -146.224404 
L 406.078518 -148.562729 
L 405.825548 -150.901054 
L 405.624977 -153.239378 
L 405.478083 -155.577703 
L 405.385627 -157.916028 
L 405.347829 -160.254353 
L 405.364345 -162.592677 
L 405.434262 -164.931002 
L 405.556091 -167.269327 
L 405.727781 -169.607651 
L 405.946733 -171.945976 
L 406.209831 -174.284301 
L 406.513475 -176.622626 
L 406.853633 -178.96095 
L 407.225887 -181.299275 
L 407.625502 -183.6376 
L 408.047486 -185.975924 
L 408.48667 -188.314249 
L 408.937778 -190.652574 
L 409.395509 -192.990899 
L 409.85462 -195.329223 
L 410.309999 -197.667548 
L 410.756753 -200.005873 
L 411.190276 -202.344197 
L 411.606325 -204.682522 
L 412.001084 -207.020847 
L 412.371223 -209.359172 
L 412.713953 -211.697496 
L 413.027063 -214.035821 
L 413.308959 -216.374146 
L 413.558684 -218.71247 
L 413.775929 -221.050795 
L 413.961042 -223.38912 
L 414.115011 -225.727445 
L 414.239452 -228.065769 
L 414.336573 -230.404094 
L 414.409141 -232.742419 
L 414.460427 -235.080743 
L 414.494157 -237.419068 
L 414.514441 -239.757393 
L 414.525709 -242.095718 
L 414.532631 -244.434042 
L 414.540044 -246.772367 
L 414.552868 -249.110692 
L 414.576027 -251.449016 
L 414.614365 -253.787341 
L 414.672572 -256.125666 
L 414.755105 -258.463991 
L 414.866121 -260.802315 
L 415.009409 -263.14064 
L 415.188334 -265.478965 
L 415.405785 -267.817289 
L 415.664138 -270.155614 
L 415.965219 -272.493939 
L 416.310285 -274.832264 
L 416.700008 -277.170588 
L 466.463182 -277.170588 
L 466.463182 -277.170588 
L 466.852905 -274.832264 
L 467.197971 -272.493939 
L 467.499052 -270.155614 
L 467.757405 -267.817289 
L 467.974856 -265.478965 
L 468.153781 -263.14064 
L 468.297069 -260.802315 
L 468.408085 -258.463991 
L 468.490618 -256.125666 
L 468.548825 -253.787341 
L 468.587163 -251.449016 
L 468.610322 -249.110692 
L 468.623146 -246.772367 
L 468.630559 -244.434042 
L 468.637481 -242.095718 
L 468.648749 -239.757393 
L 468.669033 -237.419068 
L 468.702762 -235.080743 
L 468.754049 -232.742419 
L 468.826617 -230.404094 
L 468.923738 -228.065769 
L 469.048179 -225.727445 
L 469.202148 -223.38912 
L 469.387261 -221.050795 
L 469.604506 -218.71247 
L 469.854231 -216.374146 
L 470.136127 -214.035821 
L 470.449237 -211.697496 
L 470.791967 -209.359172 
L 471.162106 -207.020847 
L 471.556865 -204.682522 
L 471.972913 -202.344197 
L 472.406437 -200.005873 
L 472.853191 -197.667548 
L 473.30857 -195.329223 
L 473.767681 -192.990899 
L 474.225412 -190.652574 
L 474.67652 -188.314249 
L 475.115704 -185.975924 
L 475.537688 -183.6376 
L 475.937303 -181.299275 
L 476.309557 -178.96095 
L 476.649714 -176.622626 
L 476.953359 -174.284301 
L 477.216457 -171.945976 
L 477.435409 -169.607651 
L 477.607099 -167.269327 
L 477.728928 -164.931002 
L 477.798845 -162.592677 
L 477.815361 -160.254353 
L 477.777563 -157.916028 
L 477.685107 -155.577703 
L 477.538213 -153.239378 
L 477.337642 -150.901054 
L 477.084672 -148.562729 
L 476.781057 -146.224404 
L 476.428995 -143.88608 
L 476.03107 -141.547755 
L 475.590207 -139.20943 
L 475.109615 -136.871105 
L 474.59273 -134.532781 
L 474.043153 -132.194456 
L 473.464597 -129.856131 
L 472.860823 -127.517807 
L 472.235591 -125.179482 
L 471.592603 -122.841157 
L 470.935456 -120.502832 
L 470.267601 -118.164508 
L 469.592299 -115.826183 
L 468.912595 -113.487858 
L 468.231286 -111.149534 
L 467.550906 -108.811209 
L 466.873705 -106.472884 
L 466.201647 -104.134559 
L 465.536405 -101.796235 
L 464.879363 -99.45791 
L 464.231627 -97.119585 
L 463.594037 -94.781261 
L 462.967182 -92.442936 
L 462.351424 -90.104611 
L 461.746916 -87.766286 
L 461.15363 -85.427962 
L 460.571383 -83.089637 
L 459.999862 -80.751312 
L 459.438654 -78.412988 
L 458.887268 -76.074663 
L 458.345164 -73.736338 
L 457.811778 -71.398013 
L 457.286541 -69.059689 
L 456.7689 -66.721364 
L 456.258339 -64.383039 
L 455.754388 -62.044715 
L 455.256645 -59.70639 
L 454.764776 -57.368065 
L 454.278531 -55.02974 
L 453.797742 -52.691416 
L 453.322332 -50.353091 
L 452.852311 -48.014766 
L 452.387772 -45.676442 
z
" style="stroke: #000000; stroke-opacity: 0.8"/>
    </defs>
    <g clip-path="url(#p66c56a0ed8)">
     <use xlink:href="#m1185e92b66" x="0" y="561.5" style="fill: #c0c0c0; fill-opacity: 0.8; stroke: #000000; stroke-opacity: 0.8"/>
    </g>
   </g>
   <g id="PolyCollection_4">
    <defs>
     <path id="m79f1bb999d" d="M 606.195279 -192.746053 
L 566.83804 -192.746053 
L 565.922673 -195.912496 
L 565.005794 -199.078939 
L 564.090583 -202.245381 
L 563.180306 -205.411824 
L 562.278286 -208.578267 
L 561.387881 -211.744709 
L 560.51246 -214.911152 
L 559.65537 -218.077595 
L 558.819915 -221.244037 
L 558.009323 -224.41048 
L 557.22672 -227.576923 
L 556.475105 -230.743365 
L 555.757321 -233.909808 
L 555.076029 -237.076251 
L 554.433691 -240.242693 
L 553.832543 -243.409136 
L 553.274578 -246.575579 
L 552.761532 -249.742021 
L 552.294869 -252.908464 
L 551.875772 -256.074907 
L 551.505138 -259.241349 
L 551.183572 -262.407792 
L 550.911393 -265.574235 
L 550.688631 -268.740677 
L 550.51504 -271.90712 
L 550.390106 -275.073563 
L 550.313059 -278.240005 
L 550.282894 -281.406448 
L 550.298381 -284.572891 
L 550.358091 -287.739333 
L 550.460417 -290.905776 
L 550.60359 -294.072219 
L 550.785708 -297.238661 
L 551.004756 -300.405104 
L 551.258625 -303.571547 
L 551.545137 -306.737989 
L 551.862062 -309.904432 
L 552.207138 -313.070875 
L 552.578082 -316.237317 
L 552.97261 -319.40376 
L 553.388446 -322.570203 
L 553.823331 -325.736645 
L 554.275028 -328.903088 
L 554.741332 -332.069531 
L 555.220069 -335.235973 
L 555.7091 -338.402416 
L 556.206317 -341.568859 
L 556.709645 -344.735301 
L 557.217043 -347.901744 
L 557.726493 -351.068187 
L 558.236009 -354.23463 
L 558.743627 -357.401072 
L 559.24741 -360.567515 
L 559.745448 -363.733958 
L 560.235862 -366.9004 
L 560.716805 -370.066843 
L 561.186475 -373.233286 
L 561.64312 -376.399728 
L 562.085052 -379.566171 
L 562.51066 -382.732614 
L 562.918426 -385.899056 
L 563.306944 -389.065499 
L 563.674938 -392.231942 
L 564.021285 -395.398384 
L 564.34503 -398.564827 
L 564.645416 -401.73127 
L 564.921896 -404.897712 
L 565.174158 -408.064155 
L 565.402139 -411.230598 
L 565.606042 -414.39704 
L 565.786346 -417.563483 
L 565.943817 -420.729926 
L 566.079511 -423.896368 
L 566.194772 -427.062811 
L 566.291229 -430.229254 
L 566.370786 -433.395696 
L 566.435604 -436.562139 
L 566.488084 -439.728582 
L 566.530841 -442.895024 
L 566.566671 -446.061467 
L 566.59852 -449.22791 
L 566.629446 -452.394352 
L 566.662574 -455.560795 
L 566.701059 -458.727238 
L 566.748035 -461.89368 
L 566.806571 -465.060123 
L 566.879629 -468.226566 
L 566.970013 -471.393008 
L 567.080333 -474.559451 
L 567.212961 -477.725894 
L 567.369994 -480.892336 
L 567.553229 -484.058779 
L 567.764126 -487.225222 
L 568.003797 -490.391664 
L 568.272984 -493.558107 
L 568.57205 -496.72455 
L 568.90098 -499.890992 
L 569.259381 -503.057435 
L 569.646494 -506.223878 
L 603.386826 -506.223878 
L 603.386826 -506.223878 
L 603.773939 -503.057435 
L 604.13234 -499.890992 
L 604.46127 -496.72455 
L 604.760336 -493.558107 
L 605.029522 -490.391664 
L 605.269194 -487.225222 
L 605.480091 -484.058779 
L 605.663325 -480.892336 
L 605.820359 -477.725894 
L 605.952986 -474.559451 
L 606.063306 -471.393008 
L 606.153691 -468.226566 
L 606.226749 -465.060123 
L 606.285285 -461.89368 
L 606.332261 -458.727238 
L 606.370746 -455.560795 
L 606.403874 -452.394352 
L 606.4348 -449.22791 
L 606.466649 -446.061467 
L 606.502479 -442.895024 
L 606.545236 -439.728582 
L 606.597716 -436.562139 
L 606.662534 -433.395696 
L 606.742091 -430.229254 
L 606.838548 -427.062811 
L 606.953809 -423.896368 
L 607.089502 -420.729926 
L 607.246974 -417.563483 
L 607.427278 -414.39704 
L 607.631181 -411.230598 
L 607.859162 -408.064155 
L 608.111423 -404.897712 
L 608.387904 -401.73127 
L 608.68829 -398.564827 
L 609.012035 -395.398384 
L 609.358381 -392.231942 
L 609.726376 -389.065499 
L 610.114894 -385.899056 
L 610.52266 -382.732614 
L 610.948267 -379.566171 
L 611.390199 -376.399728 
L 611.846844 -373.233286 
L 612.316515 -370.066843 
L 612.797458 -366.9004 
L 613.287871 -363.733958 
L 613.78591 -360.567515 
L 614.289693 -357.401072 
L 614.797311 -354.23463 
L 615.306826 -351.068187 
L 615.816277 -347.901744 
L 616.323674 -344.735301 
L 616.827003 -341.568859 
L 617.32422 -338.402416 
L 617.813251 -335.235973 
L 618.291988 -332.069531 
L 618.758292 -328.903088 
L 619.209989 -325.736645 
L 619.644873 -322.570203 
L 620.060709 -319.40376 
L 620.455238 -316.237317 
L 620.826182 -313.070875 
L 621.171257 -309.904432 
L 621.488183 -306.737989 
L 621.774695 -303.571547 
L 622.028564 -300.405104 
L 622.247612 -297.238661 
L 622.42973 -294.072219 
L 622.572903 -290.905776 
L 622.675228 -287.739333 
L 622.734939 -284.572891 
L 622.750426 -281.406448 
L 622.72026 -278.240005 
L 622.643214 -275.073563 
L 622.51828 -271.90712 
L 622.344689 -268.740677 
L 622.121927 -265.574235 
L 621.849747 -262.407792 
L 621.528182 -259.241349 
L 621.157548 -256.074907 
L 620.738451 -252.908464 
L 620.271788 -249.742021 
L 619.758742 -246.575579 
L 619.200777 -243.409136 
L 618.599629 -240.242693 
L 617.957291 -237.076251 
L 617.275999 -233.909808 
L 616.558215 -230.743365 
L 615.806599 -227.576923 
L 615.023997 -224.41048 
L 614.213405 -221.244037 
L 613.377949 -218.077595 
L 612.52086 -214.911152 
L 611.645439 -211.744709 
L 610.755034 -208.578267 
L 609.853014 -205.411824 
L 608.942736 -202.245381 
L 608.027526 -199.078939 
L 607.110647 -195.912496 
L 606.195279 -192.746053 
z
" style="stroke: #000000; stroke-opacity: 0.8"/>
    </defs>
    <g clip-path="url(#p66c56a0ed8)">
     <use xlink:href="#m79f1bb999d" x="0" y="561.5" style="fill: #808080; fill-opacity: 0.8; stroke: #000000; stroke-opacity: 0.8"/>
    </g>
   </g>
   <g id="PathCollection_1">
    <defs>
     <path id="m03fdc4199c" d="M -0 9.354143 
L 9.354143 0 
L 0 -9.354143 
L -9.354143 -0 
z
" style="stroke: #000000"/>
    </defs>
    <g clip-path="url(#p66c56a0ed8)">
     <use xlink:href="#m03fdc4199c" x="151.711465" y="332.851931" style="fill: #ffffff; stroke: #000000"/>
     <use xlink:href="#m03fdc4199c" x="296.64653" y="338.05277" style="fill: #ffffff; stroke: #000000"/>
     <use xlink:href="#m03fdc4199c" x="441.581595" y="378.966568" style="fill: #ffffff; stroke: #000000"/>
     <use xlink:href="#m03fdc4199c" x="586.51666" y="222.990925" style="fill: #ffffff; stroke: #000000"/>
    </g>
   </g>
  </g>
 </g>
 <defs>
  <clipPath id="p66c56a0ed8">
   <rect x="90.114063" y="7.2" width="558" height="543.6"/>
  </clipPath>
 </defs>
</svg>
