<?xml version="1.0" encoding="utf-8" standalone="no"?>
<!DOCTYPE svg PUBLIC "-//W3C//DTD SVG 1.1//EN"
  "http://www.w3.org/Graphics/SVG/1.1/DTD/svg11.dtd">
<svg xmlns:xlink="http://www.w3.org/1999/xlink" width="639.407812pt" height="578.818915pt" viewBox="0 0 639.407812 578.818915" xmlns="http://www.w3.org/2000/svg" version="1.1">
 <metadata>
  <rdf:RDF xmlns:dc="http://purl.org/dc/elements/1.1/" xmlns:cc="http://creativecommons.org/ns#" xmlns:rdf="http://www.w3.org/1999/02/22-rdf-syntax-ns#">
   <cc:Work>
    <dc:type rdf:resource="http://purl.org/dc/dcmitype/StillImage"/>
    <dc:date>2023-05-22T17:27:30.208128</dc:date>
    <dc:format>image/svg+xml</dc:format>
    <dc:creator>
     <cc:Agent>
      <dc:title>Matplotlib v3.5.3, https://matplotlib.org/</dc:title>
     </cc:Agent>
    </dc:creator>
   </cc:Work>
  </rdf:RDF>
 </metadata>
 <defs>
  <style type="text/css">*{stroke-linejoin: round; stroke-linecap: butt}</style>
 </defs>
 <g id="figure_1">
  <g id="patch_1">
   <path d="M 0 578.818915 
L 639.407812 578.818915 
L 639.407812 0 
L 0 0 
z
" style="fill: #ffffff"/>
  </g>
  <g id="axes_1">
   <g id="patch_2">
    <path d="M 74.207813 560.298047 
L 632.207813 560.298047 
L 632.207813 16.698047 
L 74.207813 16.698047 
z
" style="fill: #ffffff"/>
   </g>
   <g id="matplotlib.axis_1"/>
   <g id="matplotlib.axis_2">
    <g id="ytick_1">
     <g id="line2d_1">
      <path d="M 74.207813 556.921649 
L 632.207813 556.921649 
" clip-path="url(#pfccd48dc9e)" style="fill: none; stroke: #b0b0b0; stroke-opacity: 0.5; stroke-width: 0.8; stroke-linecap: square"/>
     </g>
     <g id="line2d_2">
      <defs>
       <path id="ma7a88bb71d" d="M 0 0 
L -3.5 0 
" style="stroke: #000000; stroke-width: 0.8"/>
      </defs>
      <g>
       <use xlink:href="#ma7a88bb71d" x="74.207813" y="556.921649" style="stroke: #000000; stroke-width: 0.8"/>
      </g>
     </g>
     <g id="text_1">
      <!-- 0 -->
      <g transform="translate(51.301563 566.419696)scale(0.25 -0.25)">
       <defs>
        <path id="DejaVuSans-30" d="M 2034 4250 
Q 1547 4250 1301 3770 
Q 1056 3291 1056 2328 
Q 1056 1369 1301 889 
Q 1547 409 2034 409 
Q 2525 409 2770 889 
Q 3016 1369 3016 2328 
Q 3016 3291 2770 3770 
Q 2525 4250 2034 4250 
z
M 2034 4750 
Q 2819 4750 3233 4129 
Q 3647 3509 3647 2328 
Q 3647 1150 3233 529 
Q 2819 -91 2034 -91 
Q 1250 -91 836 529 
Q 422 1150 422 2328 
Q 422 3509 836 4129 
Q 1250 4750 2034 4750 
z
" transform="scale(0.015625)"/>
       </defs>
       <use xlink:href="#DejaVuSans-30"/>
      </g>
     </g>
    </g>
    <g id="ytick_2">
     <g id="line2d_3">
      <path d="M 74.207813 489.393699 
L 632.207813 489.393699 
" clip-path="url(#pfccd48dc9e)" style="fill: none; stroke: #b0b0b0; stroke-opacity: 0.5; stroke-width: 0.8; stroke-linecap: square"/>
     </g>
     <g id="line2d_4">
      <g>
       <use xlink:href="#ma7a88bb71d" x="74.207813" y="489.393699" style="stroke: #000000; stroke-width: 0.8"/>
      </g>
     </g>
     <g id="text_2">
      <!-- 10 -->
      <g transform="translate(35.395313 498.891746)scale(0.25 -0.25)">
       <defs>
        <path id="DejaVuSans-31" d="M 794 531 
L 1825 531 
L 1825 4091 
L 703 3866 
L 703 4441 
L 1819 4666 
L 2450 4666 
L 2450 531 
L 3481 531 
L 3481 0 
L 794 0 
L 794 531 
z
" transform="scale(0.015625)"/>
       </defs>
       <use xlink:href="#DejaVuSans-31"/>
       <use xlink:href="#DejaVuSans-30" x="63.623047"/>
      </g>
     </g>
    </g>
    <g id="ytick_3">
     <g id="line2d_5">
      <path d="M 74.207813 421.865749 
L 632.207813 421.865749 
" clip-path="url(#pfccd48dc9e)" style="fill: none; stroke: #b0b0b0; stroke-opacity: 0.5; stroke-width: 0.8; stroke-linecap: square"/>
     </g>
     <g id="line2d_6">
      <g>
       <use xlink:href="#ma7a88bb71d" x="74.207813" y="421.865749" style="stroke: #000000; stroke-width: 0.8"/>
      </g>
     </g>
     <g id="text_3">
      <!-- 20 -->
      <g transform="translate(35.395313 431.363796)scale(0.25 -0.25)">
       <defs>
        <path id="DejaVuSans-32" d="M 1228 531 
L 3431 531 
L 3431 0 
L 469 0 
L 469 531 
Q 828 903 1448 1529 
Q 2069 2156 2228 2338 
Q 2531 2678 2651 2914 
Q 2772 3150 2772 3378 
Q 2772 3750 2511 3984 
Q 2250 4219 1831 4219 
Q 1534 4219 1204 4116 
Q 875 4013 500 3803 
L 500 4441 
Q 881 4594 1212 4672 
Q 1544 4750 1819 4750 
Q 2544 4750 2975 4387 
Q 3406 4025 3406 3419 
Q 3406 3131 3298 2873 
Q 3191 2616 2906 2266 
Q 2828 2175 2409 1742 
Q 1991 1309 1228 531 
z
" transform="scale(0.015625)"/>
       </defs>
       <use xlink:href="#DejaVuSans-32"/>
       <use xlink:href="#DejaVuSans-30" x="63.623047"/>
      </g>
     </g>
    </g>
    <g id="ytick_4">
     <g id="line2d_7">
      <path d="M 74.207813 354.337798 
L 632.207813 354.337798 
" clip-path="url(#pfccd48dc9e)" style="fill: none; stroke: #b0b0b0; stroke-opacity: 0.5; stroke-width: 0.8; stroke-linecap: square"/>
     </g>
     <g id="line2d_8">
      <g>
       <use xlink:href="#ma7a88bb71d" x="74.207813" y="354.337798" style="stroke: #000000; stroke-width: 0.8"/>
      </g>
     </g>
     <g id="text_4">
      <!-- 30 -->
      <g transform="translate(35.395313 363.835845)scale(0.25 -0.25)">
       <defs>
        <path id="DejaVuSans-33" d="M 2597 2516 
Q 3050 2419 3304 2112 
Q 3559 1806 3559 1356 
Q 3559 666 3084 287 
Q 2609 -91 1734 -91 
Q 1441 -91 1130 -33 
Q 819 25 488 141 
L 488 750 
Q 750 597 1062 519 
Q 1375 441 1716 441 
Q 2309 441 2620 675 
Q 2931 909 2931 1356 
Q 2931 1769 2642 2001 
Q 2353 2234 1838 2234 
L 1294 2234 
L 1294 2753 
L 1863 2753 
Q 2328 2753 2575 2939 
Q 2822 3125 2822 3475 
Q 2822 3834 2567 4026 
Q 2313 4219 1838 4219 
Q 1578 4219 1281 4162 
Q 984 4106 628 3988 
L 628 4550 
Q 988 4650 1302 4700 
Q 1616 4750 1894 4750 
Q 2613 4750 3031 4423 
Q 3450 4097 3450 3541 
Q 3450 3153 3228 2886 
Q 3006 2619 2597 2516 
z
" transform="scale(0.015625)"/>
       </defs>
       <use xlink:href="#DejaVuSans-33"/>
       <use xlink:href="#DejaVuSans-30" x="63.623047"/>
      </g>
     </g>
    </g>
    <g id="ytick_5">
     <g id="line2d_9">
      <path d="M 74.207813 286.809848 
L 632.207813 286.809848 
" clip-path="url(#pfccd48dc9e)" style="fill: none; stroke: #b0b0b0; stroke-opacity: 0.5; stroke-width: 0.8; stroke-linecap: square"/>
     </g>
     <g id="line2d_10">
      <g>
       <use xlink:href="#ma7a88bb71d" x="74.207813" y="286.809848" style="stroke: #000000; stroke-width: 0.8"/>
      </g>
     </g>
     <g id="text_5">
      <!-- 40 -->
      <g transform="translate(35.395313 296.307895)scale(0.25 -0.25)">
       <defs>
        <path id="DejaVuSans-34" d="M 2419 4116 
L 825 1625 
L 2419 1625 
L 2419 4116 
z
M 2253 4666 
L 3047 4666 
L 3047 1625 
L 3713 1625 
L 3713 1100 
L 3047 1100 
L 3047 0 
L 2419 0 
L 2419 1100 
L 313 1100 
L 313 1709 
L 2253 4666 
z
" transform="scale(0.015625)"/>
       </defs>
       <use xlink:href="#DejaVuSans-34"/>
       <use xlink:href="#DejaVuSans-30" x="63.623047"/>
      </g>
     </g>
    </g>
    <g id="ytick_6">
     <g id="line2d_11">
      <path d="M 74.207813 219.281898 
L 632.207813 219.281898 
" clip-path="url(#pfccd48dc9e)" style="fill: none; stroke: #b0b0b0; stroke-opacity: 0.5; stroke-width: 0.8; stroke-linecap: square"/>
     </g>
     <g id="line2d_12">
      <g>
       <use xlink:href="#ma7a88bb71d" x="74.207813" y="219.281898" style="stroke: #000000; stroke-width: 0.8"/>
      </g>
     </g>
     <g id="text_6">
      <!-- 50 -->
      <g transform="translate(35.395313 228.779945)scale(0.25 -0.25)">
       <defs>
        <path id="DejaVuSans-35" d="M 691 4666 
L 3169 4666 
L 3169 4134 
L 1269 4134 
L 1269 2991 
Q 1406 3038 1543 3061 
Q 1681 3084 1819 3084 
Q 2600 3084 3056 2656 
Q 3513 2228 3513 1497 
Q 3513 744 3044 326 
Q 2575 -91 1722 -91 
Q 1428 -91 1123 -41 
Q 819 9 494 109 
L 494 744 
Q 775 591 1075 516 
Q 1375 441 1709 441 
Q 2250 441 2565 725 
Q 2881 1009 2881 1497 
Q 2881 1984 2565 2268 
Q 2250 2553 1709 2553 
Q 1456 2553 1204 2497 
Q 953 2441 691 2322 
L 691 4666 
z
" transform="scale(0.015625)"/>
       </defs>
       <use xlink:href="#DejaVuSans-35"/>
       <use xlink:href="#DejaVuSans-30" x="63.623047"/>
      </g>
     </g>
    </g>
    <g id="ytick_7">
     <g id="line2d_13">
      <path d="M 74.207813 151.753947 
L 632.207813 151.753947 
" clip-path="url(#pfccd48dc9e)" style="fill: none; stroke: #b0b0b0; stroke-opacity: 0.5; stroke-width: 0.8; stroke-linecap: square"/>
     </g>
     <g id="line2d_14">
      <g>
       <use xlink:href="#ma7a88bb71d" x="74.207813" y="151.753947" style="stroke: #000000; stroke-width: 0.8"/>
      </g>
     </g>
     <g id="text_7">
      <!-- 60 -->
      <g transform="translate(35.395313 161.251994)scale(0.25 -0.25)">
       <defs>
        <path id="DejaVuSans-36" d="M 2113 2584 
Q 1688 2584 1439 2293 
Q 1191 2003 1191 1497 
Q 1191 994 1439 701 
Q 1688 409 2113 409 
Q 2538 409 2786 701 
Q 3034 994 3034 1497 
Q 3034 2003 2786 2293 
Q 2538 2584 2113 2584 
z
M 3366 4563 
L 3366 3988 
Q 3128 4100 2886 4159 
Q 2644 4219 2406 4219 
Q 1781 4219 1451 3797 
Q 1122 3375 1075 2522 
Q 1259 2794 1537 2939 
Q 1816 3084 2150 3084 
Q 2853 3084 3261 2657 
Q 3669 2231 3669 1497 
Q 3669 778 3244 343 
Q 2819 -91 2113 -91 
Q 1303 -91 875 529 
Q 447 1150 447 2328 
Q 447 3434 972 4092 
Q 1497 4750 2381 4750 
Q 2619 4750 2861 4703 
Q 3103 4656 3366 4563 
z
" transform="scale(0.015625)"/>
       </defs>
       <use xlink:href="#DejaVuSans-36"/>
       <use xlink:href="#DejaVuSans-30" x="63.623047"/>
      </g>
     </g>
    </g>
    <g id="ytick_8">
     <g id="line2d_15">
      <path d="M 74.207813 84.225997 
L 632.207813 84.225997 
" clip-path="url(#pfccd48dc9e)" style="fill: none; stroke: #b0b0b0; stroke-opacity: 0.5; stroke-width: 0.8; stroke-linecap: square"/>
     </g>
     <g id="line2d_16">
      <g>
       <use xlink:href="#ma7a88bb71d" x="74.207813" y="84.225997" style="stroke: #000000; stroke-width: 0.8"/>
      </g>
     </g>
     <g id="text_8">
      <!-- 70 -->
      <g transform="translate(35.395313 93.724044)scale(0.25 -0.25)">
       <defs>
        <path id="DejaVuSans-37" d="M 525 4666 
L 3525 4666 
L 3525 4397 
L 1831 0 
L 1172 0 
L 2766 4134 
L 525 4134 
L 525 4666 
z
" transform="scale(0.015625)"/>
       </defs>
       <use xlink:href="#DejaVuSans-37"/>
       <use xlink:href="#DejaVuSans-30" x="63.623047"/>
      </g>
     </g>
    </g>
    <g id="ytick_9">
     <g id="line2d_17">
      <path d="M 74.207813 16.698047 
L 632.207813 16.698047 
" clip-path="url(#pfccd48dc9e)" style="fill: none; stroke: #b0b0b0; stroke-opacity: 0.5; stroke-width: 0.8; stroke-linecap: square"/>
     </g>
     <g id="line2d_18">
      <g>
       <use xlink:href="#ma7a88bb71d" x="74.207813" y="16.698047" style="stroke: #000000; stroke-width: 0.8"/>
      </g>
     </g>
     <g id="text_9">
      <!-- 80 -->
      <g transform="translate(35.395313 26.196094)scale(0.25 -0.25)">
       <defs>
        <path id="DejaVuSans-38" d="M 2034 2216 
Q 1584 2216 1326 1975 
Q 1069 1734 1069 1313 
Q 1069 891 1326 650 
Q 1584 409 2034 409 
Q 2484 409 2743 651 
Q 3003 894 3003 1313 
Q 3003 1734 2745 1975 
Q 2488 2216 2034 2216 
z
M 1403 2484 
Q 997 2584 770 2862 
Q 544 3141 544 3541 
Q 544 4100 942 4425 
Q 1341 4750 2034 4750 
Q 2731 4750 3128 4425 
Q 3525 4100 3525 3541 
Q 3525 3141 3298 2862 
Q 3072 2584 2669 2484 
Q 3125 2378 3379 2068 
Q 3634 1759 3634 1313 
Q 3634 634 3220 271 
Q 2806 -91 2034 -91 
Q 1263 -91 848 271 
Q 434 634 434 1313 
Q 434 1759 690 2068 
Q 947 2378 1403 2484 
z
M 1172 3481 
Q 1172 3119 1398 2916 
Q 1625 2713 2034 2713 
Q 2441 2713 2670 2916 
Q 2900 3119 2900 3481 
Q 2900 3844 2670 4047 
Q 2441 4250 2034 4250 
Q 1625 4250 1398 4047 
Q 1172 3844 1172 3481 
z
" transform="scale(0.015625)"/>
       </defs>
       <use xlink:href="#DejaVuSans-38"/>
       <use xlink:href="#DejaVuSans-30" x="63.623047"/>
      </g>
     </g>
    </g>
    <g id="text_10">
     <!-- Overlap % -->
     <g transform="translate(26.196094 353.484375)rotate(-90)scale(0.25 -0.25)">
      <defs>
       <path id="DejaVuSans-4f" d="M 2522 4238 
Q 1834 4238 1429 3725 
Q 1025 3213 1025 2328 
Q 1025 1447 1429 934 
Q 1834 422 2522 422 
Q 3209 422 3611 934 
Q 4013 1447 4013 2328 
Q 4013 3213 3611 3725 
Q 3209 4238 2522 4238 
z
M 2522 4750 
Q 3503 4750 4090 4092 
Q 4678 3434 4678 2328 
Q 4678 1225 4090 567 
Q 3503 -91 2522 -91 
Q 1538 -91 948 565 
Q 359 1222 359 2328 
Q 359 3434 948 4092 
Q 1538 4750 2522 4750 
z
" transform="scale(0.015625)"/>
       <path id="DejaVuSans-76" d="M 191 3500 
L 800 3500 
L 1894 563 
L 2988 3500 
L 3597 3500 
L 2284 0 
L 1503 0 
L 191 3500 
z
" transform="scale(0.015625)"/>
       <path id="DejaVuSans-65" d="M 3597 1894 
L 3597 1613 
L 953 1613 
Q 991 1019 1311 708 
Q 1631 397 2203 397 
Q 2534 397 2845 478 
Q 3156 559 3463 722 
L 3463 178 
Q 3153 47 2828 -22 
Q 2503 -91 2169 -91 
Q 1331 -91 842 396 
Q 353 884 353 1716 
Q 353 2575 817 3079 
Q 1281 3584 2069 3584 
Q 2775 3584 3186 3129 
Q 3597 2675 3597 1894 
z
M 3022 2063 
Q 3016 2534 2758 2815 
Q 2500 3097 2075 3097 
Q 1594 3097 1305 2825 
Q 1016 2553 972 2059 
L 3022 2063 
z
" transform="scale(0.015625)"/>
       <path id="DejaVuSans-72" d="M 2631 2963 
Q 2534 3019 2420 3045 
Q 2306 3072 2169 3072 
Q 1681 3072 1420 2755 
Q 1159 2438 1159 1844 
L 1159 0 
L 581 0 
L 581 3500 
L 1159 3500 
L 1159 2956 
Q 1341 3275 1631 3429 
Q 1922 3584 2338 3584 
Q 2397 3584 2469 3576 
Q 2541 3569 2628 3553 
L 2631 2963 
z
" transform="scale(0.015625)"/>
       <path id="DejaVuSans-6c" d="M 603 4863 
L 1178 4863 
L 1178 0 
L 603 0 
L 603 4863 
z
" transform="scale(0.015625)"/>
       <path id="DejaVuSans-61" d="M 2194 1759 
Q 1497 1759 1228 1600 
Q 959 1441 959 1056 
Q 959 750 1161 570 
Q 1363 391 1709 391 
Q 2188 391 2477 730 
Q 2766 1069 2766 1631 
L 2766 1759 
L 2194 1759 
z
M 3341 1997 
L 3341 0 
L 2766 0 
L 2766 531 
Q 2569 213 2275 61 
Q 1981 -91 1556 -91 
Q 1019 -91 701 211 
Q 384 513 384 1019 
Q 384 1609 779 1909 
Q 1175 2209 1959 2209 
L 2766 2209 
L 2766 2266 
Q 2766 2663 2505 2880 
Q 2244 3097 1772 3097 
Q 1472 3097 1187 3025 
Q 903 2953 641 2809 
L 641 3341 
Q 956 3463 1253 3523 
Q 1550 3584 1831 3584 
Q 2591 3584 2966 3190 
Q 3341 2797 3341 1997 
z
" transform="scale(0.015625)"/>
       <path id="DejaVuSans-70" d="M 1159 525 
L 1159 -1331 
L 581 -1331 
L 581 3500 
L 1159 3500 
L 1159 2969 
Q 1341 3281 1617 3432 
Q 1894 3584 2278 3584 
Q 2916 3584 3314 3078 
Q 3713 2572 3713 1747 
Q 3713 922 3314 415 
Q 2916 -91 2278 -91 
Q 1894 -91 1617 61 
Q 1341 213 1159 525 
z
M 3116 1747 
Q 3116 2381 2855 2742 
Q 2594 3103 2138 3103 
Q 1681 3103 1420 2742 
Q 1159 2381 1159 1747 
Q 1159 1113 1420 752 
Q 1681 391 2138 391 
Q 2594 391 2855 752 
Q 3116 1113 3116 1747 
z
" transform="scale(0.015625)"/>
       <path id="DejaVuSans-20" transform="scale(0.015625)"/>
       <path id="DejaVuSans-25" d="M 4653 2053 
Q 4381 2053 4226 1822 
Q 4072 1591 4072 1178 
Q 4072 772 4226 539 
Q 4381 306 4653 306 
Q 4919 306 5073 539 
Q 5228 772 5228 1178 
Q 5228 1588 5073 1820 
Q 4919 2053 4653 2053 
z
M 4653 2450 
Q 5147 2450 5437 2106 
Q 5728 1763 5728 1178 
Q 5728 594 5436 251 
Q 5144 -91 4653 -91 
Q 4153 -91 3862 251 
Q 3572 594 3572 1178 
Q 3572 1766 3864 2108 
Q 4156 2450 4653 2450 
z
M 1428 4353 
Q 1159 4353 1004 4120 
Q 850 3888 850 3481 
Q 850 3069 1003 2837 
Q 1156 2606 1428 2606 
Q 1700 2606 1854 2837 
Q 2009 3069 2009 3481 
Q 2009 3884 1853 4118 
Q 1697 4353 1428 4353 
z
M 4250 4750 
L 4750 4750 
L 1831 -91 
L 1331 -91 
L 4250 4750 
z
M 1428 4750 
Q 1922 4750 2215 4408 
Q 2509 4066 2509 3481 
Q 2509 2891 2217 2550 
Q 1925 2209 1428 2209 
Q 931 2209 642 2551 
Q 353 2894 353 3481 
Q 353 4063 643 4406 
Q 934 4750 1428 4750 
z
" transform="scale(0.015625)"/>
      </defs>
      <use xlink:href="#DejaVuSans-4f"/>
      <use xlink:href="#DejaVuSans-76" x="78.710938"/>
      <use xlink:href="#DejaVuSans-65" x="137.890625"/>
      <use xlink:href="#DejaVuSans-72" x="199.414062"/>
      <use xlink:href="#DejaVuSans-6c" x="240.527344"/>
      <use xlink:href="#DejaVuSans-61" x="268.310547"/>
      <use xlink:href="#DejaVuSans-70" x="329.589844"/>
      <use xlink:href="#DejaVuSans-20" x="393.066406"/>
      <use xlink:href="#DejaVuSans-25" x="424.853516"/>
     </g>
    </g>
   </g>
   <g id="patch_3">
    <path d="M 74.207813 560.298047 
L 74.207813 16.698047 
" style="fill: none; stroke: #000000; stroke-width: 0.8; stroke-linejoin: miter; stroke-linecap: square"/>
   </g>
   <g id="patch_4">
    <path d="M 632.207813 560.298047 
L 632.207813 16.698047 
" style="fill: none; stroke: #000000; stroke-width: 0.8; stroke-linejoin: miter; stroke-linecap: square"/>
   </g>
   <g id="patch_5">
    <path d="M 74.207812 560.298047 
L 632.207812 560.298047 
" style="fill: none; stroke: #000000; stroke-width: 0.8; stroke-linejoin: miter; stroke-linecap: square"/>
   </g>
   <g id="patch_6">
    <path d="M 74.207812 16.698047 
L 632.207812 16.698047 
" style="fill: none; stroke: #000000; stroke-width: 0.8; stroke-linejoin: miter; stroke-linecap: square"/>
   </g>
   <g id="legend_1">
    <g id="patch_7">
     <path d="M 89.607813 131.173672 
L 358.09375 131.173672 
Q 362.49375 131.173672 362.49375 126.773672 
L 362.49375 32.098047 
Q 362.49375 27.698047 358.09375 27.698047 
L 89.607813 27.698047 
Q 85.207813 27.698047 85.207813 32.098047 
L 85.207813 126.773672 
Q 85.207813 131.173672 89.607813 131.173672 
z
" style="fill: #ffffff; opacity: 0.8; stroke: #cccccc; stroke-linejoin: miter"/>
    </g>
    <g id="patch_8">
     <path d="M 94.007812 53.214609 
L 138.007812 53.214609 
L 138.007812 37.814609 
L 94.007812 37.814609 
z
" style="fill: #b0c4de; stroke: #b0c4de; stroke-linejoin: miter"/>
    </g>
    <g id="text_11">
     <!-- Aggregation -->
     <g transform="translate(155.607812 53.214609)scale(0.22 -0.22)">
      <defs>
       <path id="DejaVuSans-41" d="M 2188 4044 
L 1331 1722 
L 3047 1722 
L 2188 4044 
z
M 1831 4666 
L 2547 4666 
L 4325 0 
L 3669 0 
L 3244 1197 
L 1141 1197 
L 716 0 
L 50 0 
L 1831 4666 
z
" transform="scale(0.015625)"/>
       <path id="DejaVuSans-67" d="M 2906 1791 
Q 2906 2416 2648 2759 
Q 2391 3103 1925 3103 
Q 1463 3103 1205 2759 
Q 947 2416 947 1791 
Q 947 1169 1205 825 
Q 1463 481 1925 481 
Q 2391 481 2648 825 
Q 2906 1169 2906 1791 
z
M 3481 434 
Q 3481 -459 3084 -895 
Q 2688 -1331 1869 -1331 
Q 1566 -1331 1297 -1286 
Q 1028 -1241 775 -1147 
L 775 -588 
Q 1028 -725 1275 -790 
Q 1522 -856 1778 -856 
Q 2344 -856 2625 -561 
Q 2906 -266 2906 331 
L 2906 616 
Q 2728 306 2450 153 
Q 2172 0 1784 0 
Q 1141 0 747 490 
Q 353 981 353 1791 
Q 353 2603 747 3093 
Q 1141 3584 1784 3584 
Q 2172 3584 2450 3431 
Q 2728 3278 2906 2969 
L 2906 3500 
L 3481 3500 
L 3481 434 
z
" transform="scale(0.015625)"/>
       <path id="DejaVuSans-74" d="M 1172 4494 
L 1172 3500 
L 2356 3500 
L 2356 3053 
L 1172 3053 
L 1172 1153 
Q 1172 725 1289 603 
Q 1406 481 1766 481 
L 2356 481 
L 2356 0 
L 1766 0 
Q 1100 0 847 248 
Q 594 497 594 1153 
L 594 3053 
L 172 3053 
L 172 3500 
L 594 3500 
L 594 4494 
L 1172 4494 
z
" transform="scale(0.015625)"/>
       <path id="DejaVuSans-69" d="M 603 3500 
L 1178 3500 
L 1178 0 
L 603 0 
L 603 3500 
z
M 603 4863 
L 1178 4863 
L 1178 4134 
L 603 4134 
L 603 4863 
z
" transform="scale(0.015625)"/>
       <path id="DejaVuSans-6f" d="M 1959 3097 
Q 1497 3097 1228 2736 
Q 959 2375 959 1747 
Q 959 1119 1226 758 
Q 1494 397 1959 397 
Q 2419 397 2687 759 
Q 2956 1122 2956 1747 
Q 2956 2369 2687 2733 
Q 2419 3097 1959 3097 
z
M 1959 3584 
Q 2709 3584 3137 3096 
Q 3566 2609 3566 1747 
Q 3566 888 3137 398 
Q 2709 -91 1959 -91 
Q 1206 -91 779 398 
Q 353 888 353 1747 
Q 353 2609 779 3096 
Q 1206 3584 1959 3584 
z
" transform="scale(0.015625)"/>
       <path id="DejaVuSans-6e" d="M 3513 2113 
L 3513 0 
L 2938 0 
L 2938 2094 
Q 2938 2591 2744 2837 
Q 2550 3084 2163 3084 
Q 1697 3084 1428 2787 
Q 1159 2491 1159 1978 
L 1159 0 
L 581 0 
L 581 3500 
L 1159 3500 
L 1159 2956 
Q 1366 3272 1645 3428 
Q 1925 3584 2291 3584 
Q 2894 3584 3203 3211 
Q 3513 2838 3513 2113 
z
" transform="scale(0.015625)"/>
      </defs>
      <use xlink:href="#DejaVuSans-41"/>
      <use xlink:href="#DejaVuSans-67" x="68.408203"/>
      <use xlink:href="#DejaVuSans-67" x="131.884766"/>
      <use xlink:href="#DejaVuSans-72" x="195.361328"/>
      <use xlink:href="#DejaVuSans-65" x="234.224609"/>
      <use xlink:href="#DejaVuSans-67" x="295.748047"/>
      <use xlink:href="#DejaVuSans-61" x="359.224609"/>
      <use xlink:href="#DejaVuSans-74" x="420.503906"/>
      <use xlink:href="#DejaVuSans-69" x="459.712891"/>
      <use xlink:href="#DejaVuSans-6f" x="487.496094"/>
      <use xlink:href="#DejaVuSans-6e" x="548.677734"/>
     </g>
    </g>
    <g id="patch_9">
     <path d="M 94.007812 85.506484 
L 138.007812 85.506484 
L 138.007812 70.106484 
L 94.007812 70.106484 
z
" style="fill: #6495ed; stroke: #6495ed; stroke-linejoin: miter"/>
    </g>
    <g id="text_12">
     <!-- Frequent hitter -->
     <g transform="translate(155.607812 85.506484)scale(0.22 -0.22)">
      <defs>
       <path id="DejaVuSans-46" d="M 628 4666 
L 3309 4666 
L 3309 4134 
L 1259 4134 
L 1259 2759 
L 3109 2759 
L 3109 2228 
L 1259 2228 
L 1259 0 
L 628 0 
L 628 4666 
z
" transform="scale(0.015625)"/>
       <path id="DejaVuSans-71" d="M 947 1747 
Q 947 1113 1208 752 
Q 1469 391 1925 391 
Q 2381 391 2643 752 
Q 2906 1113 2906 1747 
Q 2906 2381 2643 2742 
Q 2381 3103 1925 3103 
Q 1469 3103 1208 2742 
Q 947 2381 947 1747 
z
M 2906 525 
Q 2725 213 2448 61 
Q 2172 -91 1784 -91 
Q 1150 -91 751 415 
Q 353 922 353 1747 
Q 353 2572 751 3078 
Q 1150 3584 1784 3584 
Q 2172 3584 2448 3432 
Q 2725 3281 2906 2969 
L 2906 3500 
L 3481 3500 
L 3481 -1331 
L 2906 -1331 
L 2906 525 
z
" transform="scale(0.015625)"/>
       <path id="DejaVuSans-75" d="M 544 1381 
L 544 3500 
L 1119 3500 
L 1119 1403 
Q 1119 906 1312 657 
Q 1506 409 1894 409 
Q 2359 409 2629 706 
Q 2900 1003 2900 1516 
L 2900 3500 
L 3475 3500 
L 3475 0 
L 2900 0 
L 2900 538 
Q 2691 219 2414 64 
Q 2138 -91 1772 -91 
Q 1169 -91 856 284 
Q 544 659 544 1381 
z
M 1991 3584 
L 1991 3584 
z
" transform="scale(0.015625)"/>
       <path id="DejaVuSans-68" d="M 3513 2113 
L 3513 0 
L 2938 0 
L 2938 2094 
Q 2938 2591 2744 2837 
Q 2550 3084 2163 3084 
Q 1697 3084 1428 2787 
Q 1159 2491 1159 1978 
L 1159 0 
L 581 0 
L 581 4863 
L 1159 4863 
L 1159 2956 
Q 1366 3272 1645 3428 
Q 1925 3584 2291 3584 
Q 2894 3584 3203 3211 
Q 3513 2838 3513 2113 
z
" transform="scale(0.015625)"/>
      </defs>
      <use xlink:href="#DejaVuSans-46"/>
      <use xlink:href="#DejaVuSans-72" x="50.269531"/>
      <use xlink:href="#DejaVuSans-65" x="89.132812"/>
      <use xlink:href="#DejaVuSans-71" x="150.65625"/>
      <use xlink:href="#DejaVuSans-75" x="214.132812"/>
      <use xlink:href="#DejaVuSans-65" x="277.511719"/>
      <use xlink:href="#DejaVuSans-6e" x="339.035156"/>
      <use xlink:href="#DejaVuSans-74" x="402.414062"/>
      <use xlink:href="#DejaVuSans-20" x="441.623047"/>
      <use xlink:href="#DejaVuSans-68" x="473.410156"/>
      <use xlink:href="#DejaVuSans-69" x="536.789062"/>
      <use xlink:href="#DejaVuSans-74" x="564.572266"/>
      <use xlink:href="#DejaVuSans-74" x="603.78125"/>
      <use xlink:href="#DejaVuSans-65" x="642.990234"/>
      <use xlink:href="#DejaVuSans-72" x="704.513672"/>
     </g>
    </g>
    <g id="patch_10">
     <path d="M 94.007812 117.798359 
L 138.007812 117.798359 
L 138.007812 102.398359 
L 94.007812 102.398359 
z
" style="fill: #0000ff; stroke: #0000ff; stroke-linejoin: miter"/>
    </g>
    <g id="text_13">
     <!-- Auto fluorescence -->
     <g transform="translate(155.607812 117.798359)scale(0.22 -0.22)">
      <defs>
       <path id="DejaVuSans-66" d="M 2375 4863 
L 2375 4384 
L 1825 4384 
Q 1516 4384 1395 4259 
Q 1275 4134 1275 3809 
L 1275 3500 
L 2222 3500 
L 2222 3053 
L 1275 3053 
L 1275 0 
L 697 0 
L 697 3053 
L 147 3053 
L 147 3500 
L 697 3500 
L 697 3744 
Q 697 4328 969 4595 
Q 1241 4863 1831 4863 
L 2375 4863 
z
" transform="scale(0.015625)"/>
       <path id="DejaVuSans-73" d="M 2834 3397 
L 2834 2853 
Q 2591 2978 2328 3040 
Q 2066 3103 1784 3103 
Q 1356 3103 1142 2972 
Q 928 2841 928 2578 
Q 928 2378 1081 2264 
Q 1234 2150 1697 2047 
L 1894 2003 
Q 2506 1872 2764 1633 
Q 3022 1394 3022 966 
Q 3022 478 2636 193 
Q 2250 -91 1575 -91 
Q 1294 -91 989 -36 
Q 684 19 347 128 
L 347 722 
Q 666 556 975 473 
Q 1284 391 1588 391 
Q 1994 391 2212 530 
Q 2431 669 2431 922 
Q 2431 1156 2273 1281 
Q 2116 1406 1581 1522 
L 1381 1569 
Q 847 1681 609 1914 
Q 372 2147 372 2553 
Q 372 3047 722 3315 
Q 1072 3584 1716 3584 
Q 2034 3584 2315 3537 
Q 2597 3491 2834 3397 
z
" transform="scale(0.015625)"/>
       <path id="DejaVuSans-63" d="M 3122 3366 
L 3122 2828 
Q 2878 2963 2633 3030 
Q 2388 3097 2138 3097 
Q 1578 3097 1268 2742 
Q 959 2388 959 1747 
Q 959 1106 1268 751 
Q 1578 397 2138 397 
Q 2388 397 2633 464 
Q 2878 531 3122 666 
L 3122 134 
Q 2881 22 2623 -34 
Q 2366 -91 2075 -91 
Q 1284 -91 818 406 
Q 353 903 353 1747 
Q 353 2603 823 3093 
Q 1294 3584 2113 3584 
Q 2378 3584 2631 3529 
Q 2884 3475 3122 3366 
z
" transform="scale(0.015625)"/>
      </defs>
      <use xlink:href="#DejaVuSans-41"/>
      <use xlink:href="#DejaVuSans-75" x="68.408203"/>
      <use xlink:href="#DejaVuSans-74" x="131.787109"/>
      <use xlink:href="#DejaVuSans-6f" x="170.996094"/>
      <use xlink:href="#DejaVuSans-20" x="232.177734"/>
      <use xlink:href="#DejaVuSans-66" x="263.964844"/>
      <use xlink:href="#DejaVuSans-6c" x="299.169922"/>
      <use xlink:href="#DejaVuSans-75" x="326.953125"/>
      <use xlink:href="#DejaVuSans-6f" x="390.332031"/>
      <use xlink:href="#DejaVuSans-72" x="451.513672"/>
      <use xlink:href="#DejaVuSans-65" x="490.376953"/>
      <use xlink:href="#DejaVuSans-73" x="551.900391"/>
      <use xlink:href="#DejaVuSans-63" x="604"/>
      <use xlink:href="#DejaVuSans-65" x="658.980469"/>
      <use xlink:href="#DejaVuSans-6e" x="720.503906"/>
      <use xlink:href="#DejaVuSans-63" x="783.882812"/>
      <use xlink:href="#DejaVuSans-65" x="838.863281"/>
     </g>
    </g>
   </g>
   <g id="PolyCollection_1">
    <defs>
     <path id="m8163e7935d" d="M 157.026458 -126.518034 
L 143.570985 -126.518034 
L 143.328704 -129.160786 
L 143.080468 -131.803539 
L 142.822271 -134.446292 
L 142.549643 -137.089045 
L 142.257754 -139.731797 
L 141.941515 -142.37455 
L 141.595707 -145.017303 
L 141.215107 -147.660056 
L 140.794625 -150.302808 
L 140.329435 -152.945561 
L 139.815097 -155.588314 
L 139.247677 -158.231067 
L 138.62384 -160.873819 
L 137.940935 -163.516572 
L 137.197054 -166.159325 
L 136.391068 -168.802078 
L 135.522646 -171.44483 
L 134.592245 -174.087583 
L 133.601087 -176.730336 
L 132.551115 -179.373089 
L 131.444938 -182.015841 
L 130.285763 -184.658594 
L 129.07733 -187.301347 
L 127.823836 -189.9441 
L 126.529875 -192.586852 
L 125.200373 -195.229605 
L 123.840545 -197.872358 
L 122.455854 -200.515111 
L 121.051993 -203.157863 
L 119.634876 -205.800616 
L 118.210636 -208.443369 
L 116.78564 -211.086122 
L 115.366506 -213.728874 
L 113.960125 -216.371627 
L 112.573671 -219.01438 
L 111.214621 -221.657133 
L 109.890743 -224.299885 
L 108.610084 -226.942638 
L 107.38093 -229.585391 
L 106.211749 -232.228144 
L 105.111105 -234.870896 
L 104.087561 -237.513649 
L 103.149547 -240.156402 
L 102.305222 -242.799154 
L 101.562312 -245.441907 
L 100.927947 -248.08466 
L 100.408493 -250.727413 
L 100.009385 -253.370165 
L 99.734975 -256.012918 
L 99.588396 -258.655671 
L 99.571449 -261.298424 
L 99.68452 -263.941176 
L 99.92653 -266.583929 
L 100.294927 -269.226682 
L 100.785705 -271.869435 
L 101.393472 -274.512187 
L 102.111551 -277.15494 
L 102.932113 -279.797693 
L 103.846343 -282.440446 
L 104.844621 -285.083198 
L 105.916733 -287.725951 
L 107.052078 -290.368704 
L 108.239885 -293.011457 
L 109.469423 -295.654209 
L 110.7302 -298.296962 
L 112.012139 -300.939715 
L 113.305736 -303.582468 
L 114.602192 -306.22522 
L 115.893509 -308.867973 
L 117.172561 -311.510726 
L 118.433133 -314.153479 
L 119.669931 -316.796231 
L 120.878567 -319.438984 
L 122.05552 -322.081737 
L 123.198085 -324.72449 
L 124.304296 -327.367242 
L 125.372857 -330.009995 
L 126.403053 -332.652748 
L 127.394674 -335.295501 
L 128.347935 -337.938253 
L 129.263402 -340.581006 
L 130.141932 -343.223759 
L 130.984615 -345.866512 
L 131.79273 -348.509264 
L 132.56771 -351.152017 
L 133.311107 -353.79477 
L 134.024576 -356.437523 
L 134.709849 -359.080275 
L 135.368721 -361.723028 
L 136.00303 -364.365781 
L 136.614641 -367.008533 
L 137.205425 -369.651286 
L 137.777232 -372.294039 
L 138.331865 -374.936792 
L 138.871052 -377.579544 
L 139.396413 -380.222297 
L 139.909424 -382.86505 
L 140.411392 -385.507803 
L 140.903423 -388.150555 
L 159.694021 -388.150555 
L 159.694021 -388.150555 
L 160.186051 -385.507803 
L 160.688019 -382.86505 
L 161.201031 -380.222297 
L 161.726391 -377.579544 
L 162.265578 -374.936792 
L 162.820211 -372.294039 
L 163.392018 -369.651286 
L 163.982802 -367.008533 
L 164.594413 -364.365781 
L 165.228723 -361.723028 
L 165.887594 -359.080275 
L 166.572867 -356.437523 
L 167.286336 -353.79477 
L 168.029733 -351.152017 
L 168.804713 -348.509264 
L 169.612828 -345.866512 
L 170.455511 -343.223759 
L 171.334041 -340.581006 
L 172.249508 -337.938253 
L 173.202769 -335.295501 
L 174.19439 -332.652748 
L 175.224587 -330.009995 
L 176.293147 -327.367242 
L 177.399358 -324.72449 
L 178.541923 -322.081737 
L 179.718876 -319.438984 
L 180.927512 -316.796231 
L 182.16431 -314.153479 
L 183.424882 -311.510726 
L 184.703934 -308.867973 
L 185.995251 -306.22522 
L 187.291707 -303.582468 
L 188.585305 -300.939715 
L 189.867243 -298.296962 
L 191.12802 -295.654209 
L 192.357558 -293.011457 
L 193.545365 -290.368704 
L 194.68071 -287.725951 
L 195.752822 -285.083198 
L 196.751101 -282.440446 
L 197.66533 -279.797693 
L 198.485892 -277.15494 
L 199.203971 -274.512187 
L 199.811738 -271.869435 
L 200.302516 -269.226682 
L 200.670913 -266.583929 
L 200.912924 -263.941176 
L 201.025994 -261.298424 
L 201.009047 -258.655671 
L 200.862468 -256.012918 
L 200.588058 -253.370165 
L 200.18895 -250.727413 
L 199.669496 -248.08466 
L 199.035131 -245.441907 
L 198.292221 -242.799154 
L 197.447896 -240.156402 
L 196.509882 -237.513649 
L 195.486338 -234.870896 
L 194.385695 -232.228144 
L 193.216513 -229.585391 
L 191.987359 -226.942638 
L 190.7067 -224.299885 
L 189.382822 -221.657133 
L 188.023772 -219.01438 
L 186.637319 -216.371627 
L 185.230937 -213.728874 
L 183.811803 -211.086122 
L 182.386807 -208.443369 
L 180.962567 -205.800616 
L 179.54545 -203.157863 
L 178.14159 -200.515111 
L 176.756898 -197.872358 
L 175.39707 -195.229605 
L 174.067568 -192.586852 
L 172.773607 -189.9441 
L 171.520113 -187.301347 
L 170.31168 -184.658594 
L 169.152505 -182.015841 
L 168.046328 -179.373089 
L 166.996356 -176.730336 
L 166.005198 -174.087583 
L 165.074797 -171.44483 
L 164.206375 -168.802078 
L 163.40039 -166.159325 
L 162.656508 -163.516572 
L 161.973603 -160.873819 
L 161.349766 -158.231067 
L 160.782346 -155.588314 
L 160.268008 -152.945561 
L 159.802818 -150.302808 
L 159.382337 -147.660056 
L 159.001737 -145.017303 
L 158.655928 -142.37455 
L 158.339689 -139.731797 
L 158.0478 -137.089045 
L 157.775173 -134.446292 
L 157.516975 -131.803539 
L 157.268739 -129.160786 
L 157.026458 -126.518034 
z
" style="stroke: #000000; stroke-opacity: 0.8"/>
    </defs>
    <g clip-path="url(#pfccd48dc9e)">
     <use xlink:href="#m8163e7935d" x="0" y="578.818915" style="fill: #b0c4de; fill-opacity: 0.8; stroke: #000000; stroke-opacity: 0.8"/>
    </g>
   </g>
   <g id="PolyCollection_2">
    <defs>
     <path id="m071ec3202f" d="M 385.175445 -40.568588 
L 321.24018 -40.568588 
L 319.867614 -42.937866 
L 318.51922 -45.307144 
L 317.200814 -47.676421 
L 315.917971 -50.045699 
L 314.675961 -52.414977 
L 313.479693 -54.784254 
L 312.333669 -57.153532 
L 311.24194 -59.52281 
L 310.208072 -61.892087 
L 309.235117 -64.261365 
L 308.325601 -66.630643 
L 307.48151 -68.999921 
L 306.704293 -71.369198 
L 305.994867 -73.738476 
L 305.35364 -76.107754 
L 304.780529 -78.477031 
L 304.274993 -80.846309 
L 303.836071 -83.215587 
L 303.462425 -85.584864 
L 303.152381 -87.954142 
L 302.903982 -90.32342 
L 302.715036 -92.692697 
L 302.583168 -95.061975 
L 302.505868 -97.431253 
L 302.48054 -99.80053 
L 302.504545 -102.169808 
L 302.575246 -104.539086 
L 302.690043 -106.908364 
L 302.846404 -109.277641 
L 303.041893 -111.646919 
L 303.274188 -114.016197 
L 303.541099 -116.385474 
L 303.840574 -118.754752 
L 304.170705 -121.12403 
L 304.529722 -123.493307 
L 304.915988 -125.862585 
L 305.327992 -128.231863 
L 305.764326 -130.60114 
L 306.223678 -132.970418 
L 306.704806 -135.339696 
L 307.206522 -137.708973 
L 307.727674 -140.078251 
L 308.267124 -142.447529 
L 308.823734 -144.816807 
L 309.396351 -147.186084 
L 309.983792 -149.555362 
L 310.584838 -151.92464 
L 311.198231 -154.293917 
L 311.822664 -156.663195 
L 312.45679 -159.032473 
L 313.099225 -161.40175 
L 313.748553 -163.771028 
L 314.403342 -166.140306 
L 315.062153 -168.509583 
L 315.723557 -170.878861 
L 316.38615 -173.248139 
L 317.048572 -175.617416 
L 317.709522 -177.986694 
L 318.367775 -180.355972 
L 319.022198 -182.72525 
L 319.671762 -185.094527 
L 320.315556 -187.463805 
L 320.952796 -189.833083 
L 321.58283 -192.20236 
L 322.205144 -194.571638 
L 322.819366 -196.940916 
L 323.425258 -199.310193 
L 324.022719 -201.679471 
L 324.611778 -204.048749 
L 325.192581 -206.418026 
L 325.765387 -208.787304 
L 326.330553 -211.156582 
L 326.888522 -213.525859 
L 327.439809 -215.895137 
L 327.98499 -218.264415 
L 328.524686 -220.633692 
L 329.059547 -223.00297 
L 329.590242 -225.372248 
L 330.117448 -227.741526 
L 330.641832 -230.110803 
L 331.164045 -232.480081 
L 331.684709 -234.849359 
L 332.204411 -237.218636 
L 332.723692 -239.587914 
L 333.243039 -241.957192 
L 333.762882 -244.326469 
L 334.283587 -246.695747 
L 334.805447 -249.065025 
L 335.328684 -251.434302 
L 335.853441 -253.80358 
L 336.37978 -256.172858 
L 336.907677 -258.542135 
L 337.437025 -260.911413 
L 337.967626 -263.280691 
L 338.499198 -265.649969 
L 339.031365 -268.019246 
L 339.563668 -270.388524 
L 340.095559 -272.757802 
L 340.62641 -275.127079 
L 365.789215 -275.127079 
L 365.789215 -275.127079 
L 366.320066 -272.757802 
L 366.851957 -270.388524 
L 367.38426 -268.019246 
L 367.916427 -265.649969 
L 368.447999 -263.280691 
L 368.9786 -260.911413 
L 369.507948 -258.542135 
L 370.035845 -256.172858 
L 370.562184 -253.80358 
L 371.086941 -251.434302 
L 371.610178 -249.065025 
L 372.132038 -246.695747 
L 372.652743 -244.326469 
L 373.172586 -241.957192 
L 373.691933 -239.587914 
L 374.211214 -237.218636 
L 374.730916 -234.849359 
L 375.25158 -232.480081 
L 375.773793 -230.110803 
L 376.298177 -227.741526 
L 376.825383 -225.372248 
L 377.356078 -223.00297 
L 377.890939 -220.633692 
L 378.430635 -218.264415 
L 378.975816 -215.895137 
L 379.527103 -213.525859 
L 380.085072 -211.156582 
L 380.650238 -208.787304 
L 381.223044 -206.418026 
L 381.803847 -204.048749 
L 382.392906 -201.679471 
L 382.990367 -199.310193 
L 383.596259 -196.940916 
L 384.210481 -194.571638 
L 384.832795 -192.20236 
L 385.462829 -189.833083 
L 386.100069 -187.463805 
L 386.743863 -185.094527 
L 387.393427 -182.72525 
L 388.04785 -180.355972 
L 388.706103 -177.986694 
L 389.367053 -175.617416 
L 390.029475 -173.248139 
L 390.692068 -170.878861 
L 391.353472 -168.509583 
L 392.012283 -166.140306 
L 392.667072 -163.771028 
L 393.3164 -161.40175 
L 393.958835 -159.032473 
L 394.592961 -156.663195 
L 395.217394 -154.293917 
L 395.830787 -151.92464 
L 396.431833 -149.555362 
L 397.019274 -147.186084 
L 397.591891 -144.816807 
L 398.148501 -142.447529 
L 398.687951 -140.078251 
L 399.209103 -137.708973 
L 399.710819 -135.339696 
L 400.191947 -132.970418 
L 400.651299 -130.60114 
L 401.087633 -128.231863 
L 401.499637 -125.862585 
L 401.885903 -123.493307 
L 402.24492 -121.12403 
L 402.575051 -118.754752 
L 402.874526 -116.385474 
L 403.141437 -114.016197 
L 403.373732 -111.646919 
L 403.569221 -109.277641 
L 403.725582 -106.908364 
L 403.840379 -104.539086 
L 403.91108 -102.169808 
L 403.935085 -99.80053 
L 403.909757 -97.431253 
L 403.832457 -95.061975 
L 403.700589 -92.692697 
L 403.511643 -90.32342 
L 403.263244 -87.954142 
L 402.9532 -85.584864 
L 402.579554 -83.215587 
L 402.140632 -80.846309 
L 401.635096 -78.477031 
L 401.061985 -76.107754 
L 400.420758 -73.738476 
L 399.711332 -71.369198 
L 398.934115 -68.999921 
L 398.090024 -66.630643 
L 397.180508 -64.261365 
L 396.207553 -61.892087 
L 395.173685 -59.52281 
L 394.081956 -57.153532 
L 392.935932 -54.784254 
L 391.739664 -52.414977 
L 390.497654 -50.045699 
L 389.214811 -47.676421 
L 387.896405 -45.307144 
L 386.548011 -42.937866 
L 385.175445 -40.568588 
z
" style="stroke: #000000; stroke-opacity: 0.8"/>
    </defs>
    <g clip-path="url(#pfccd48dc9e)">
     <use xlink:href="#m071ec3202f" x="0" y="578.818915" style="fill: #6495ed; fill-opacity: 0.8; stroke: #000000; stroke-opacity: 0.8"/>
    </g>
   </g>
   <g id="PolyCollection_3">
    <defs>
     <path id="mbf561a2079" d="M 606.330912 -21.897266 
L 505.902895 -21.897266 
L 505.648581 -21.996601 
L 505.479233 -22.095936 
L 505.393549 -22.195271 
L 505.389631 -22.294606 
L 505.465012 -22.393941 
L 505.616692 -22.493276 
L 505.841171 -22.592611 
L 506.134501 -22.691946 
L 506.49233 -22.791281 
L 506.909957 -22.890616 
L 507.382395 -22.989951 
L 507.904422 -23.089286 
L 508.470652 -23.188621 
L 509.075591 -23.287956 
L 509.713703 -23.387291 
L 510.379468 -23.486626 
L 511.067446 -23.585961 
L 511.772329 -23.685296 
L 512.488996 -23.784631 
L 513.212563 -23.883966 
L 513.938424 -23.983301 
L 514.662293 -24.082636 
L 515.380233 -24.181971 
L 516.088686 -24.281306 
L 516.784493 -24.380641 
L 517.464908 -24.479976 
L 518.127604 -24.579311 
L 518.770677 -24.678646 
L 519.392644 -24.777981 
L 519.992425 -24.877316 
L 520.569337 -24.976651 
L 521.123067 -25.075986 
L 521.653652 -25.175321 
L 522.161448 -25.274656 
L 522.647096 -25.373992 
L 523.111497 -25.473327 
L 523.555763 -25.572662 
L 523.981192 -25.671997 
L 524.389222 -25.771332 
L 524.781395 -25.870667 
L 525.159321 -25.970002 
L 525.524642 -26.069337 
L 525.878995 -26.168672 
L 526.223983 -26.268007 
L 526.561141 -26.367342 
L 526.891915 -26.466677 
L 527.217634 -26.566012 
L 527.539493 -26.665347 
L 527.858534 -26.764682 
L 528.175637 -26.864017 
L 528.491509 -26.963352 
L 528.806682 -27.062687 
L 529.121507 -27.162022 
L 529.436165 -27.261357 
L 529.750666 -27.360692 
L 530.06486 -27.460027 
L 530.378454 -27.559362 
L 530.691021 -27.658697 
L 531.00202 -27.758032 
L 531.310814 -27.857367 
L 531.616693 -27.956702 
L 531.918892 -28.056037 
L 532.216617 -28.155372 
L 532.509063 -28.254707 
L 532.795441 -28.354042 
L 533.074996 -28.453377 
L 533.34703 -28.552712 
L 533.610918 -28.652047 
L 533.866131 -28.751382 
L 534.112247 -28.850717 
L 534.348967 -28.950052 
L 534.576125 -29.049387 
L 534.793698 -29.148722 
L 535.00181 -29.248058 
L 535.200739 -29.347393 
L 535.39091 -29.446728 
L 535.572903 -29.546063 
L 535.747438 -29.645398 
L 535.915374 -29.744733 
L 536.077696 -29.844068 
L 536.235504 -29.943403 
L 536.389999 -30.042738 
L 536.542465 -30.142073 
L 536.694254 -30.241408 
L 536.846766 -30.340743 
L 537.001431 -30.440078 
L 537.159687 -30.539413 
L 537.322962 -30.638748 
L 537.492653 -30.738083 
L 537.670105 -30.837418 
L 537.856598 -30.936753 
L 538.05332 -31.036088 
L 538.26136 -31.135423 
L 538.481688 -31.234758 
L 538.715143 -31.334093 
L 538.962422 -31.433428 
L 539.224073 -31.532763 
L 539.500484 -31.632098 
L 539.791881 -31.731433 
L 572.441926 -31.731433 
L 572.441926 -31.731433 
L 572.733323 -31.632098 
L 573.009734 -31.532763 
L 573.271384 -31.433428 
L 573.518664 -31.334093 
L 573.752119 -31.234758 
L 573.972447 -31.135423 
L 574.180487 -31.036088 
L 574.377209 -30.936753 
L 574.563701 -30.837418 
L 574.741154 -30.738083 
L 574.910845 -30.638748 
L 575.07412 -30.539413 
L 575.232376 -30.440078 
L 575.387041 -30.340743 
L 575.539553 -30.241408 
L 575.691342 -30.142073 
L 575.843808 -30.042738 
L 575.998303 -29.943403 
L 576.156111 -29.844068 
L 576.318433 -29.744733 
L 576.486369 -29.645398 
L 576.660904 -29.546063 
L 576.842896 -29.446728 
L 577.033068 -29.347393 
L 577.231996 -29.248058 
L 577.440109 -29.148722 
L 577.657682 -29.049387 
L 577.88484 -28.950052 
L 578.12156 -28.850717 
L 578.367676 -28.751382 
L 578.622889 -28.652047 
L 578.886777 -28.552712 
L 579.15881 -28.453377 
L 579.438365 -28.354042 
L 579.724744 -28.254707 
L 580.01719 -28.155372 
L 580.314915 -28.056037 
L 580.617114 -27.956702 
L 580.922993 -27.857367 
L 581.231787 -27.758032 
L 581.542786 -27.658697 
L 581.855352 -27.559362 
L 582.168946 -27.460027 
L 582.483141 -27.360692 
L 582.797642 -27.261357 
L 583.1123 -27.162022 
L 583.427125 -27.062687 
L 583.742297 -26.963352 
L 584.05817 -26.864017 
L 584.375273 -26.764682 
L 584.694314 -26.665347 
L 585.016172 -26.566012 
L 585.341892 -26.466677 
L 585.672666 -26.367342 
L 586.009824 -26.268007 
L 586.354812 -26.168672 
L 586.709165 -26.069337 
L 587.074486 -25.970002 
L 587.452412 -25.870667 
L 587.844585 -25.771332 
L 588.252615 -25.671997 
L 588.678044 -25.572662 
L 589.12231 -25.473327 
L 589.58671 -25.373992 
L 590.072359 -25.274656 
L 590.580154 -25.175321 
L 591.11074 -25.075986 
L 591.66447 -24.976651 
L 592.241382 -24.877316 
L 592.841163 -24.777981 
L 593.463129 -24.678646 
L 594.106203 -24.579311 
L 594.768899 -24.479976 
L 595.449313 -24.380641 
L 596.145121 -24.281306 
L 596.853574 -24.181971 
L 597.571514 -24.082636 
L 598.295382 -23.983301 
L 599.021244 -23.883966 
L 599.744811 -23.784631 
L 600.461478 -23.685296 
L 601.166361 -23.585961 
L 601.854339 -23.486626 
L 602.520104 -23.387291 
L 603.158216 -23.287956 
L 603.763155 -23.188621 
L 604.329385 -23.089286 
L 604.851412 -22.989951 
L 605.323849 -22.890616 
L 605.741477 -22.791281 
L 606.099306 -22.691946 
L 606.392636 -22.592611 
L 606.617115 -22.493276 
L 606.768795 -22.393941 
L 606.844176 -22.294606 
L 606.840258 -22.195271 
L 606.754574 -22.095936 
L 606.585226 -21.996601 
L 606.330912 -21.897266 
z
" style="stroke: #000000; stroke-opacity: 0.8"/>
    </defs>
    <g clip-path="url(#pfccd48dc9e)">
     <use xlink:href="#mbf561a2079" x="0" y="578.818915" style="fill: #0000ff; fill-opacity: 0.8; stroke: #000000; stroke-opacity: 0.8"/>
    </g>
   </g>
   <g id="PathCollection_1">
    <defs>
     <path id="m4f4d533e30" d="M -0 9.354143 
L 9.354143 0 
L 0 -9.354143 
L -9.354143 -0 
z
" style="stroke: #000000"/>
    </defs>
    <g clip-path="url(#pfccd48dc9e)">
     <use xlink:href="#m4f4d533e30" x="150.298722" y="315.854683" style="fill: #ffffff; stroke: #000000"/>
     <use xlink:href="#m4f4d533e30" x="353.207812" y="445.737599" style="fill: #ffffff; stroke: #000000"/>
     <use xlink:href="#m4f4d533e30" x="556.116903" y="553.934627" style="fill: #ffffff; stroke: #000000"/>
    </g>
   </g>
  </g>
 </g>
 <defs>
  <clipPath id="pfccd48dc9e">
   <rect x="74.207813" y="16.698047" width="558" height="543.6"/>
  </clipPath>
 </defs>
</svg>
