<?xml version="1.0" encoding="utf-8" standalone="no"?>
<!DOCTYPE svg PUBLIC "-//W3C//DTD SVG 1.1//EN"
  "http://www.w3.org/Graphics/SVG/1.1/DTD/svg11.dtd">
<svg xmlns:xlink="http://www.w3.org/1999/xlink" width="381.425pt" height="274.6768pt" viewBox="0 0 381.425 274.6768" xmlns="http://www.w3.org/2000/svg" version="1.1">
 <metadata>
  <rdf:RDF xmlns:dc="http://purl.org/dc/elements/1.1/" xmlns:cc="http://creativecommons.org/ns#" xmlns:rdf="http://www.w3.org/1999/02/22-rdf-syntax-ns#">
   <cc:Work>
    <dc:type rdf:resource="http://purl.org/dc/dcmitype/StillImage"/>
    <dc:date>2023-03-23T13:45:14.257908</dc:date>
    <dc:format>image/svg+xml</dc:format>
    <dc:creator>
     <cc:Agent>
      <dc:title>Matplotlib v3.5.3, https://matplotlib.org/</dc:title>
     </cc:Agent>
    </dc:creator>
   </cc:Work>
  </rdf:RDF>
 </metadata>
 <defs>
  <style type="text/css">*{stroke-linejoin: round; stroke-linecap: butt}</style>
 </defs>
 <g id="figure_1">
  <g id="patch_1">
   <path d="M -0 274.6768 
L 381.425 274.6768 
L 381.425 0 
L -0 0 
z
" style="fill: #ffffff"/>
  </g>
  <g id="axes_1">
   <g id="patch_2">
    <path d="M 299.4325 158.7568 
C 299.4325 144.47982 296.620246 130.341666 291.156683 117.151457 
C 285.693119 103.961248 277.684498 91.9755 267.589149 81.880151 
C 257.4938 71.784802 245.508052 63.776181 232.317843 58.312617 
C 219.127634 52.849054 204.98948 50.0368 190.7125 50.0368 
C 176.43552 50.0368 162.297366 52.849054 149.107157 58.312617 
C 135.916948 63.776181 123.9312 71.784802 113.835851 81.880151 
C 103.740502 91.9755 95.731881 103.961248 90.268317 117.151457 
C 84.804754 130.341666 81.9925 144.47982 81.9925 158.7568 
C 81.9925 173.03378 84.804754 187.171934 90.268317 200.362143 
C 95.731881 213.552352 103.740502 225.5381 113.835851 235.633449 
C 123.9312 245.728798 135.916948 253.737419 149.107157 259.200983 
C 162.297366 264.664546 176.43552 267.4768 190.7125 267.4768 
C 204.98948 267.4768 219.127634 264.664546 232.317843 259.200983 
C 245.508052 253.737419 257.4938 245.728798 267.589149 235.633449 
C 277.684498 225.5381 285.693119 213.552352 291.156683 200.362143 
C 296.620246 187.171934 299.4325 173.03378 299.4325 158.7568 
M 190.7125 158.7568 
C 190.7125 158.7568 190.7125 158.7568 190.7125 158.7568 
C 190.7125 158.7568 190.7125 158.7568 190.7125 158.7568 
C 190.7125 158.7568 190.7125 158.7568 190.7125 158.7568 
C 190.7125 158.7568 190.7125 158.7568 190.7125 158.7568 
C 190.7125 158.7568 190.7125 158.7568 190.7125 158.7568 
C 190.7125 158.7568 190.7125 158.7568 190.7125 158.7568 
C 190.7125 158.7568 190.7125 158.7568 190.7125 158.7568 
C 190.7125 158.7568 190.7125 158.7568 190.7125 158.7568 
C 190.7125 158.7568 190.7125 158.7568 190.7125 158.7568 
C 190.7125 158.7568 190.7125 158.7568 190.7125 158.7568 
C 190.7125 158.7568 190.7125 158.7568 190.7125 158.7568 
C 190.7125 158.7568 190.7125 158.7568 190.7125 158.7568 
C 190.7125 158.7568 190.7125 158.7568 190.7125 158.7568 
C 190.7125 158.7568 190.7125 158.7568 190.7125 158.7568 
C 190.7125 158.7568 190.7125 158.7568 190.7125 158.7568 
C 190.7125 158.7568 190.7125 158.7568 190.7125 158.7568 
M 299.4325 158.7568 
z
" style="fill: #ffffff"/>
   </g>
   <g id="line2d_1">
    <path d="M 288.240735 158.7568 
L 241.075441 71.525627 
L 141.148971 72.910249 
L 89.986618 158.7568 
L 140.349559 245.987973 
L 240.276029 244.603351 
L 288.240735 158.7568 
" clip-path="url(#p2e1ea13e2f)" style="fill: none; stroke: #6495ed; stroke-width: 2; stroke-linecap: square"/>
   </g>
   <g id="patch_3">
    <path d="M 288.240735 158.7568 
L 241.075441 71.525627 
L 141.148971 72.910249 
L 89.986618 158.7568 
L 140.349559 245.987973 
L 240.276029 244.603351 
z
" clip-path="url(#p2e1ea13e2f)" style="fill: #6495ed; opacity: 0.1; stroke: #6495ed; stroke-linejoin: miter"/>
   </g>
   <g id="matplotlib.axis_1">
    <g id="xtick_1">
     <g id="line2d_2">
      <path d="M 190.7125 158.7568 
L 299.4325 158.7568 
" clip-path="url(#p2e1ea13e2f)" style="fill: none; stroke: #b0b0b0; stroke-width: 0.8; stroke-linecap: square"/>
     </g>
    </g>
    <g id="xtick_2">
     <g id="line2d_3">
      <path d="M 190.7125 158.7568 
L 245.0725 64.602518 
" clip-path="url(#p2e1ea13e2f)" style="fill: none; stroke: #b0b0b0; stroke-width: 0.8; stroke-linecap: square"/>
     </g>
    </g>
    <g id="xtick_3">
     <g id="line2d_4">
      <path d="M 190.7125 158.7568 
L 136.3525 64.602518 
" clip-path="url(#p2e1ea13e2f)" style="fill: none; stroke: #b0b0b0; stroke-width: 0.8; stroke-linecap: square"/>
     </g>
    </g>
    <g id="xtick_4">
     <g id="line2d_5">
      <path d="M 190.7125 158.7568 
L 81.9925 158.7568 
" clip-path="url(#p2e1ea13e2f)" style="fill: none; stroke: #b0b0b0; stroke-width: 0.8; stroke-linecap: square"/>
     </g>
    </g>
    <g id="xtick_5">
     <g id="line2d_6">
      <path d="M 190.7125 158.7568 
L 136.3525 252.911082 
" clip-path="url(#p2e1ea13e2f)" style="fill: none; stroke: #b0b0b0; stroke-width: 0.8; stroke-linecap: square"/>
     </g>
    </g>
    <g id="xtick_6">
     <g id="line2d_7">
      <path d="M 190.7125 158.7568 
L 245.0725 252.911082 
" clip-path="url(#p2e1ea13e2f)" style="fill: none; stroke: #b0b0b0; stroke-width: 0.8; stroke-linecap: square"/>
     </g>
    </g>
    <g id="xtick_7">
     <g id="line2d_8">
      <path d="M 190.7125 158.7568 
L 299.4325 158.7568 
" clip-path="url(#p2e1ea13e2f)" style="fill: none; stroke: #b0b0b0; stroke-width: 0.8; stroke-linecap: square"/>
     </g>
    </g>
   </g>
   <g id="matplotlib.axis_2">
    <g id="ytick_1">
     <g id="line2d_9">
      <path d="M 217.8925 158.7568 
C 217.8925 155.187555 217.189437 151.653017 215.823546 148.355464 
C 214.457655 145.057912 212.4555 142.061475 209.931662 139.537638 
C 207.407825 137.0138 204.411388 135.011645 201.113836 133.645754 
C 197.816283 132.279863 194.281745 131.5768 190.7125 131.5768 
C 187.143255 131.5768 183.608717 132.279863 180.311164 133.645754 
C 177.013612 135.011645 174.017175 137.0138 171.493338 139.537638 
C 168.9695 142.061475 166.967345 145.057912 165.601454 148.355464 
C 164.235563 151.653017 163.5325 155.187555 163.5325 158.7568 
C 163.5325 162.326045 164.235563 165.860583 165.601454 169.158136 
C 166.967345 172.455688 168.9695 175.452125 171.493338 177.975962 
C 174.017175 180.4998 177.013612 182.501955 180.311164 183.867846 
C 183.608717 185.233737 187.143255 185.9368 190.7125 185.9368 
C 194.281745 185.9368 197.816283 185.233737 201.113836 183.867846 
C 204.411388 182.501955 207.407825 180.4998 209.931662 177.975962 
C 212.4555 175.452125 214.457655 172.455688 215.823546 169.158136 
C 217.189437 165.860583 217.8925 162.326045 217.8925 158.7568 
" clip-path="url(#p2e1ea13e2f)" style="fill: none; stroke: #b0b0b0; stroke-width: 0.8; stroke-linecap: square"/>
     </g>
    </g>
    <g id="ytick_2">
     <g id="line2d_10">
      <path d="M 245.0725 158.7568 
C 245.0725 151.61831 243.666373 144.549233 240.934591 137.954129 
C 238.20281 131.359024 234.198499 125.36615 229.150825 120.318475 
C 224.10315 115.270801 218.110276 111.26649 211.515171 108.534709 
C 204.920067 105.802927 197.85099 104.3968 190.7125 104.3968 
C 183.57401 104.3968 176.504933 105.802927 169.909829 108.534709 
C 163.314724 111.26649 157.32185 115.270801 152.274175 120.318475 
C 147.226501 125.36615 143.22219 131.359024 140.490409 137.954129 
C 137.758627 144.549233 136.3525 151.61831 136.3525 158.7568 
C 136.3525 165.89529 137.758627 172.964367 140.490409 179.559471 
C 143.22219 186.154576 147.226501 192.14745 152.274175 197.195125 
C 157.32185 202.242799 163.314724 206.24711 169.909829 208.978891 
C 176.504933 211.710673 183.57401 213.1168 190.7125 213.1168 
C 197.85099 213.1168 204.920067 211.710673 211.515171 208.978891 
C 218.110276 206.24711 224.10315 202.242799 229.150825 197.195125 
C 234.198499 192.14745 238.20281 186.154576 240.934591 179.559471 
C 243.666373 172.964367 245.0725 165.89529 245.0725 158.7568 
" clip-path="url(#p2e1ea13e2f)" style="fill: none; stroke: #b0b0b0; stroke-width: 0.8; stroke-linecap: square"/>
     </g>
    </g>
    <g id="ytick_3">
     <g id="line2d_11">
      <path d="M 272.2525 158.7568 
C 272.2525 148.049065 270.14331 137.44545 266.045637 127.552793 
C 261.947964 117.660136 255.941499 108.670825 248.369987 101.099313 
C 240.798475 93.527801 231.809164 87.521336 221.916507 83.423663 
C 212.02385 79.32599 201.420235 77.2168 190.7125 77.2168 
C 180.004765 77.2168 169.40115 79.32599 159.508493 83.423663 
C 149.615836 87.521336 140.626525 93.527801 133.055013 101.099313 
C 125.483501 108.670825 119.477036 117.660136 115.379363 127.552793 
C 111.28169 137.44545 109.1725 148.049065 109.1725 158.7568 
C 109.1725 169.464535 111.28169 180.06815 115.379363 189.960807 
C 119.477036 199.853464 125.483501 208.842775 133.055013 216.414287 
C 140.626525 223.985799 149.615836 229.992264 159.508493 234.089937 
C 169.40115 238.18761 180.004765 240.2968 190.7125 240.2968 
C 201.420235 240.2968 212.02385 238.18761 221.916507 234.089937 
C 231.809164 229.992264 240.798475 223.985799 248.369987 216.414287 
C 255.941499 208.842775 261.947964 199.853464 266.045637 189.960807 
C 270.14331 180.06815 272.2525 169.464535 272.2525 158.7568 
" clip-path="url(#p2e1ea13e2f)" style="fill: none; stroke: #b0b0b0; stroke-width: 0.8; stroke-linecap: square"/>
     </g>
    </g>
    <g id="ytick_4">
     <g id="line2d_12">
      <path d="M 299.4325 158.7568 
C 299.4325 144.47982 296.620246 130.341666 291.156683 117.151457 
C 285.693119 103.961248 277.684498 91.9755 267.589149 81.880151 
C 257.4938 71.784802 245.508052 63.776181 232.317843 58.312617 
C 219.127634 52.849054 204.98948 50.0368 190.7125 50.0368 
C 176.43552 50.0368 162.297366 52.849054 149.107157 58.312617 
C 135.916948 63.776181 123.9312 71.784802 113.835851 81.880151 
C 103.740502 91.9755 95.731881 103.961248 90.268317 117.151457 
C 84.804754 130.341666 81.9925 144.47982 81.9925 158.7568 
C 81.9925 173.03378 84.804754 187.171934 90.268317 200.362143 
C 95.731881 213.552352 103.740502 225.5381 113.835851 235.633449 
C 123.9312 245.728798 135.916948 253.737419 149.107157 259.200983 
C 162.297366 264.664546 176.43552 267.4768 190.7125 267.4768 
C 204.98948 267.4768 219.127634 264.664546 232.317843 259.200983 
C 245.508052 253.737419 257.4938 245.728798 267.589149 235.633449 
C 277.684498 225.5381 285.693119 213.552352 291.156683 200.362143 
C 296.620246 187.171934 299.4325 173.03378 299.4325 158.7568 
" clip-path="url(#p2e1ea13e2f)" style="fill: none; stroke: #b0b0b0; stroke-width: 0.8; stroke-linecap: square"/>
     </g>
    </g>
   </g>
   <g id="line2d_13">
    <path d="M 264.258382 158.7568 
L 231.4825 88.141089 
L 154.738971 96.448819 
L 109.1725 158.7568 
L 153.939559 222.449402 
L 228.284853 223.834024 
L 264.258382 158.7568 
" clip-path="url(#p2e1ea13e2f)" style="fill: none; stroke: #cd5c5c; stroke-width: 2; stroke-linecap: square"/>
   </g>
   <g id="patch_4">
    <path d="M 264.258382 158.7568 
L 231.4825 88.141089 
L 154.738971 96.448819 
L 109.1725 158.7568 
L 153.939559 222.449402 
L 228.284853 223.834024 
z
" clip-path="url(#p2e1ea13e2f)" style="fill: #cd5c5c; opacity: 0.1; stroke: #cd5c5c; stroke-linejoin: miter"/>
   </g>
   <g id="patch_5">
    <path d="M 299.4325 158.7568 
C 299.4325 144.47982 296.620246 130.341666 291.156683 117.151457 
C 285.693119 103.961248 277.684498 91.9755 267.589149 81.880151 
C 257.4938 71.784802 245.508052 63.776181 232.317843 58.312617 
C 219.127634 52.849054 204.98948 50.0368 190.7125 50.0368 
C 176.43552 50.0368 162.297366 52.849054 149.107157 58.312617 
C 135.916948 63.776181 123.9312 71.784802 113.835851 81.880151 
C 103.740502 91.9755 95.731881 103.961248 90.268317 117.151457 
C 84.804754 130.341666 81.9925 144.47982 81.9925 158.7568 
C 81.9925 173.03378 84.804754 187.171934 90.268317 200.362143 
C 95.731881 213.552352 103.740502 225.5381 113.835851 235.633449 
C 123.9312 245.728798 135.916948 253.737419 149.107157 259.200983 
C 162.297366 264.664546 176.43552 267.4768 190.7125 267.4768 
C 204.98948 267.4768 219.127634 264.664546 232.317843 259.200983 
C 245.508052 253.737419 257.4938 245.728798 267.589149 235.633449 
C 277.684498 225.5381 285.693119 213.552352 291.156683 200.362143 
C 296.620246 187.171934 299.4325 173.03378 299.4325 158.7568 
" style="fill: none; stroke: #000000; stroke-width: 0.8; stroke-linejoin: miter; stroke-linecap: square"/>
   </g>
   <g id="line2d_14">
    <path d="M 257.863088 158.7568 
L 217.093088 113.064281 
L 157.137206 100.602685 
L 137.951324 158.7568 
L 159.535441 212.75705 
L 219.491324 208.603185 
L 257.863088 158.7568 
" clip-path="url(#p2e1ea13e2f)" style="fill: none; stroke: #696969; stroke-width: 2; stroke-linecap: square"/>
   </g>
   <g id="patch_6">
    <path d="M 257.863088 158.7568 
L 217.093088 113.064281 
L 157.137206 100.602685 
L 137.951324 158.7568 
L 159.535441 212.75705 
L 219.491324 208.603185 
z
" clip-path="url(#p2e1ea13e2f)" style="fill: #696969; opacity: 0.1; stroke: #696969; stroke-linejoin: miter"/>
   </g>
   <g id="legend_1">
    <g id="patch_7">
     <path d="M 9.2 24.878125 
L 372.225 24.878125 
Q 374.225 24.878125 374.225 22.878125 
L 374.225 9.2 
Q 374.225 7.2 372.225 7.2 
L 9.2 7.2 
Q 7.2 7.2 7.2 9.2 
L 7.2 22.878125 
Q 7.2 24.878125 9.2 24.878125 
z
" style="fill: #ffffff; opacity: 0.8; stroke: #cccccc; stroke-linejoin: miter"/>
    </g>
    <g id="patch_8">
     <path d="M 11.2 18.798437 
L 31.2 18.798437 
L 31.2 11.798437 
L 11.2 11.798437 
z
" style="fill: #6495ed; stroke: #6495ed; stroke-linejoin: miter"/>
    </g>
    <g id="text_1">
     <!-- MVS-A -->
     <g transform="translate(39.2 18.798437)scale(0.1 -0.1)">
      <defs>
       <path id="DejaVuSans-4d" d="M 628 4666 
L 1569 4666 
L 2759 1491 
L 3956 4666 
L 4897 4666 
L 4897 0 
L 4281 0 
L 4281 4097 
L 3078 897 
L 2444 897 
L 1241 4097 
L 1241 0 
L 628 0 
L 628 4666 
z
" transform="scale(0.015625)"/>
       <path id="DejaVuSans-56" d="M 1831 0 
L 50 4666 
L 709 4666 
L 2188 738 
L 3669 4666 
L 4325 4666 
L 2547 0 
L 1831 0 
z
" transform="scale(0.015625)"/>
       <path id="DejaVuSans-53" d="M 3425 4513 
L 3425 3897 
Q 3066 4069 2747 4153 
Q 2428 4238 2131 4238 
Q 1616 4238 1336 4038 
Q 1056 3838 1056 3469 
Q 1056 3159 1242 3001 
Q 1428 2844 1947 2747 
L 2328 2669 
Q 3034 2534 3370 2195 
Q 3706 1856 3706 1288 
Q 3706 609 3251 259 
Q 2797 -91 1919 -91 
Q 1588 -91 1214 -16 
Q 841 59 441 206 
L 441 856 
Q 825 641 1194 531 
Q 1563 422 1919 422 
Q 2459 422 2753 634 
Q 3047 847 3047 1241 
Q 3047 1584 2836 1778 
Q 2625 1972 2144 2069 
L 1759 2144 
Q 1053 2284 737 2584 
Q 422 2884 422 3419 
Q 422 4038 858 4394 
Q 1294 4750 2059 4750 
Q 2388 4750 2728 4690 
Q 3069 4631 3425 4513 
z
" transform="scale(0.015625)"/>
       <path id="DejaVuSans-2d" d="M 313 2009 
L 1997 2009 
L 1997 1497 
L 313 1497 
L 313 2009 
z
" transform="scale(0.015625)"/>
       <path id="DejaVuSans-41" d="M 2188 4044 
L 1331 1722 
L 3047 1722 
L 2188 4044 
z
M 1831 4666 
L 2547 4666 
L 4325 0 
L 3669 0 
L 3244 1197 
L 1141 1197 
L 716 0 
L 50 0 
L 1831 4666 
z
" transform="scale(0.015625)"/>
      </defs>
      <use xlink:href="#DejaVuSans-4d"/>
      <use xlink:href="#DejaVuSans-56" x="86.279297"/>
      <use xlink:href="#DejaVuSans-53" x="154.6875"/>
      <use xlink:href="#DejaVuSans-2d" x="218.164062"/>
      <use xlink:href="#DejaVuSans-41" x="251.998047"/>
     </g>
    </g>
    <g id="patch_9">
     <path d="M 91.240625 18.798437 
L 111.240625 18.798437 
L 111.240625 11.798437 
L 91.240625 11.798437 
z
" style="fill: #cd5c5c; stroke: #cd5c5c; stroke-linejoin: miter"/>
    </g>
    <g id="text_2">
     <!-- CatBoost -->
     <g transform="translate(119.240625 18.798437)scale(0.1 -0.1)">
      <defs>
       <path id="DejaVuSans-43" d="M 4122 4306 
L 4122 3641 
Q 3803 3938 3442 4084 
Q 3081 4231 2675 4231 
Q 1875 4231 1450 3742 
Q 1025 3253 1025 2328 
Q 1025 1406 1450 917 
Q 1875 428 2675 428 
Q 3081 428 3442 575 
Q 3803 722 4122 1019 
L 4122 359 
Q 3791 134 3420 21 
Q 3050 -91 2638 -91 
Q 1578 -91 968 557 
Q 359 1206 359 2328 
Q 359 3453 968 4101 
Q 1578 4750 2638 4750 
Q 3056 4750 3426 4639 
Q 3797 4528 4122 4306 
z
" transform="scale(0.015625)"/>
       <path id="DejaVuSans-61" d="M 2194 1759 
Q 1497 1759 1228 1600 
Q 959 1441 959 1056 
Q 959 750 1161 570 
Q 1363 391 1709 391 
Q 2188 391 2477 730 
Q 2766 1069 2766 1631 
L 2766 1759 
L 2194 1759 
z
M 3341 1997 
L 3341 0 
L 2766 0 
L 2766 531 
Q 2569 213 2275 61 
Q 1981 -91 1556 -91 
Q 1019 -91 701 211 
Q 384 513 384 1019 
Q 384 1609 779 1909 
Q 1175 2209 1959 2209 
L 2766 2209 
L 2766 2266 
Q 2766 2663 2505 2880 
Q 2244 3097 1772 3097 
Q 1472 3097 1187 3025 
Q 903 2953 641 2809 
L 641 3341 
Q 956 3463 1253 3523 
Q 1550 3584 1831 3584 
Q 2591 3584 2966 3190 
Q 3341 2797 3341 1997 
z
" transform="scale(0.015625)"/>
       <path id="DejaVuSans-74" d="M 1172 4494 
L 1172 3500 
L 2356 3500 
L 2356 3053 
L 1172 3053 
L 1172 1153 
Q 1172 725 1289 603 
Q 1406 481 1766 481 
L 2356 481 
L 2356 0 
L 1766 0 
Q 1100 0 847 248 
Q 594 497 594 1153 
L 594 3053 
L 172 3053 
L 172 3500 
L 594 3500 
L 594 4494 
L 1172 4494 
z
" transform="scale(0.015625)"/>
       <path id="DejaVuSans-42" d="M 1259 2228 
L 1259 519 
L 2272 519 
Q 2781 519 3026 730 
Q 3272 941 3272 1375 
Q 3272 1813 3026 2020 
Q 2781 2228 2272 2228 
L 1259 2228 
z
M 1259 4147 
L 1259 2741 
L 2194 2741 
Q 2656 2741 2882 2914 
Q 3109 3088 3109 3444 
Q 3109 3797 2882 3972 
Q 2656 4147 2194 4147 
L 1259 4147 
z
M 628 4666 
L 2241 4666 
Q 2963 4666 3353 4366 
Q 3744 4066 3744 3513 
Q 3744 3084 3544 2831 
Q 3344 2578 2956 2516 
Q 3422 2416 3680 2098 
Q 3938 1781 3938 1306 
Q 3938 681 3513 340 
Q 3088 0 2303 0 
L 628 0 
L 628 4666 
z
" transform="scale(0.015625)"/>
       <path id="DejaVuSans-6f" d="M 1959 3097 
Q 1497 3097 1228 2736 
Q 959 2375 959 1747 
Q 959 1119 1226 758 
Q 1494 397 1959 397 
Q 2419 397 2687 759 
Q 2956 1122 2956 1747 
Q 2956 2369 2687 2733 
Q 2419 3097 1959 3097 
z
M 1959 3584 
Q 2709 3584 3137 3096 
Q 3566 2609 3566 1747 
Q 3566 888 3137 398 
Q 2709 -91 1959 -91 
Q 1206 -91 779 398 
Q 353 888 353 1747 
Q 353 2609 779 3096 
Q 1206 3584 1959 3584 
z
" transform="scale(0.015625)"/>
       <path id="DejaVuSans-73" d="M 2834 3397 
L 2834 2853 
Q 2591 2978 2328 3040 
Q 2066 3103 1784 3103 
Q 1356 3103 1142 2972 
Q 928 2841 928 2578 
Q 928 2378 1081 2264 
Q 1234 2150 1697 2047 
L 1894 2003 
Q 2506 1872 2764 1633 
Q 3022 1394 3022 966 
Q 3022 478 2636 193 
Q 2250 -91 1575 -91 
Q 1294 -91 989 -36 
Q 684 19 347 128 
L 347 722 
Q 666 556 975 473 
Q 1284 391 1588 391 
Q 1994 391 2212 530 
Q 2431 669 2431 922 
Q 2431 1156 2273 1281 
Q 2116 1406 1581 1522 
L 1381 1569 
Q 847 1681 609 1914 
Q 372 2147 372 2553 
Q 372 3047 722 3315 
Q 1072 3584 1716 3584 
Q 2034 3584 2315 3537 
Q 2597 3491 2834 3397 
z
" transform="scale(0.015625)"/>
      </defs>
      <use xlink:href="#DejaVuSans-43"/>
      <use xlink:href="#DejaVuSans-61" x="69.824219"/>
      <use xlink:href="#DejaVuSans-74" x="131.103516"/>
      <use xlink:href="#DejaVuSans-42" x="170.3125"/>
      <use xlink:href="#DejaVuSans-6f" x="238.916016"/>
      <use xlink:href="#DejaVuSans-6f" x="300.097656"/>
      <use xlink:href="#DejaVuSans-73" x="361.279297"/>
      <use xlink:href="#DejaVuSans-74" x="413.378906"/>
     </g>
    </g>
    <g id="patch_10">
     <path d="M 184.5 18.798437 
L 204.5 18.798437 
L 204.5 11.798437 
L 184.5 11.798437 
z
" style="fill: #c0c0c0; stroke: #c0c0c0; stroke-linejoin: miter"/>
    </g>
    <g id="text_3">
     <!-- PAINS -->
     <g transform="translate(212.5 18.798437)scale(0.1 -0.1)">
      <defs>
       <path id="DejaVuSans-50" d="M 1259 4147 
L 1259 2394 
L 2053 2394 
Q 2494 2394 2734 2622 
Q 2975 2850 2975 3272 
Q 2975 3691 2734 3919 
Q 2494 4147 2053 4147 
L 1259 4147 
z
M 628 4666 
L 2053 4666 
Q 2838 4666 3239 4311 
Q 3641 3956 3641 3272 
Q 3641 2581 3239 2228 
Q 2838 1875 2053 1875 
L 1259 1875 
L 1259 0 
L 628 0 
L 628 4666 
z
" transform="scale(0.015625)"/>
       <path id="DejaVuSans-49" d="M 628 4666 
L 1259 4666 
L 1259 0 
L 628 0 
L 628 4666 
z
" transform="scale(0.015625)"/>
       <path id="DejaVuSans-4e" d="M 628 4666 
L 1478 4666 
L 3547 763 
L 3547 4666 
L 4159 4666 
L 4159 0 
L 3309 0 
L 1241 3903 
L 1241 0 
L 628 0 
L 628 4666 
z
" transform="scale(0.015625)"/>
      </defs>
      <use xlink:href="#DejaVuSans-50"/>
      <use xlink:href="#DejaVuSans-41" x="53.927734"/>
      <use xlink:href="#DejaVuSans-49" x="122.335938"/>
      <use xlink:href="#DejaVuSans-4e" x="151.828125"/>
      <use xlink:href="#DejaVuSans-53" x="226.632812"/>
     </g>
    </g>
    <g id="patch_11">
     <path d="M 261.5125 18.798437 
L 281.5125 18.798437 
L 281.5125 11.798437 
L 261.5125 11.798437 
z
" style="fill: #696969; stroke: #696969; stroke-linejoin: miter"/>
    </g>
    <g id="text_4">
     <!-- Primary readout -->
     <g transform="translate(289.5125 18.798437)scale(0.1 -0.1)">
      <defs>
       <path id="DejaVuSans-72" d="M 2631 2963 
Q 2534 3019 2420 3045 
Q 2306 3072 2169 3072 
Q 1681 3072 1420 2755 
Q 1159 2438 1159 1844 
L 1159 0 
L 581 0 
L 581 3500 
L 1159 3500 
L 1159 2956 
Q 1341 3275 1631 3429 
Q 1922 3584 2338 3584 
Q 2397 3584 2469 3576 
Q 2541 3569 2628 3553 
L 2631 2963 
z
" transform="scale(0.015625)"/>
       <path id="DejaVuSans-69" d="M 603 3500 
L 1178 3500 
L 1178 0 
L 603 0 
L 603 3500 
z
M 603 4863 
L 1178 4863 
L 1178 4134 
L 603 4134 
L 603 4863 
z
" transform="scale(0.015625)"/>
       <path id="DejaVuSans-6d" d="M 3328 2828 
Q 3544 3216 3844 3400 
Q 4144 3584 4550 3584 
Q 5097 3584 5394 3201 
Q 5691 2819 5691 2113 
L 5691 0 
L 5113 0 
L 5113 2094 
Q 5113 2597 4934 2840 
Q 4756 3084 4391 3084 
Q 3944 3084 3684 2787 
Q 3425 2491 3425 1978 
L 3425 0 
L 2847 0 
L 2847 2094 
Q 2847 2600 2669 2842 
Q 2491 3084 2119 3084 
Q 1678 3084 1418 2786 
Q 1159 2488 1159 1978 
L 1159 0 
L 581 0 
L 581 3500 
L 1159 3500 
L 1159 2956 
Q 1356 3278 1631 3431 
Q 1906 3584 2284 3584 
Q 2666 3584 2933 3390 
Q 3200 3197 3328 2828 
z
" transform="scale(0.015625)"/>
       <path id="DejaVuSans-79" d="M 2059 -325 
Q 1816 -950 1584 -1140 
Q 1353 -1331 966 -1331 
L 506 -1331 
L 506 -850 
L 844 -850 
Q 1081 -850 1212 -737 
Q 1344 -625 1503 -206 
L 1606 56 
L 191 3500 
L 800 3500 
L 1894 763 
L 2988 3500 
L 3597 3500 
L 2059 -325 
z
" transform="scale(0.015625)"/>
       <path id="DejaVuSans-20" transform="scale(0.015625)"/>
       <path id="DejaVuSans-65" d="M 3597 1894 
L 3597 1613 
L 953 1613 
Q 991 1019 1311 708 
Q 1631 397 2203 397 
Q 2534 397 2845 478 
Q 3156 559 3463 722 
L 3463 178 
Q 3153 47 2828 -22 
Q 2503 -91 2169 -91 
Q 1331 -91 842 396 
Q 353 884 353 1716 
Q 353 2575 817 3079 
Q 1281 3584 2069 3584 
Q 2775 3584 3186 3129 
Q 3597 2675 3597 1894 
z
M 3022 2063 
Q 3016 2534 2758 2815 
Q 2500 3097 2075 3097 
Q 1594 3097 1305 2825 
Q 1016 2553 972 2059 
L 3022 2063 
z
" transform="scale(0.015625)"/>
       <path id="DejaVuSans-64" d="M 2906 2969 
L 2906 4863 
L 3481 4863 
L 3481 0 
L 2906 0 
L 2906 525 
Q 2725 213 2448 61 
Q 2172 -91 1784 -91 
Q 1150 -91 751 415 
Q 353 922 353 1747 
Q 353 2572 751 3078 
Q 1150 3584 1784 3584 
Q 2172 3584 2448 3432 
Q 2725 3281 2906 2969 
z
M 947 1747 
Q 947 1113 1208 752 
Q 1469 391 1925 391 
Q 2381 391 2643 752 
Q 2906 1113 2906 1747 
Q 2906 2381 2643 2742 
Q 2381 3103 1925 3103 
Q 1469 3103 1208 2742 
Q 947 2381 947 1747 
z
" transform="scale(0.015625)"/>
       <path id="DejaVuSans-75" d="M 544 1381 
L 544 3500 
L 1119 3500 
L 1119 1403 
Q 1119 906 1312 657 
Q 1506 409 1894 409 
Q 2359 409 2629 706 
Q 2900 1003 2900 1516 
L 2900 3500 
L 3475 3500 
L 3475 0 
L 2900 0 
L 2900 538 
Q 2691 219 2414 64 
Q 2138 -91 1772 -91 
Q 1169 -91 856 284 
Q 544 659 544 1381 
z
M 1991 3584 
L 1991 3584 
z
" transform="scale(0.015625)"/>
      </defs>
      <use xlink:href="#DejaVuSans-50"/>
      <use xlink:href="#DejaVuSans-72" x="58.552734"/>
      <use xlink:href="#DejaVuSans-69" x="99.666016"/>
      <use xlink:href="#DejaVuSans-6d" x="127.449219"/>
      <use xlink:href="#DejaVuSans-61" x="224.861328"/>
      <use xlink:href="#DejaVuSans-72" x="286.140625"/>
      <use xlink:href="#DejaVuSans-79" x="327.253906"/>
      <use xlink:href="#DejaVuSans-20" x="386.433594"/>
      <use xlink:href="#DejaVuSans-72" x="418.220703"/>
      <use xlink:href="#DejaVuSans-65" x="457.083984"/>
      <use xlink:href="#DejaVuSans-61" x="518.607422"/>
      <use xlink:href="#DejaVuSans-64" x="579.886719"/>
      <use xlink:href="#DejaVuSans-6f" x="643.363281"/>
      <use xlink:href="#DejaVuSans-75" x="704.544922"/>
      <use xlink:href="#DejaVuSans-74" x="767.923828"/>
     </g>
    </g>
   </g>
   <g id="line2d_15">
    <path d="M 224.287794 158.7568 
L 209.098971 126.910499 
L 173.924853 129.679742 
L 153.939559 158.7568 
L 173.125441 189.218479 
L 210.697794 193.372345 
L 224.287794 158.7568 
" clip-path="url(#p2e1ea13e2f)" style="fill: none; stroke: #a9a9a9; stroke-width: 2; stroke-linecap: square"/>
   </g>
   <g id="patch_12">
    <path d="M 224.287794 158.7568 
L 209.098971 126.910499 
L 173.924853 129.679742 
L 153.939559 158.7568 
L 173.125441 189.218479 
L 210.697794 193.372345 
z
" clip-path="url(#p2e1ea13e2f)" style="fill: #a9a9a9; opacity: 0.1; stroke: #a9a9a9; stroke-linejoin: miter"/>
   </g>
  </g>
 </g>
 <defs>
  <clipPath id="p2e1ea13e2f">
   <path d="M 299.4325 158.7568 
C 299.4325 144.47982 296.620246 130.341666 291.156683 117.151457 
C 285.693119 103.961248 277.684498 91.9755 267.589149 81.880151 
C 257.4938 71.784802 245.508052 63.776181 232.317843 58.312617 
C 219.127634 52.849054 204.98948 50.0368 190.7125 50.0368 
C 176.43552 50.0368 162.297366 52.849054 149.107157 58.312617 
C 135.916948 63.776181 123.9312 71.784802 113.835851 81.880151 
C 103.740502 91.9755 95.731881 103.961248 90.268317 117.151457 
C 84.804754 130.341666 81.9925 144.47982 81.9925 158.7568 
C 81.9925 173.03378 84.804754 187.171934 90.268317 200.362143 
C 95.731881 213.552352 103.740502 225.5381 113.835851 235.633449 
C 123.9312 245.728798 135.916948 253.737419 149.107157 259.200983 
C 162.297366 264.664546 176.43552 267.4768 190.7125 267.4768 
C 204.98948 267.4768 219.127634 264.664546 232.317843 259.200983 
C 245.508052 253.737419 257.4938 245.728798 267.589149 235.633449 
C 277.684498 225.5381 285.693119 213.552352 291.156683 200.362143 
C 296.620246 187.171934 299.4325 173.03378 299.4325 158.7568 
M 190.7125 158.7568 
C 190.7125 158.7568 190.7125 158.7568 190.7125 158.7568 
C 190.7125 158.7568 190.7125 158.7568 190.7125 158.7568 
C 190.7125 158.7568 190.7125 158.7568 190.7125 158.7568 
C 190.7125 158.7568 190.7125 158.7568 190.7125 158.7568 
C 190.7125 158.7568 190.7125 158.7568 190.7125 158.7568 
C 190.7125 158.7568 190.7125 158.7568 190.7125 158.7568 
C 190.7125 158.7568 190.7125 158.7568 190.7125 158.7568 
C 190.7125 158.7568 190.7125 158.7568 190.7125 158.7568 
C 190.7125 158.7568 190.7125 158.7568 190.7125 158.7568 
C 190.7125 158.7568 190.7125 158.7568 190.7125 158.7568 
C 190.7125 158.7568 190.7125 158.7568 190.7125 158.7568 
C 190.7125 158.7568 190.7125 158.7568 190.7125 158.7568 
C 190.7125 158.7568 190.7125 158.7568 190.7125 158.7568 
C 190.7125 158.7568 190.7125 158.7568 190.7125 158.7568 
C 190.7125 158.7568 190.7125 158.7568 190.7125 158.7568 
C 190.7125 158.7568 190.7125 158.7568 190.7125 158.7568 
M 299.4325 158.7568 
z
"/>
  </clipPath>
 </defs>
</svg>
