<?xml version="1.0" encoding="utf-8" standalone="no"?>
<!DOCTYPE svg PUBLIC "-//W3C//DTD SVG 1.1//EN"
  "http://www.w3.org/Graphics/SVG/1.1/DTD/svg11.dtd">
<svg xmlns:xlink="http://www.w3.org/1999/xlink" width="1213.314063pt" height="662.156pt" viewBox="0 0 1213.314063 662.156" xmlns="http://www.w3.org/2000/svg" version="1.1">
 <metadata>
  <rdf:RDF xmlns:dc="http://purl.org/dc/elements/1.1/" xmlns:cc="http://creativecommons.org/ns#" xmlns:rdf="http://www.w3.org/1999/02/22-rdf-syntax-ns#">
   <cc:Work>
    <dc:type rdf:resource="http://purl.org/dc/dcmitype/StillImage"/>
    <dc:date>2023-05-24T15:36:17.853477</dc:date>
    <dc:format>image/svg+xml</dc:format>
    <dc:creator>
     <cc:Agent>
      <dc:title>Matplotlib v3.5.3, https://matplotlib.org/</dc:title>
     </cc:Agent>
    </dc:creator>
   </cc:Work>
  </rdf:RDF>
 </metadata>
 <defs>
  <style type="text/css">*{stroke-linejoin: round; stroke-linecap: butt}</style>
 </defs>
 <g id="figure_1">
  <g id="patch_1">
   <path d="M 0 662.156 
L 1213.314063 662.156 
L 1213.314063 0 
L 0 0 
z
" style="fill: #ffffff"/>
  </g>
  <g id="axes_1">
   <g id="patch_2">
    <path d="M 90.114063 651.456 
L 567.037139 651.456 
L 567.037139 107.856 
L 90.114063 107.856 
z
" style="fill: #ffffff"/>
   </g>
   <g id="matplotlib.axis_1"/>
   <g id="matplotlib.axis_2">
    <g id="ytick_1">
     <g id="line2d_1">
      <path d="M 90.114063 616.157299 
L 567.037139 616.157299 
" clip-path="url(#p66db247fc1)" style="fill: none; stroke: #b0b0b0; stroke-opacity: 0.5; stroke-width: 0.8; stroke-linecap: square"/>
     </g>
     <g id="line2d_2">
      <defs>
       <path id="m6cd2221c52" d="M 0 0 
L -3.5 0 
" style="stroke: #000000; stroke-width: 0.8"/>
      </defs>
      <g>
       <use xlink:href="#m6cd2221c52" x="90.114063" y="616.157299" style="stroke: #000000; stroke-width: 0.8"/>
      </g>
     </g>
     <g id="text_1">
      <!-- 30 -->
      <g transform="translate(51.301563 625.655346)scale(0.25 -0.25)">
       <defs>
        <path id="DejaVuSans-33" d="M 2597 2516 
Q 3050 2419 3304 2112 
Q 3559 1806 3559 1356 
Q 3559 666 3084 287 
Q 2609 -91 1734 -91 
Q 1441 -91 1130 -33 
Q 819 25 488 141 
L 488 750 
Q 750 597 1062 519 
Q 1375 441 1716 441 
Q 2309 441 2620 675 
Q 2931 909 2931 1356 
Q 2931 1769 2642 2001 
Q 2353 2234 1838 2234 
L 1294 2234 
L 1294 2753 
L 1863 2753 
Q 2328 2753 2575 2939 
Q 2822 3125 2822 3475 
Q 2822 3834 2567 4026 
Q 2313 4219 1838 4219 
Q 1578 4219 1281 4162 
Q 984 4106 628 3988 
L 628 4550 
Q 988 4650 1302 4700 
Q 1616 4750 1894 4750 
Q 2613 4750 3031 4423 
Q 3450 4097 3450 3541 
Q 3450 3153 3228 2886 
Q 3006 2619 2597 2516 
z
" transform="scale(0.015625)"/>
        <path id="DejaVuSans-30" d="M 2034 4250 
Q 1547 4250 1301 3770 
Q 1056 3291 1056 2328 
Q 1056 1369 1301 889 
Q 1547 409 2034 409 
Q 2525 409 2770 889 
Q 3016 1369 3016 2328 
Q 3016 3291 2770 3770 
Q 2525 4250 2034 4250 
z
M 2034 4750 
Q 2819 4750 3233 4129 
Q 3647 3509 3647 2328 
Q 3647 1150 3233 529 
Q 2819 -91 2034 -91 
Q 1250 -91 836 529 
Q 422 1150 422 2328 
Q 422 3509 836 4129 
Q 1250 4750 2034 4750 
z
" transform="scale(0.015625)"/>
       </defs>
       <use xlink:href="#DejaVuSans-33"/>
       <use xlink:href="#DejaVuSans-30" x="63.623047"/>
      </g>
     </g>
    </g>
    <g id="ytick_2">
     <g id="line2d_3">
      <path d="M 90.114063 545.559896 
L 567.037139 545.559896 
" clip-path="url(#p66db247fc1)" style="fill: none; stroke: #b0b0b0; stroke-opacity: 0.5; stroke-width: 0.8; stroke-linecap: square"/>
     </g>
     <g id="line2d_4">
      <g>
       <use xlink:href="#m6cd2221c52" x="90.114063" y="545.559896" style="stroke: #000000; stroke-width: 0.8"/>
      </g>
     </g>
     <g id="text_2">
      <!-- 40 -->
      <g transform="translate(51.301563 555.057943)scale(0.25 -0.25)">
       <defs>
        <path id="DejaVuSans-34" d="M 2419 4116 
L 825 1625 
L 2419 1625 
L 2419 4116 
z
M 2253 4666 
L 3047 4666 
L 3047 1625 
L 3713 1625 
L 3713 1100 
L 3047 1100 
L 3047 0 
L 2419 0 
L 2419 1100 
L 313 1100 
L 313 1709 
L 2253 4666 
z
" transform="scale(0.015625)"/>
       </defs>
       <use xlink:href="#DejaVuSans-34"/>
       <use xlink:href="#DejaVuSans-30" x="63.623047"/>
      </g>
     </g>
    </g>
    <g id="ytick_3">
     <g id="line2d_5">
      <path d="M 90.114063 474.962494 
L 567.037139 474.962494 
" clip-path="url(#p66db247fc1)" style="fill: none; stroke: #b0b0b0; stroke-opacity: 0.5; stroke-width: 0.8; stroke-linecap: square"/>
     </g>
     <g id="line2d_6">
      <g>
       <use xlink:href="#m6cd2221c52" x="90.114063" y="474.962494" style="stroke: #000000; stroke-width: 0.8"/>
      </g>
     </g>
     <g id="text_3">
      <!-- 50 -->
      <g transform="translate(51.301563 484.46054)scale(0.25 -0.25)">
       <defs>
        <path id="DejaVuSans-35" d="M 691 4666 
L 3169 4666 
L 3169 4134 
L 1269 4134 
L 1269 2991 
Q 1406 3038 1543 3061 
Q 1681 3084 1819 3084 
Q 2600 3084 3056 2656 
Q 3513 2228 3513 1497 
Q 3513 744 3044 326 
Q 2575 -91 1722 -91 
Q 1428 -91 1123 -41 
Q 819 9 494 109 
L 494 744 
Q 775 591 1075 516 
Q 1375 441 1709 441 
Q 2250 441 2565 725 
Q 2881 1009 2881 1497 
Q 2881 1984 2565 2268 
Q 2250 2553 1709 2553 
Q 1456 2553 1204 2497 
Q 953 2441 691 2322 
L 691 4666 
z
" transform="scale(0.015625)"/>
       </defs>
       <use xlink:href="#DejaVuSans-35"/>
       <use xlink:href="#DejaVuSans-30" x="63.623047"/>
      </g>
     </g>
    </g>
    <g id="ytick_4">
     <g id="line2d_7">
      <path d="M 90.114063 404.365091 
L 567.037139 404.365091 
" clip-path="url(#p66db247fc1)" style="fill: none; stroke: #b0b0b0; stroke-opacity: 0.5; stroke-width: 0.8; stroke-linecap: square"/>
     </g>
     <g id="line2d_8">
      <g>
       <use xlink:href="#m6cd2221c52" x="90.114063" y="404.365091" style="stroke: #000000; stroke-width: 0.8"/>
      </g>
     </g>
     <g id="text_4">
      <!-- 60 -->
      <g transform="translate(51.301563 413.863138)scale(0.25 -0.25)">
       <defs>
        <path id="DejaVuSans-36" d="M 2113 2584 
Q 1688 2584 1439 2293 
Q 1191 2003 1191 1497 
Q 1191 994 1439 701 
Q 1688 409 2113 409 
Q 2538 409 2786 701 
Q 3034 994 3034 1497 
Q 3034 2003 2786 2293 
Q 2538 2584 2113 2584 
z
M 3366 4563 
L 3366 3988 
Q 3128 4100 2886 4159 
Q 2644 4219 2406 4219 
Q 1781 4219 1451 3797 
Q 1122 3375 1075 2522 
Q 1259 2794 1537 2939 
Q 1816 3084 2150 3084 
Q 2853 3084 3261 2657 
Q 3669 2231 3669 1497 
Q 3669 778 3244 343 
Q 2819 -91 2113 -91 
Q 1303 -91 875 529 
Q 447 1150 447 2328 
Q 447 3434 972 4092 
Q 1497 4750 2381 4750 
Q 2619 4750 2861 4703 
Q 3103 4656 3366 4563 
z
" transform="scale(0.015625)"/>
       </defs>
       <use xlink:href="#DejaVuSans-36"/>
       <use xlink:href="#DejaVuSans-30" x="63.623047"/>
      </g>
     </g>
    </g>
    <g id="ytick_5">
     <g id="line2d_9">
      <path d="M 90.114063 333.767688 
L 567.037139 333.767688 
" clip-path="url(#p66db247fc1)" style="fill: none; stroke: #b0b0b0; stroke-opacity: 0.5; stroke-width: 0.8; stroke-linecap: square"/>
     </g>
     <g id="line2d_10">
      <g>
       <use xlink:href="#m6cd2221c52" x="90.114063" y="333.767688" style="stroke: #000000; stroke-width: 0.8"/>
      </g>
     </g>
     <g id="text_5">
      <!-- 70 -->
      <g transform="translate(51.301563 343.265735)scale(0.25 -0.25)">
       <defs>
        <path id="DejaVuSans-37" d="M 525 4666 
L 3525 4666 
L 3525 4397 
L 1831 0 
L 1172 0 
L 2766 4134 
L 525 4134 
L 525 4666 
z
" transform="scale(0.015625)"/>
       </defs>
       <use xlink:href="#DejaVuSans-37"/>
       <use xlink:href="#DejaVuSans-30" x="63.623047"/>
      </g>
     </g>
    </g>
    <g id="ytick_6">
     <g id="line2d_11">
      <path d="M 90.114063 263.170286 
L 567.037139 263.170286 
" clip-path="url(#p66db247fc1)" style="fill: none; stroke: #b0b0b0; stroke-opacity: 0.5; stroke-width: 0.8; stroke-linecap: square"/>
     </g>
     <g id="line2d_12">
      <g>
       <use xlink:href="#m6cd2221c52" x="90.114063" y="263.170286" style="stroke: #000000; stroke-width: 0.8"/>
      </g>
     </g>
     <g id="text_6">
      <!-- 80 -->
      <g transform="translate(51.301563 272.668333)scale(0.25 -0.25)">
       <defs>
        <path id="DejaVuSans-38" d="M 2034 2216 
Q 1584 2216 1326 1975 
Q 1069 1734 1069 1313 
Q 1069 891 1326 650 
Q 1584 409 2034 409 
Q 2484 409 2743 651 
Q 3003 894 3003 1313 
Q 3003 1734 2745 1975 
Q 2488 2216 2034 2216 
z
M 1403 2484 
Q 997 2584 770 2862 
Q 544 3141 544 3541 
Q 544 4100 942 4425 
Q 1341 4750 2034 4750 
Q 2731 4750 3128 4425 
Q 3525 4100 3525 3541 
Q 3525 3141 3298 2862 
Q 3072 2584 2669 2484 
Q 3125 2378 3379 2068 
Q 3634 1759 3634 1313 
Q 3634 634 3220 271 
Q 2806 -91 2034 -91 
Q 1263 -91 848 271 
Q 434 634 434 1313 
Q 434 1759 690 2068 
Q 947 2378 1403 2484 
z
M 1172 3481 
Q 1172 3119 1398 2916 
Q 1625 2713 2034 2713 
Q 2441 2713 2670 2916 
Q 2900 3119 2900 3481 
Q 2900 3844 2670 4047 
Q 2441 4250 2034 4250 
Q 1625 4250 1398 4047 
Q 1172 3844 1172 3481 
z
" transform="scale(0.015625)"/>
       </defs>
       <use xlink:href="#DejaVuSans-38"/>
       <use xlink:href="#DejaVuSans-30" x="63.623047"/>
      </g>
     </g>
    </g>
    <g id="ytick_7">
     <g id="line2d_13">
      <path d="M 90.114063 192.572883 
L 567.037139 192.572883 
" clip-path="url(#p66db247fc1)" style="fill: none; stroke: #b0b0b0; stroke-opacity: 0.5; stroke-width: 0.8; stroke-linecap: square"/>
     </g>
     <g id="line2d_14">
      <g>
       <use xlink:href="#m6cd2221c52" x="90.114063" y="192.572883" style="stroke: #000000; stroke-width: 0.8"/>
      </g>
     </g>
     <g id="text_7">
      <!-- 90 -->
      <g transform="translate(51.301563 202.07093)scale(0.25 -0.25)">
       <defs>
        <path id="DejaVuSans-39" d="M 703 97 
L 703 672 
Q 941 559 1184 500 
Q 1428 441 1663 441 
Q 2288 441 2617 861 
Q 2947 1281 2994 2138 
Q 2813 1869 2534 1725 
Q 2256 1581 1919 1581 
Q 1219 1581 811 2004 
Q 403 2428 403 3163 
Q 403 3881 828 4315 
Q 1253 4750 1959 4750 
Q 2769 4750 3195 4129 
Q 3622 3509 3622 2328 
Q 3622 1225 3098 567 
Q 2575 -91 1691 -91 
Q 1453 -91 1209 -44 
Q 966 3 703 97 
z
M 1959 2075 
Q 2384 2075 2632 2365 
Q 2881 2656 2881 3163 
Q 2881 3666 2632 3958 
Q 2384 4250 1959 4250 
Q 1534 4250 1286 3958 
Q 1038 3666 1038 3163 
Q 1038 2656 1286 2365 
Q 1534 2075 1959 2075 
z
" transform="scale(0.015625)"/>
       </defs>
       <use xlink:href="#DejaVuSans-39"/>
       <use xlink:href="#DejaVuSans-30" x="63.623047"/>
      </g>
     </g>
    </g>
    <g id="ytick_8">
     <g id="line2d_15">
      <path d="M 90.114063 121.975481 
L 567.037139 121.975481 
" clip-path="url(#p66db247fc1)" style="fill: none; stroke: #b0b0b0; stroke-opacity: 0.5; stroke-width: 0.8; stroke-linecap: square"/>
     </g>
     <g id="line2d_16">
      <g>
       <use xlink:href="#m6cd2221c52" x="90.114063" y="121.975481" style="stroke: #000000; stroke-width: 0.8"/>
      </g>
     </g>
     <g id="text_8">
      <!-- 100 -->
      <g transform="translate(35.395313 131.473527)scale(0.25 -0.25)">
       <defs>
        <path id="DejaVuSans-31" d="M 794 531 
L 1825 531 
L 1825 4091 
L 703 3866 
L 703 4441 
L 1819 4666 
L 2450 4666 
L 2450 531 
L 3481 531 
L 3481 0 
L 794 0 
L 794 531 
z
" transform="scale(0.015625)"/>
       </defs>
       <use xlink:href="#DejaVuSans-31"/>
       <use xlink:href="#DejaVuSans-30" x="63.623047"/>
       <use xlink:href="#DejaVuSans-30" x="127.246094"/>
      </g>
     </g>
    </g>
    <g id="text_9">
     <!-- FP Scaffold diversity % -->
     <g transform="translate(26.196094 522.423578)rotate(-90)scale(0.25 -0.25)">
      <defs>
       <path id="DejaVuSans-46" d="M 628 4666 
L 3309 4666 
L 3309 4134 
L 1259 4134 
L 1259 2759 
L 3109 2759 
L 3109 2228 
L 1259 2228 
L 1259 0 
L 628 0 
L 628 4666 
z
" transform="scale(0.015625)"/>
       <path id="DejaVuSans-50" d="M 1259 4147 
L 1259 2394 
L 2053 2394 
Q 2494 2394 2734 2622 
Q 2975 2850 2975 3272 
Q 2975 3691 2734 3919 
Q 2494 4147 2053 4147 
L 1259 4147 
z
M 628 4666 
L 2053 4666 
Q 2838 4666 3239 4311 
Q 3641 3956 3641 3272 
Q 3641 2581 3239 2228 
Q 2838 1875 2053 1875 
L 1259 1875 
L 1259 0 
L 628 0 
L 628 4666 
z
" transform="scale(0.015625)"/>
       <path id="DejaVuSans-20" transform="scale(0.015625)"/>
       <path id="DejaVuSans-53" d="M 3425 4513 
L 3425 3897 
Q 3066 4069 2747 4153 
Q 2428 4238 2131 4238 
Q 1616 4238 1336 4038 
Q 1056 3838 1056 3469 
Q 1056 3159 1242 3001 
Q 1428 2844 1947 2747 
L 2328 2669 
Q 3034 2534 3370 2195 
Q 3706 1856 3706 1288 
Q 3706 609 3251 259 
Q 2797 -91 1919 -91 
Q 1588 -91 1214 -16 
Q 841 59 441 206 
L 441 856 
Q 825 641 1194 531 
Q 1563 422 1919 422 
Q 2459 422 2753 634 
Q 3047 847 3047 1241 
Q 3047 1584 2836 1778 
Q 2625 1972 2144 2069 
L 1759 2144 
Q 1053 2284 737 2584 
Q 422 2884 422 3419 
Q 422 4038 858 4394 
Q 1294 4750 2059 4750 
Q 2388 4750 2728 4690 
Q 3069 4631 3425 4513 
z
" transform="scale(0.015625)"/>
       <path id="DejaVuSans-63" d="M 3122 3366 
L 3122 2828 
Q 2878 2963 2633 3030 
Q 2388 3097 2138 3097 
Q 1578 3097 1268 2742 
Q 959 2388 959 1747 
Q 959 1106 1268 751 
Q 1578 397 2138 397 
Q 2388 397 2633 464 
Q 2878 531 3122 666 
L 3122 134 
Q 2881 22 2623 -34 
Q 2366 -91 2075 -91 
Q 1284 -91 818 406 
Q 353 903 353 1747 
Q 353 2603 823 3093 
Q 1294 3584 2113 3584 
Q 2378 3584 2631 3529 
Q 2884 3475 3122 3366 
z
" transform="scale(0.015625)"/>
       <path id="DejaVuSans-61" d="M 2194 1759 
Q 1497 1759 1228 1600 
Q 959 1441 959 1056 
Q 959 750 1161 570 
Q 1363 391 1709 391 
Q 2188 391 2477 730 
Q 2766 1069 2766 1631 
L 2766 1759 
L 2194 1759 
z
M 3341 1997 
L 3341 0 
L 2766 0 
L 2766 531 
Q 2569 213 2275 61 
Q 1981 -91 1556 -91 
Q 1019 -91 701 211 
Q 384 513 384 1019 
Q 384 1609 779 1909 
Q 1175 2209 1959 2209 
L 2766 2209 
L 2766 2266 
Q 2766 2663 2505 2880 
Q 2244 3097 1772 3097 
Q 1472 3097 1187 3025 
Q 903 2953 641 2809 
L 641 3341 
Q 956 3463 1253 3523 
Q 1550 3584 1831 3584 
Q 2591 3584 2966 3190 
Q 3341 2797 3341 1997 
z
" transform="scale(0.015625)"/>
       <path id="DejaVuSans-66" d="M 2375 4863 
L 2375 4384 
L 1825 4384 
Q 1516 4384 1395 4259 
Q 1275 4134 1275 3809 
L 1275 3500 
L 2222 3500 
L 2222 3053 
L 1275 3053 
L 1275 0 
L 697 0 
L 697 3053 
L 147 3053 
L 147 3500 
L 697 3500 
L 697 3744 
Q 697 4328 969 4595 
Q 1241 4863 1831 4863 
L 2375 4863 
z
" transform="scale(0.015625)"/>
       <path id="DejaVuSans-6f" d="M 1959 3097 
Q 1497 3097 1228 2736 
Q 959 2375 959 1747 
Q 959 1119 1226 758 
Q 1494 397 1959 397 
Q 2419 397 2687 759 
Q 2956 1122 2956 1747 
Q 2956 2369 2687 2733 
Q 2419 3097 1959 3097 
z
M 1959 3584 
Q 2709 3584 3137 3096 
Q 3566 2609 3566 1747 
Q 3566 888 3137 398 
Q 2709 -91 1959 -91 
Q 1206 -91 779 398 
Q 353 888 353 1747 
Q 353 2609 779 3096 
Q 1206 3584 1959 3584 
z
" transform="scale(0.015625)"/>
       <path id="DejaVuSans-6c" d="M 603 4863 
L 1178 4863 
L 1178 0 
L 603 0 
L 603 4863 
z
" transform="scale(0.015625)"/>
       <path id="DejaVuSans-64" d="M 2906 2969 
L 2906 4863 
L 3481 4863 
L 3481 0 
L 2906 0 
L 2906 525 
Q 2725 213 2448 61 
Q 2172 -91 1784 -91 
Q 1150 -91 751 415 
Q 353 922 353 1747 
Q 353 2572 751 3078 
Q 1150 3584 1784 3584 
Q 2172 3584 2448 3432 
Q 2725 3281 2906 2969 
z
M 947 1747 
Q 947 1113 1208 752 
Q 1469 391 1925 391 
Q 2381 391 2643 752 
Q 2906 1113 2906 1747 
Q 2906 2381 2643 2742 
Q 2381 3103 1925 3103 
Q 1469 3103 1208 2742 
Q 947 2381 947 1747 
z
" transform="scale(0.015625)"/>
       <path id="DejaVuSans-69" d="M 603 3500 
L 1178 3500 
L 1178 0 
L 603 0 
L 603 3500 
z
M 603 4863 
L 1178 4863 
L 1178 4134 
L 603 4134 
L 603 4863 
z
" transform="scale(0.015625)"/>
       <path id="DejaVuSans-76" d="M 191 3500 
L 800 3500 
L 1894 563 
L 2988 3500 
L 3597 3500 
L 2284 0 
L 1503 0 
L 191 3500 
z
" transform="scale(0.015625)"/>
       <path id="DejaVuSans-65" d="M 3597 1894 
L 3597 1613 
L 953 1613 
Q 991 1019 1311 708 
Q 1631 397 2203 397 
Q 2534 397 2845 478 
Q 3156 559 3463 722 
L 3463 178 
Q 3153 47 2828 -22 
Q 2503 -91 2169 -91 
Q 1331 -91 842 396 
Q 353 884 353 1716 
Q 353 2575 817 3079 
Q 1281 3584 2069 3584 
Q 2775 3584 3186 3129 
Q 3597 2675 3597 1894 
z
M 3022 2063 
Q 3016 2534 2758 2815 
Q 2500 3097 2075 3097 
Q 1594 3097 1305 2825 
Q 1016 2553 972 2059 
L 3022 2063 
z
" transform="scale(0.015625)"/>
       <path id="DejaVuSans-72" d="M 2631 2963 
Q 2534 3019 2420 3045 
Q 2306 3072 2169 3072 
Q 1681 3072 1420 2755 
Q 1159 2438 1159 1844 
L 1159 0 
L 581 0 
L 581 3500 
L 1159 3500 
L 1159 2956 
Q 1341 3275 1631 3429 
Q 1922 3584 2338 3584 
Q 2397 3584 2469 3576 
Q 2541 3569 2628 3553 
L 2631 2963 
z
" transform="scale(0.015625)"/>
       <path id="DejaVuSans-73" d="M 2834 3397 
L 2834 2853 
Q 2591 2978 2328 3040 
Q 2066 3103 1784 3103 
Q 1356 3103 1142 2972 
Q 928 2841 928 2578 
Q 928 2378 1081 2264 
Q 1234 2150 1697 2047 
L 1894 2003 
Q 2506 1872 2764 1633 
Q 3022 1394 3022 966 
Q 3022 478 2636 193 
Q 2250 -91 1575 -91 
Q 1294 -91 989 -36 
Q 684 19 347 128 
L 347 722 
Q 666 556 975 473 
Q 1284 391 1588 391 
Q 1994 391 2212 530 
Q 2431 669 2431 922 
Q 2431 1156 2273 1281 
Q 2116 1406 1581 1522 
L 1381 1569 
Q 847 1681 609 1914 
Q 372 2147 372 2553 
Q 372 3047 722 3315 
Q 1072 3584 1716 3584 
Q 2034 3584 2315 3537 
Q 2597 3491 2834 3397 
z
" transform="scale(0.015625)"/>
       <path id="DejaVuSans-74" d="M 1172 4494 
L 1172 3500 
L 2356 3500 
L 2356 3053 
L 1172 3053 
L 1172 1153 
Q 1172 725 1289 603 
Q 1406 481 1766 481 
L 2356 481 
L 2356 0 
L 1766 0 
Q 1100 0 847 248 
Q 594 497 594 1153 
L 594 3053 
L 172 3053 
L 172 3500 
L 594 3500 
L 594 4494 
L 1172 4494 
z
" transform="scale(0.015625)"/>
       <path id="DejaVuSans-79" d="M 2059 -325 
Q 1816 -950 1584 -1140 
Q 1353 -1331 966 -1331 
L 506 -1331 
L 506 -850 
L 844 -850 
Q 1081 -850 1212 -737 
Q 1344 -625 1503 -206 
L 1606 56 
L 191 3500 
L 800 3500 
L 1894 763 
L 2988 3500 
L 3597 3500 
L 2059 -325 
z
" transform="scale(0.015625)"/>
       <path id="DejaVuSans-25" d="M 4653 2053 
Q 4381 2053 4226 1822 
Q 4072 1591 4072 1178 
Q 4072 772 4226 539 
Q 4381 306 4653 306 
Q 4919 306 5073 539 
Q 5228 772 5228 1178 
Q 5228 1588 5073 1820 
Q 4919 2053 4653 2053 
z
M 4653 2450 
Q 5147 2450 5437 2106 
Q 5728 1763 5728 1178 
Q 5728 594 5436 251 
Q 5144 -91 4653 -91 
Q 4153 -91 3862 251 
Q 3572 594 3572 1178 
Q 3572 1766 3864 2108 
Q 4156 2450 4653 2450 
z
M 1428 4353 
Q 1159 4353 1004 4120 
Q 850 3888 850 3481 
Q 850 3069 1003 2837 
Q 1156 2606 1428 2606 
Q 1700 2606 1854 2837 
Q 2009 3069 2009 3481 
Q 2009 3884 1853 4118 
Q 1697 4353 1428 4353 
z
M 4250 4750 
L 4750 4750 
L 1831 -91 
L 1331 -91 
L 4250 4750 
z
M 1428 4750 
Q 1922 4750 2215 4408 
Q 2509 4066 2509 3481 
Q 2509 2891 2217 2550 
Q 1925 2209 1428 2209 
Q 931 2209 642 2551 
Q 353 2894 353 3481 
Q 353 4063 643 4406 
Q 934 4750 1428 4750 
z
" transform="scale(0.015625)"/>
      </defs>
      <use xlink:href="#DejaVuSans-46"/>
      <use xlink:href="#DejaVuSans-50" x="57.519531"/>
      <use xlink:href="#DejaVuSans-20" x="117.822266"/>
      <use xlink:href="#DejaVuSans-53" x="149.609375"/>
      <use xlink:href="#DejaVuSans-63" x="213.085938"/>
      <use xlink:href="#DejaVuSans-61" x="268.066406"/>
      <use xlink:href="#DejaVuSans-66" x="329.345703"/>
      <use xlink:href="#DejaVuSans-66" x="364.550781"/>
      <use xlink:href="#DejaVuSans-6f" x="399.755859"/>
      <use xlink:href="#DejaVuSans-6c" x="460.9375"/>
      <use xlink:href="#DejaVuSans-64" x="488.720703"/>
      <use xlink:href="#DejaVuSans-20" x="552.197266"/>
      <use xlink:href="#DejaVuSans-64" x="583.984375"/>
      <use xlink:href="#DejaVuSans-69" x="647.460938"/>
      <use xlink:href="#DejaVuSans-76" x="675.244141"/>
      <use xlink:href="#DejaVuSans-65" x="734.423828"/>
      <use xlink:href="#DejaVuSans-72" x="795.947266"/>
      <use xlink:href="#DejaVuSans-73" x="837.060547"/>
      <use xlink:href="#DejaVuSans-69" x="889.160156"/>
      <use xlink:href="#DejaVuSans-74" x="916.943359"/>
      <use xlink:href="#DejaVuSans-79" x="956.152344"/>
      <use xlink:href="#DejaVuSans-20" x="1015.332031"/>
      <use xlink:href="#DejaVuSans-25" x="1047.119141"/>
     </g>
    </g>
   </g>
   <g id="patch_3">
    <path d="M 90.114063 651.456 
L 90.114063 107.856 
" style="fill: none; stroke: #000000; stroke-width: 0.8; stroke-linejoin: miter; stroke-linecap: square"/>
   </g>
   <g id="patch_4">
    <path d="M 567.037139 651.456 
L 567.037139 107.856 
" style="fill: none; stroke: #000000; stroke-width: 0.8; stroke-linejoin: miter; stroke-linecap: square"/>
   </g>
   <g id="patch_5">
    <path d="M 90.114063 651.456 
L 567.037139 651.456 
" style="fill: none; stroke: #000000; stroke-width: 0.8; stroke-linejoin: miter; stroke-linecap: square"/>
   </g>
   <g id="patch_6">
    <path d="M 90.114063 107.856 
L 567.037139 107.856 
" style="fill: none; stroke: #000000; stroke-width: 0.8; stroke-linejoin: miter; stroke-linecap: square"/>
   </g>
   <g id="text_10">
    <!-- a. -->
    <g transform="translate(56.048128 93.736519)scale(0.27 -0.27)">
     <defs>
      <path id="DejaVuSans-Bold-61" d="M 2106 1575 
Q 1756 1575 1579 1456 
Q 1403 1338 1403 1106 
Q 1403 894 1545 773 
Q 1688 653 1941 653 
Q 2256 653 2472 879 
Q 2688 1106 2688 1447 
L 2688 1575 
L 2106 1575 
z
M 3816 1997 
L 3816 0 
L 2688 0 
L 2688 519 
Q 2463 200 2181 54 
Q 1900 -91 1497 -91 
Q 953 -91 614 226 
Q 275 544 275 1050 
Q 275 1666 698 1953 
Q 1122 2241 2028 2241 
L 2688 2241 
L 2688 2328 
Q 2688 2594 2478 2717 
Q 2269 2841 1825 2841 
Q 1466 2841 1156 2769 
Q 847 2697 581 2553 
L 581 3406 
Q 941 3494 1303 3539 
Q 1666 3584 2028 3584 
Q 2975 3584 3395 3211 
Q 3816 2838 3816 1997 
z
" transform="scale(0.015625)"/>
      <path id="DejaVuSans-Bold-2e" d="M 653 1209 
L 1778 1209 
L 1778 0 
L 653 0 
L 653 1209 
z
" transform="scale(0.015625)"/>
     </defs>
     <use xlink:href="#DejaVuSans-Bold-61"/>
     <use xlink:href="#DejaVuSans-Bold-2e" x="67.480469"/>
    </g>
   </g>
   <g id="legend_1">
    <g id="patch_7">
     <path d="M 124.645697 54.930937 
L 1104.813197 54.930937 
Q 1110.213197 54.930937 1110.213197 49.530937 
L 1110.213197 12.6 
Q 1110.213197 7.2 1104.813197 7.2 
L 124.645697 7.2 
Q 119.245697 7.2 119.245697 12.6 
L 119.245697 49.530937 
Q 119.245697 54.930937 124.645697 54.930937 
z
" style="fill: #ffffff; opacity: 0.8; stroke: #cccccc; stroke-linejoin: miter"/>
    </g>
    <g id="patch_8">
     <path d="M 130.045697 38.515781 
L 184.045697 38.515781 
L 184.045697 19.615781 
L 130.045697 19.615781 
z
" style="fill: #6495ed; stroke: #6495ed; stroke-linejoin: miter"/>
    </g>
    <g id="text_11">
     <!-- MVS-A -->
     <g transform="translate(205.645697 38.515781)scale(0.27 -0.27)">
      <defs>
       <path id="DejaVuSans-4d" d="M 628 4666 
L 1569 4666 
L 2759 1491 
L 3956 4666 
L 4897 4666 
L 4897 0 
L 4281 0 
L 4281 4097 
L 3078 897 
L 2444 897 
L 1241 4097 
L 1241 0 
L 628 0 
L 628 4666 
z
" transform="scale(0.015625)"/>
       <path id="DejaVuSans-56" d="M 1831 0 
L 50 4666 
L 709 4666 
L 2188 738 
L 3669 4666 
L 4325 4666 
L 2547 0 
L 1831 0 
z
" transform="scale(0.015625)"/>
       <path id="DejaVuSans-2d" d="M 313 2009 
L 1997 2009 
L 1997 1497 
L 313 1497 
L 313 2009 
z
" transform="scale(0.015625)"/>
       <path id="DejaVuSans-41" d="M 2188 4044 
L 1331 1722 
L 3047 1722 
L 2188 4044 
z
M 1831 4666 
L 2547 4666 
L 4325 0 
L 3669 0 
L 3244 1197 
L 1141 1197 
L 716 0 
L 50 0 
L 1831 4666 
z
" transform="scale(0.015625)"/>
      </defs>
      <use xlink:href="#DejaVuSans-4d"/>
      <use xlink:href="#DejaVuSans-56" x="86.279297"/>
      <use xlink:href="#DejaVuSans-53" x="154.6875"/>
      <use xlink:href="#DejaVuSans-2d" x="218.164062"/>
      <use xlink:href="#DejaVuSans-41" x="251.998047"/>
     </g>
    </g>
    <g id="patch_9">
     <path d="M 346.155385 38.515781 
L 400.155385 38.515781 
L 400.155385 19.615781 
L 346.155385 19.615781 
z
" style="fill: #cd5c5c; stroke: #cd5c5c; stroke-linejoin: miter"/>
    </g>
    <g id="text_12">
     <!-- CatBoost -->
     <g transform="translate(421.755385 38.515781)scale(0.27 -0.27)">
      <defs>
       <path id="DejaVuSans-43" d="M 4122 4306 
L 4122 3641 
Q 3803 3938 3442 4084 
Q 3081 4231 2675 4231 
Q 1875 4231 1450 3742 
Q 1025 3253 1025 2328 
Q 1025 1406 1450 917 
Q 1875 428 2675 428 
Q 3081 428 3442 575 
Q 3803 722 4122 1019 
L 4122 359 
Q 3791 134 3420 21 
Q 3050 -91 2638 -91 
Q 1578 -91 968 557 
Q 359 1206 359 2328 
Q 359 3453 968 4101 
Q 1578 4750 2638 4750 
Q 3056 4750 3426 4639 
Q 3797 4528 4122 4306 
z
" transform="scale(0.015625)"/>
       <path id="DejaVuSans-42" d="M 1259 2228 
L 1259 519 
L 2272 519 
Q 2781 519 3026 730 
Q 3272 941 3272 1375 
Q 3272 1813 3026 2020 
Q 2781 2228 2272 2228 
L 1259 2228 
z
M 1259 4147 
L 1259 2741 
L 2194 2741 
Q 2656 2741 2882 2914 
Q 3109 3088 3109 3444 
Q 3109 3797 2882 3972 
Q 2656 4147 2194 4147 
L 1259 4147 
z
M 628 4666 
L 2241 4666 
Q 2963 4666 3353 4366 
Q 3744 4066 3744 3513 
Q 3744 3084 3544 2831 
Q 3344 2578 2956 2516 
Q 3422 2416 3680 2098 
Q 3938 1781 3938 1306 
Q 3938 681 3513 340 
Q 3088 0 2303 0 
L 628 0 
L 628 4666 
z
" transform="scale(0.015625)"/>
      </defs>
      <use xlink:href="#DejaVuSans-43"/>
      <use xlink:href="#DejaVuSans-61" x="69.824219"/>
      <use xlink:href="#DejaVuSans-74" x="131.103516"/>
      <use xlink:href="#DejaVuSans-42" x="170.3125"/>
      <use xlink:href="#DejaVuSans-6f" x="238.916016"/>
      <use xlink:href="#DejaVuSans-6f" x="300.097656"/>
      <use xlink:href="#DejaVuSans-73" x="361.279297"/>
      <use xlink:href="#DejaVuSans-74" x="413.378906"/>
     </g>
    </g>
    <g id="patch_10">
     <path d="M 597.955697 38.515781 
L 651.955697 38.515781 
L 651.955697 19.615781 
L 597.955697 19.615781 
z
" style="fill: #c0c0c0; stroke: #c0c0c0; stroke-linejoin: miter"/>
    </g>
    <g id="text_13">
     <!-- PAINS -->
     <g transform="translate(673.555697 38.515781)scale(0.27 -0.27)">
      <defs>
       <path id="DejaVuSans-49" d="M 628 4666 
L 1259 4666 
L 1259 0 
L 628 0 
L 628 4666 
z
" transform="scale(0.015625)"/>
       <path id="DejaVuSans-4e" d="M 628 4666 
L 1478 4666 
L 3547 763 
L 3547 4666 
L 4159 4666 
L 4159 0 
L 3309 0 
L 1241 3903 
L 1241 0 
L 628 0 
L 628 4666 
z
" transform="scale(0.015625)"/>
      </defs>
      <use xlink:href="#DejaVuSans-50"/>
      <use xlink:href="#DejaVuSans-41" x="53.927734"/>
      <use xlink:href="#DejaVuSans-49" x="122.335938"/>
      <use xlink:href="#DejaVuSans-4e" x="151.828125"/>
      <use xlink:href="#DejaVuSans-53" x="226.632812"/>
     </g>
    </g>
    <g id="patch_11">
     <path d="M 805.889447 38.515781 
L 859.889447 38.515781 
L 859.889447 19.615781 
L 805.889447 19.615781 
z
" style="fill: #696969; stroke: #696969; stroke-linejoin: miter"/>
    </g>
    <g id="text_14">
     <!-- Primary readout -->
     <g transform="translate(881.489447 38.515781)scale(0.27 -0.27)">
      <defs>
       <path id="DejaVuSans-6d" d="M 3328 2828 
Q 3544 3216 3844 3400 
Q 4144 3584 4550 3584 
Q 5097 3584 5394 3201 
Q 5691 2819 5691 2113 
L 5691 0 
L 5113 0 
L 5113 2094 
Q 5113 2597 4934 2840 
Q 4756 3084 4391 3084 
Q 3944 3084 3684 2787 
Q 3425 2491 3425 1978 
L 3425 0 
L 2847 0 
L 2847 2094 
Q 2847 2600 2669 2842 
Q 2491 3084 2119 3084 
Q 1678 3084 1418 2786 
Q 1159 2488 1159 1978 
L 1159 0 
L 581 0 
L 581 3500 
L 1159 3500 
L 1159 2956 
Q 1356 3278 1631 3431 
Q 1906 3584 2284 3584 
Q 2666 3584 2933 3390 
Q 3200 3197 3328 2828 
z
" transform="scale(0.015625)"/>
       <path id="DejaVuSans-75" d="M 544 1381 
L 544 3500 
L 1119 3500 
L 1119 1403 
Q 1119 906 1312 657 
Q 1506 409 1894 409 
Q 2359 409 2629 706 
Q 2900 1003 2900 1516 
L 2900 3500 
L 3475 3500 
L 3475 0 
L 2900 0 
L 2900 538 
Q 2691 219 2414 64 
Q 2138 -91 1772 -91 
Q 1169 -91 856 284 
Q 544 659 544 1381 
z
M 1991 3584 
L 1991 3584 
z
" transform="scale(0.015625)"/>
      </defs>
      <use xlink:href="#DejaVuSans-50"/>
      <use xlink:href="#DejaVuSans-72" x="58.552734"/>
      <use xlink:href="#DejaVuSans-69" x="99.666016"/>
      <use xlink:href="#DejaVuSans-6d" x="127.449219"/>
      <use xlink:href="#DejaVuSans-61" x="224.861328"/>
      <use xlink:href="#DejaVuSans-72" x="286.140625"/>
      <use xlink:href="#DejaVuSans-79" x="327.253906"/>
      <use xlink:href="#DejaVuSans-20" x="386.433594"/>
      <use xlink:href="#DejaVuSans-72" x="418.220703"/>
      <use xlink:href="#DejaVuSans-65" x="457.083984"/>
      <use xlink:href="#DejaVuSans-61" x="518.607422"/>
      <use xlink:href="#DejaVuSans-64" x="579.886719"/>
      <use xlink:href="#DejaVuSans-6f" x="643.363281"/>
      <use xlink:href="#DejaVuSans-75" x="704.544922"/>
      <use xlink:href="#DejaVuSans-74" x="767.923828"/>
     </g>
    </g>
   </g>
   <g id="PolyCollection_1">
    <defs>
     <path id="m5828a433c9" d="M 154.769797 -485.175935 
L 130.753033 -485.175935 
L 130.139385 -485.731536 
L 129.515551 -486.287138 
L 128.882111 -486.84274 
L 128.239659 -487.398342 
L 127.588829 -487.953944 
L 126.930305 -488.509546 
L 126.264849 -489.065148 
L 125.593318 -489.620749 
L 124.916682 -490.176351 
L 124.236048 -490.731953 
L 123.552673 -491.287555 
L 122.867981 -491.843157 
L 122.183569 -492.398759 
L 121.501219 -492.954361 
L 120.822891 -493.509963 
L 120.150725 -494.065564 
L 119.487025 -494.621166 
L 118.834248 -495.176768 
L 118.194978 -495.73237 
L 117.571898 -496.287972 
L 116.967763 -496.843574 
L 116.38536 -497.399176 
L 115.82747 -497.954777 
L 115.296828 -498.510379 
L 114.796076 -499.065981 
L 114.327726 -499.621583 
L 113.894117 -500.177185 
L 113.497373 -500.732787 
L 113.13937 -501.288389 
L 112.821702 -501.843991 
L 112.545653 -502.399592 
L 112.312181 -502.955194 
L 112.121895 -503.510796 
L 111.97505 -504.066398 
L 111.871545 -504.622 
L 111.810922 -505.177602 
L 111.792384 -505.733204 
L 111.814802 -506.288806 
L 111.876742 -506.844407 
L 111.976487 -507.400009 
L 112.11207 -507.955611 
L 112.281304 -508.511213 
L 112.481819 -509.066815 
L 112.711097 -509.622417 
L 112.966513 -510.178019 
L 113.245368 -510.73362 
L 113.54493 -511.289222 
L 113.86247 -511.844824 
L 114.195294 -512.400426 
L 114.540776 -512.956028 
L 114.896393 -513.51163 
L 115.259745 -514.067232 
L 115.628585 -514.622834 
L 116.000841 -515.178435 
L 116.37463 -515.734037 
L 116.748281 -516.289639 
L 117.120342 -516.845241 
L 117.489591 -517.400843 
L 117.855044 -517.956445 
L 118.215958 -518.512047 
L 118.571827 -519.067648 
L 118.922384 -519.62325 
L 119.267592 -520.178852 
L 119.607634 -520.734454 
L 119.942898 -521.290056 
L 120.273966 -521.845658 
L 120.601588 -522.40126 
L 120.926664 -522.956862 
L 121.250219 -523.512463 
L 121.573374 -524.068065 
L 121.897321 -524.623667 
L 122.223289 -525.179269 
L 122.552518 -525.734871 
L 122.886227 -526.290473 
L 123.225585 -526.846075 
L 123.571681 -527.401677 
L 123.925504 -527.957278 
L 124.287912 -528.51288 
L 124.659621 -529.068482 
L 125.041182 -529.624084 
L 125.432971 -530.179686 
L 125.835183 -530.735288 
L 126.247828 -531.29089 
L 126.670729 -531.846491 
L 127.103532 -532.402093 
L 127.545709 -532.957695 
L 127.996576 -533.513297 
L 128.455302 -534.068899 
L 128.920932 -534.624501 
L 129.3924 -535.180103 
L 129.868554 -535.735705 
L 130.348173 -536.291306 
L 130.829988 -536.846908 
L 131.312702 -537.40251 
L 131.795007 -537.958112 
L 132.275602 -538.513714 
L 132.753205 -539.069316 
L 133.226572 -539.624918 
L 133.694502 -540.180519 
L 151.828328 -540.180519 
L 151.828328 -540.180519 
L 152.296258 -539.624918 
L 152.769625 -539.069316 
L 153.247229 -538.513714 
L 153.727823 -537.958112 
L 154.210128 -537.40251 
L 154.692842 -536.846908 
L 155.174657 -536.291306 
L 155.654276 -535.735705 
L 156.13043 -535.180103 
L 156.601899 -534.624501 
L 157.067528 -534.068899 
L 157.526254 -533.513297 
L 157.977121 -532.957695 
L 158.419298 -532.402093 
L 158.852101 -531.846491 
L 159.275003 -531.29089 
L 159.687647 -530.735288 
L 160.08986 -530.179686 
L 160.481649 -529.624084 
L 160.863209 -529.068482 
L 161.234918 -528.51288 
L 161.597327 -527.957278 
L 161.951149 -527.401677 
L 162.297246 -526.846075 
L 162.636603 -526.290473 
L 162.970312 -525.734871 
L 163.299542 -525.179269 
L 163.62551 -524.623667 
L 163.949456 -524.068065 
L 164.272612 -523.512463 
L 164.596166 -522.956862 
L 164.921242 -522.40126 
L 165.248864 -521.845658 
L 165.579932 -521.290056 
L 165.915197 -520.734454 
L 166.255238 -520.178852 
L 166.600446 -519.62325 
L 166.951004 -519.067648 
L 167.306873 -518.512047 
L 167.667786 -517.956445 
L 168.033239 -517.400843 
L 168.402488 -516.845241 
L 168.774549 -516.289639 
L 169.1482 -515.734037 
L 169.52199 -515.178435 
L 169.894245 -514.622834 
L 170.263086 -514.067232 
L 170.626438 -513.51163 
L 170.982054 -512.956028 
L 171.327537 -512.400426 
L 171.66036 -511.844824 
L 171.9779 -511.289222 
L 172.277462 -510.73362 
L 172.556317 -510.178019 
L 172.811733 -509.622417 
L 173.041012 -509.066815 
L 173.241527 -508.511213 
L 173.410761 -507.955611 
L 173.546344 -507.400009 
L 173.646089 -506.844407 
L 173.708028 -506.288806 
L 173.730446 -505.733204 
L 173.711908 -505.177602 
L 173.651286 -504.622 
L 173.54778 -504.066398 
L 173.400935 -503.510796 
L 173.210649 -502.955194 
L 172.977177 -502.399592 
L 172.701129 -501.843991 
L 172.38346 -501.288389 
L 172.025457 -500.732787 
L 171.628713 -500.177185 
L 171.195104 -499.621583 
L 170.726755 -499.065981 
L 170.226003 -498.510379 
L 169.69536 -497.954777 
L 169.13747 -497.399176 
L 168.555067 -496.843574 
L 167.950932 -496.287972 
L 167.327853 -495.73237 
L 166.688582 -495.176768 
L 166.035805 -494.621166 
L 165.372106 -494.065564 
L 164.699939 -493.509963 
L 164.021611 -492.954361 
L 163.339261 -492.398759 
L 162.654849 -491.843157 
L 161.970157 -491.287555 
L 161.286782 -490.731953 
L 160.606148 -490.176351 
L 159.929512 -489.620749 
L 159.257981 -489.065148 
L 158.592525 -488.509546 
L 157.934002 -487.953944 
L 157.283171 -487.398342 
L 156.640719 -486.84274 
L 156.007279 -486.287138 
L 155.383446 -485.731536 
L 154.769797 -485.175935 
z
" style="stroke: #000000; stroke-opacity: 0.8"/>
    </defs>
    <g clip-path="url(#p66db247fc1)">
     <use xlink:href="#m5828a433c9" x="0" y="662.156" style="fill: #6495ed; fill-opacity: 0.8; stroke: #000000; stroke-opacity: 0.8"/>
    </g>
   </g>
   <g id="PolyCollection_2">
    <defs>
     <path id="mb162390c66" d="M 271.368 -405.124619 
L 261.907078 -405.124619 
L 261.732091 -406.48882 
L 261.567165 -407.853021 
L 261.412655 -409.217222 
L 261.268628 -410.581423 
L 261.134853 -411.945624 
L 261.010781 -413.309825 
L 260.895537 -414.674026 
L 260.787914 -416.038227 
L 260.686372 -417.402428 
L 260.589036 -418.766629 
L 260.493698 -420.13083 
L 260.397831 -421.495031 
L 260.298592 -422.859232 
L 260.192837 -424.223433 
L 260.077142 -425.587634 
L 259.947824 -426.951835 
L 259.800966 -428.316036 
L 259.632457 -429.680237 
L 259.438029 -431.044438 
L 259.21331 -432.408639 
L 258.953882 -433.77284 
L 258.655355 -435.137041 
L 258.313444 -436.501242 
L 257.924061 -437.865443 
L 257.48342 -439.229644 
L 256.988145 -440.593845 
L 256.435392 -441.958046 
L 255.822971 -443.322247 
L 255.149471 -444.686448 
L 254.414389 -446.050649 
L 253.618245 -447.41485 
L 252.762691 -448.779051 
L 251.850602 -450.143252 
L 250.886147 -451.507453 
L 249.874836 -452.871654 
L 248.823529 -454.235855 
L 247.740421 -455.600056 
L 246.634979 -456.964257 
L 245.517848 -458.328458 
L 244.400711 -459.69266 
L 243.296118 -461.056861 
L 242.217269 -462.421062 
L 241.177776 -463.785263 
L 240.19139 -465.149464 
L 239.271716 -466.513665 
L 238.431911 -467.877866 
L 237.684384 -469.242067 
L 237.040505 -470.606268 
L 236.510325 -471.970469 
L 236.102327 -473.33467 
L 235.82321 -474.698871 
L 235.677717 -476.063072 
L 235.668508 -477.427273 
L 235.796089 -478.791474 
L 236.058794 -480.155675 
L 236.452828 -481.519876 
L 236.972358 -482.884077 
L 237.60966 -484.248278 
L 238.355317 -485.612479 
L 239.198446 -486.97668 
L 240.126971 -488.340881 
L 241.127906 -489.705082 
L 242.187663 -491.069283 
L 243.292358 -492.433484 
L 244.428114 -493.797685 
L 245.581348 -495.161886 
L 246.739039 -496.526087 
L 247.888964 -497.890288 
L 249.019896 -499.254489 
L 250.121773 -500.61869 
L 251.185815 -501.982891 
L 252.204605 -503.347092 
L 253.172127 -504.711293 
L 254.08377 -506.075494 
L 254.936285 -507.439695 
L 255.727725 -508.803896 
L 256.45735 -510.168097 
L 257.125516 -511.532298 
L 257.733548 -512.896499 
L 258.283602 -514.2607 
L 258.77853 -515.624901 
L 259.221738 -516.989102 
L 259.617057 -518.353303 
L 259.968612 -519.717504 
L 260.280714 -521.081705 
L 260.55775 -522.445906 
L 260.804101 -523.810107 
L 261.024056 -525.174308 
L 261.221756 -526.538509 
L 261.401132 -527.90271 
L 261.56587 -529.266911 
L 261.719371 -530.631112 
L 261.864727 -531.995313 
L 262.004707 -533.359514 
L 262.141737 -534.723715 
L 262.277898 -536.087916 
L 262.414922 -537.452117 
L 262.554194 -538.816318 
L 262.696759 -540.180519 
L 270.578319 -540.180519 
L 270.578319 -540.180519 
L 270.720884 -538.816318 
L 270.860156 -537.452117 
L 270.99718 -536.087916 
L 271.133341 -534.723715 
L 271.270371 -533.359514 
L 271.410351 -531.995313 
L 271.555707 -530.631112 
L 271.709208 -529.266911 
L 271.873946 -527.90271 
L 272.053322 -526.538509 
L 272.251022 -525.174308 
L 272.470977 -523.810107 
L 272.717328 -522.445906 
L 272.994364 -521.081705 
L 273.306466 -519.717504 
L 273.658021 -518.353303 
L 274.05334 -516.989102 
L 274.496548 -515.624901 
L 274.991476 -514.2607 
L 275.54153 -512.896499 
L 276.149562 -511.532298 
L 276.817728 -510.168097 
L 277.547353 -508.803896 
L 278.338793 -507.439695 
L 279.191308 -506.075494 
L 280.102951 -504.711293 
L 281.070473 -503.347092 
L 282.089263 -501.982891 
L 283.153305 -500.61869 
L 284.255182 -499.254489 
L 285.386114 -497.890288 
L 286.536039 -496.526087 
L 287.69373 -495.161886 
L 288.846965 -493.797685 
L 289.98272 -492.433484 
L 291.087415 -491.069283 
L 292.147172 -489.705082 
L 293.148107 -488.340881 
L 294.076632 -486.97668 
L 294.919761 -485.612479 
L 295.665418 -484.248278 
L 296.30272 -482.884077 
L 296.82225 -481.519876 
L 297.216284 -480.155675 
L 297.478989 -478.791474 
L 297.60657 -477.427273 
L 297.597361 -476.063072 
L 297.451868 -474.698871 
L 297.172752 -473.33467 
L 296.764753 -471.970469 
L 296.234573 -470.606268 
L 295.590694 -469.242067 
L 294.843167 -467.877866 
L 294.003362 -466.513665 
L 293.083688 -465.149464 
L 292.097302 -463.785263 
L 291.057809 -462.421062 
L 289.97896 -461.056861 
L 288.874367 -459.69266 
L 287.75723 -458.328458 
L 286.640099 -456.964257 
L 285.534657 -455.600056 
L 284.451549 -454.235855 
L 283.400242 -452.871654 
L 282.388931 -451.507453 
L 281.424476 -450.143252 
L 280.512387 -448.779051 
L 279.656833 -447.41485 
L 278.860689 -446.050649 
L 278.125607 -444.686448 
L 277.452107 -443.322247 
L 276.839686 -441.958046 
L 276.286933 -440.593845 
L 275.791658 -439.229644 
L 275.351017 -437.865443 
L 274.961635 -436.501242 
L 274.619723 -435.137041 
L 274.321196 -433.77284 
L 274.061768 -432.408639 
L 273.837049 -431.044438 
L 273.642621 -429.680237 
L 273.474112 -428.316036 
L 273.327254 -426.951835 
L 273.197936 -425.587634 
L 273.082241 -424.223433 
L 272.976486 -422.859232 
L 272.877247 -421.495031 
L 272.78138 -420.13083 
L 272.686042 -418.766629 
L 272.588706 -417.402428 
L 272.487164 -416.038227 
L 272.379541 -414.674026 
L 272.264297 -413.309825 
L 272.140225 -411.945624 
L 272.00645 -410.581423 
L 271.862423 -409.217222 
L 271.707913 -407.853021 
L 271.542987 -406.48882 
L 271.368 -405.124619 
z
" style="stroke: #000000; stroke-opacity: 0.8"/>
    </defs>
    <g clip-path="url(#p66db247fc1)">
     <use xlink:href="#mb162390c66" x="0" y="662.156" style="fill: #cd5c5c; fill-opacity: 0.8; stroke: #000000; stroke-opacity: 0.8"/>
    </g>
   </g>
   <g id="PolyCollection_3">
    <defs>
     <path id="me239fc4d63" d="M 399.114845 -241.881635 
L 381.91248 -241.881635 
L 381.6989 -244.618969 
L 381.490057 -247.356302 
L 381.284221 -250.093636 
L 381.079391 -252.830969 
L 380.873329 -255.568303 
L 380.663597 -258.305637 
L 380.447608 -261.04297 
L 380.222675 -263.780304 
L 379.986069 -266.517637 
L 379.73508 -269.254971 
L 379.467075 -271.992304 
L 379.179564 -274.729638 
L 378.870258 -277.466971 
L 378.537124 -280.204305 
L 378.178442 -282.941638 
L 377.792848 -285.678972 
L 377.379376 -288.416306 
L 376.937485 -291.153639 
L 376.467087 -293.890973 
L 375.968557 -296.628306 
L 375.442732 -299.36564 
L 374.890909 -302.102973 
L 374.31482 -304.840307 
L 373.716613 -307.57764 
L 373.098808 -310.314974 
L 372.464257 -313.052308 
L 371.816093 -315.789641 
L 371.157673 -318.526975 
L 370.492519 -321.264308 
L 369.824256 -324.001642 
L 369.156551 -326.738975 
L 368.493049 -329.476309 
L 367.837316 -332.213642 
L 367.192786 -334.950976 
L 366.562706 -337.688309 
L 365.950103 -340.425643 
L 365.357738 -343.162977 
L 364.788087 -345.90031 
L 364.243317 -348.637644 
L 363.725276 -351.374977 
L 363.235496 -354.112311 
L 362.77519 -356.849644 
L 362.345274 -359.586978 
L 361.946379 -362.324311 
L 361.578883 -365.061645 
L 361.242935 -367.798979 
L 360.93849 -370.536312 
L 360.665343 -373.273646 
L 360.423165 -376.010979 
L 360.211536 -378.748313 
L 360.029976 -381.485646 
L 359.87798 -384.22298 
L 359.755039 -386.960313 
L 359.660662 -389.697647 
L 359.594396 -392.43498 
L 359.555837 -395.172314 
L 359.544632 -397.909648 
L 359.560486 -400.646981 
L 359.603157 -403.384315 
L 359.672445 -406.121648 
L 359.768186 -408.858982 
L 359.890232 -411.596315 
L 360.03844 -414.333649 
L 360.212652 -417.070982 
L 360.412674 -419.808316 
L 360.638265 -422.545649 
L 360.889117 -425.282983 
L 361.16484 -428.020317 
L 361.464955 -430.75765 
L 361.788881 -433.494984 
L 362.135935 -436.232317 
L 362.505327 -438.969651 
L 362.896166 -441.706984 
L 363.307465 -444.444318 
L 363.738151 -447.181651 
L 364.187077 -449.918985 
L 364.653036 -452.656319 
L 365.134779 -455.393652 
L 365.631034 -458.130986 
L 366.140519 -460.868319 
L 366.661966 -463.605653 
L 367.194131 -466.342986 
L 367.735813 -469.08032 
L 368.285869 -471.817653 
L 368.843216 -474.554987 
L 369.406847 -477.29232 
L 369.975828 -480.029654 
L 370.549305 -482.766988 
L 371.126494 -485.504321 
L 371.706684 -488.241655 
L 372.289219 -490.978988 
L 372.873498 -493.716322 
L 373.458952 -496.453655 
L 374.04504 -499.190989 
L 374.631228 -501.928322 
L 375.216976 -504.665656 
L 375.801727 -507.402989 
L 376.384893 -510.140323 
L 376.965842 -512.877657 
L 404.061484 -512.877657 
L 404.061484 -512.877657 
L 404.642433 -510.140323 
L 405.225598 -507.402989 
L 405.81035 -504.665656 
L 406.396098 -501.928322 
L 406.982286 -499.190989 
L 407.568374 -496.453655 
L 408.153828 -493.716322 
L 408.738107 -490.978988 
L 409.320642 -488.241655 
L 409.900831 -485.504321 
L 410.478021 -482.766988 
L 411.051497 -480.029654 
L 411.620479 -477.29232 
L 412.18411 -474.554987 
L 412.741457 -471.817653 
L 413.291512 -469.08032 
L 413.833195 -466.342986 
L 414.36536 -463.605653 
L 414.886806 -460.868319 
L 415.396292 -458.130986 
L 415.892547 -455.393652 
L 416.37429 -452.656319 
L 416.840249 -449.918985 
L 417.289175 -447.181651 
L 417.719861 -444.444318 
L 418.13116 -441.706984 
L 418.521999 -438.969651 
L 418.891391 -436.232317 
L 419.238445 -433.494984 
L 419.562371 -430.75765 
L 419.862485 -428.020317 
L 420.138209 -425.282983 
L 420.38906 -422.545649 
L 420.614652 -419.808316 
L 420.814674 -417.070982 
L 420.988885 -414.333649 
L 421.137094 -411.596315 
L 421.25914 -408.858982 
L 421.354881 -406.121648 
L 421.424169 -403.384315 
L 421.466839 -400.646981 
L 421.482694 -397.909648 
L 421.471489 -395.172314 
L 421.43293 -392.43498 
L 421.366664 -389.697647 
L 421.272287 -386.960313 
L 421.149346 -384.22298 
L 420.99735 -381.485646 
L 420.81579 -378.748313 
L 420.604161 -376.010979 
L 420.361983 -373.273646 
L 420.088836 -370.536312 
L 419.784391 -367.798979 
L 419.448443 -365.061645 
L 419.080947 -362.324311 
L 418.682052 -359.586978 
L 418.252136 -356.849644 
L 417.79183 -354.112311 
L 417.302049 -351.374977 
L 416.784009 -348.637644 
L 416.239239 -345.90031 
L 415.669588 -343.162977 
L 415.077223 -340.425643 
L 414.464619 -337.688309 
L 413.83454 -334.950976 
L 413.190009 -332.213642 
L 412.534277 -329.476309 
L 411.870774 -326.738975 
L 411.203069 -324.001642 
L 410.534807 -321.264308 
L 409.869653 -318.526975 
L 409.211233 -315.789641 
L 408.563069 -313.052308 
L 407.928518 -310.314974 
L 407.310713 -307.57764 
L 406.712506 -304.840307 
L 406.136417 -302.102973 
L 405.584594 -299.36564 
L 405.058769 -296.628306 
L 404.560239 -293.890973 
L 404.089841 -291.153639 
L 403.64795 -288.416306 
L 403.234477 -285.678972 
L 402.848883 -282.941638 
L 402.490201 -280.204305 
L 402.157068 -277.466971 
L 401.847762 -274.729638 
L 401.560251 -271.992304 
L 401.292246 -269.254971 
L 401.041256 -266.517637 
L 400.80465 -263.780304 
L 400.579717 -261.04297 
L 400.363728 -258.305637 
L 400.153997 -255.568303 
L 399.947935 -252.830969 
L 399.743105 -250.093636 
L 399.537269 -247.356302 
L 399.328425 -244.618969 
L 399.114845 -241.881635 
z
" style="stroke: #000000; stroke-opacity: 0.8"/>
    </defs>
    <g clip-path="url(#p66db247fc1)">
     <use xlink:href="#me239fc4d63" x="0" y="662.156" style="fill: #c0c0c0; fill-opacity: 0.8; stroke: #000000; stroke-opacity: 0.8"/>
    </g>
   </g>
   <g id="PolyCollection_4">
    <defs>
     <path id="m3114f7086b" d="M 517.289387 -270.316997 
L 511.490186 -270.316997 
L 511.461006 -272.903749 
L 511.438784 -275.490501 
L 511.422877 -278.077253 
L 511.412492 -280.664004 
L 511.406698 -283.250756 
L 511.404443 -285.837508 
L 511.404575 -288.424259 
L 511.405867 -291.011011 
L 511.407032 -293.597763 
L 511.406759 -296.184515 
L 511.403732 -298.771266 
L 511.396659 -301.358018 
L 511.384295 -303.94477 
L 511.365467 -306.531521 
L 511.339095 -309.118273 
L 511.304208 -311.705025 
L 511.259964 -314.291777 
L 511.205657 -316.878528 
L 511.140728 -319.46528 
L 511.064768 -322.052032 
L 510.977519 -324.638783 
L 510.87887 -327.225535 
L 510.768851 -329.812287 
L 510.64762 -332.399038 
L 510.515453 -334.98579 
L 510.372726 -337.572542 
L 510.219899 -340.159294 
L 510.057498 -342.746045 
L 509.886093 -345.332797 
L 509.706281 -347.919549 
L 509.518666 -350.5063 
L 509.323837 -353.093052 
L 509.122357 -355.679804 
L 508.914739 -358.266556 
L 508.701437 -360.853307 
L 508.482831 -363.440059 
L 508.259218 -366.026811 
L 508.030797 -368.613562 
L 507.797669 -371.200314 
L 507.559827 -373.787066 
L 507.31715 -376.373817 
L 507.069404 -378.960569 
L 506.816239 -381.547321 
L 506.557183 -384.134073 
L 506.29165 -386.720824 
L 506.018934 -389.307576 
L 505.738216 -391.894328 
L 505.44856 -394.481079 
L 505.148925 -397.067831 
L 504.838165 -399.654583 
L 504.515037 -402.241335 
L 504.178213 -404.828086 
L 503.826292 -407.414838 
L 503.457812 -410.00159 
L 503.071277 -412.588341 
L 502.665173 -415.175093 
L 502.237999 -417.761845 
L 501.788302 -420.348597 
L 501.314708 -422.935348 
L 500.815969 -425.5221 
L 500.291007 -428.108852 
L 499.738961 -430.695603 
L 499.159238 -433.282355 
L 498.551571 -435.869107 
L 497.916066 -438.455858 
L 497.253259 -441.04261 
L 496.564161 -443.629362 
L 495.850305 -446.216114 
L 495.113786 -448.802865 
L 494.357286 -451.389617 
L 493.584098 -453.976369 
L 492.798133 -456.56312 
L 492.003919 -459.149872 
L 491.206578 -461.736624 
L 490.411794 -464.323376 
L 489.625771 -466.910127 
L 488.855159 -469.496879 
L 488.106988 -472.083631 
L 487.388567 -474.670382 
L 486.707385 -477.257134 
L 486.070996 -479.843886 
L 485.486898 -482.430638 
L 484.962401 -485.017389 
L 484.504502 -487.604141 
L 484.11975 -490.190893 
L 483.814124 -492.777644 
L 483.592909 -495.364396 
L 483.46059 -497.951148 
L 483.420756 -500.537899 
L 483.476013 -503.124651 
L 483.627926 -505.711403 
L 483.876975 -508.298155 
L 484.22253 -510.884906 
L 484.66285 -513.471658 
L 485.195103 -516.05841 
L 485.815413 -518.645161 
L 486.518914 -521.231913 
L 487.299838 -523.818665 
L 488.151609 -526.405417 
L 540.627964 -526.405417 
L 540.627964 -526.405417 
L 541.479736 -523.818665 
L 542.26066 -521.231913 
L 542.964161 -518.645161 
L 543.58447 -516.05841 
L 544.116724 -513.471658 
L 544.557043 -510.884906 
L 544.902598 -508.298155 
L 545.151647 -505.711403 
L 545.303561 -503.124651 
L 545.358818 -500.537899 
L 545.318983 -497.951148 
L 545.186665 -495.364396 
L 544.96545 -492.777644 
L 544.659823 -490.190893 
L 544.275072 -487.604141 
L 543.817172 -485.017389 
L 543.292675 -482.430638 
L 542.708577 -479.843886 
L 542.072189 -477.257134 
L 541.391007 -474.670382 
L 540.672586 -472.083631 
L 539.924414 -469.496879 
L 539.153803 -466.910127 
L 538.367779 -464.323376 
L 537.572996 -461.736624 
L 536.775654 -459.149872 
L 535.98144 -456.56312 
L 535.195476 -453.976369 
L 534.422288 -451.389617 
L 533.665788 -448.802865 
L 532.929268 -446.216114 
L 532.215413 -443.629362 
L 531.526315 -441.04261 
L 530.863508 -438.455858 
L 530.228003 -435.869107 
L 529.620336 -433.282355 
L 529.040613 -430.695603 
L 528.488566 -428.108852 
L 527.963604 -425.5221 
L 527.464866 -422.935348 
L 526.991272 -420.348597 
L 526.541574 -417.761845 
L 526.114401 -415.175093 
L 525.708296 -412.588341 
L 525.321761 -410.00159 
L 524.953282 -407.414838 
L 524.60136 -404.828086 
L 524.264537 -402.241335 
L 523.941409 -399.654583 
L 523.630648 -397.067831 
L 523.331013 -394.481079 
L 523.041358 -391.894328 
L 522.760639 -389.307576 
L 522.487924 -386.720824 
L 522.222391 -384.134073 
L 521.963335 -381.547321 
L 521.710169 -378.960569 
L 521.462424 -376.373817 
L 521.219747 -373.787066 
L 520.981904 -371.200314 
L 520.748776 -368.613562 
L 520.520356 -366.026811 
L 520.296742 -363.440059 
L 520.078137 -360.853307 
L 519.864835 -358.266556 
L 519.657217 -355.679804 
L 519.455736 -353.093052 
L 519.260908 -350.5063 
L 519.073292 -347.919549 
L 518.893481 -345.332797 
L 518.722076 -342.746045 
L 518.559675 -340.159294 
L 518.406848 -337.572542 
L 518.264121 -334.98579 
L 518.131953 -332.399038 
L 518.010722 -329.812287 
L 517.900703 -327.225535 
L 517.802055 -324.638783 
L 517.714806 -322.052032 
L 517.638846 -319.46528 
L 517.573917 -316.878528 
L 517.51961 -314.291777 
L 517.475365 -311.705025 
L 517.440479 -309.118273 
L 517.414106 -306.531521 
L 517.395279 -303.94477 
L 517.382915 -301.358018 
L 517.375842 -298.771266 
L 517.372815 -296.184515 
L 517.372542 -293.597763 
L 517.373707 -291.011011 
L 517.374998 -288.424259 
L 517.375131 -285.837508 
L 517.372876 -283.250756 
L 517.367082 -280.664004 
L 517.356696 -278.077253 
L 517.34079 -275.490501 
L 517.318568 -272.903749 
L 517.289387 -270.316997 
z
" style="stroke: #000000; stroke-opacity: 0.8"/>
    </defs>
    <g clip-path="url(#p66db247fc1)">
     <use xlink:href="#m3114f7086b" x="0" y="662.156" style="fill: #808080; fill-opacity: 0.8; stroke: #000000; stroke-opacity: 0.8"/>
    </g>
   </g>
   <g id="PathCollection_1">
    <defs>
     <path id="m2043d2da87" d="M -0 9.354143 
L 9.354143 0 
L 0 -9.354143 
L -9.354143 -0 
z
" style="stroke: #000000"/>
    </defs>
    <g clip-path="url(#p66db247fc1)">
     <use xlink:href="#m2043d2da87" x="142.761415" y="153.527392" style="fill: #ffffff; stroke: #000000"/>
     <use xlink:href="#m2043d2da87" x="266.637539" y="185.325241" style="fill: #ffffff; stroke: #000000"/>
     <use xlink:href="#m2043d2da87" x="390.513663" y="271.994961" style="fill: #ffffff; stroke: #000000"/>
     <use xlink:href="#m2043d2da87" x="514.389787" y="170.904373" style="fill: #ffffff; stroke: #000000"/>
    </g>
   </g>
  </g>
  <g id="axes_2">
   <g id="patch_12">
    <path d="M 729.190986 651.456 
L 1206.114063 651.456 
L 1206.114063 107.856 
L 729.190986 107.856 
z
" style="fill: #ffffff"/>
   </g>
   <g id="matplotlib.axis_3"/>
   <g id="matplotlib.axis_4">
    <g id="ytick_9">
     <g id="line2d_17">
      <path d="M 729.190986 616.157299 
L 1206.114063 616.157299 
" clip-path="url(#p2857150858)" style="fill: none; stroke: #b0b0b0; stroke-opacity: 0.5; stroke-width: 0.8; stroke-linecap: square"/>
     </g>
     <g id="line2d_18">
      <g>
       <use xlink:href="#m6cd2221c52" x="729.190986" y="616.157299" style="stroke: #000000; stroke-width: 0.8"/>
      </g>
     </g>
     <g id="text_15">
      <!-- 30 -->
      <g transform="translate(690.378486 625.655346)scale(0.25 -0.25)">
       <use xlink:href="#DejaVuSans-33"/>
       <use xlink:href="#DejaVuSans-30" x="63.623047"/>
      </g>
     </g>
    </g>
    <g id="ytick_10">
     <g id="line2d_19">
      <path d="M 729.190986 545.559896 
L 1206.114063 545.559896 
" clip-path="url(#p2857150858)" style="fill: none; stroke: #b0b0b0; stroke-opacity: 0.5; stroke-width: 0.8; stroke-linecap: square"/>
     </g>
     <g id="line2d_20">
      <g>
       <use xlink:href="#m6cd2221c52" x="729.190986" y="545.559896" style="stroke: #000000; stroke-width: 0.8"/>
      </g>
     </g>
     <g id="text_16">
      <!-- 40 -->
      <g transform="translate(690.378486 555.057943)scale(0.25 -0.25)">
       <use xlink:href="#DejaVuSans-34"/>
       <use xlink:href="#DejaVuSans-30" x="63.623047"/>
      </g>
     </g>
    </g>
    <g id="ytick_11">
     <g id="line2d_21">
      <path d="M 729.190986 474.962494 
L 1206.114063 474.962494 
" clip-path="url(#p2857150858)" style="fill: none; stroke: #b0b0b0; stroke-opacity: 0.5; stroke-width: 0.8; stroke-linecap: square"/>
     </g>
     <g id="line2d_22">
      <g>
       <use xlink:href="#m6cd2221c52" x="729.190986" y="474.962494" style="stroke: #000000; stroke-width: 0.8"/>
      </g>
     </g>
     <g id="text_17">
      <!-- 50 -->
      <g transform="translate(690.378486 484.46054)scale(0.25 -0.25)">
       <use xlink:href="#DejaVuSans-35"/>
       <use xlink:href="#DejaVuSans-30" x="63.623047"/>
      </g>
     </g>
    </g>
    <g id="ytick_12">
     <g id="line2d_23">
      <path d="M 729.190986 404.365091 
L 1206.114063 404.365091 
" clip-path="url(#p2857150858)" style="fill: none; stroke: #b0b0b0; stroke-opacity: 0.5; stroke-width: 0.8; stroke-linecap: square"/>
     </g>
     <g id="line2d_24">
      <g>
       <use xlink:href="#m6cd2221c52" x="729.190986" y="404.365091" style="stroke: #000000; stroke-width: 0.8"/>
      </g>
     </g>
     <g id="text_18">
      <!-- 60 -->
      <g transform="translate(690.378486 413.863138)scale(0.25 -0.25)">
       <use xlink:href="#DejaVuSans-36"/>
       <use xlink:href="#DejaVuSans-30" x="63.623047"/>
      </g>
     </g>
    </g>
    <g id="ytick_13">
     <g id="line2d_25">
      <path d="M 729.190986 333.767688 
L 1206.114063 333.767688 
" clip-path="url(#p2857150858)" style="fill: none; stroke: #b0b0b0; stroke-opacity: 0.5; stroke-width: 0.8; stroke-linecap: square"/>
     </g>
     <g id="line2d_26">
      <g>
       <use xlink:href="#m6cd2221c52" x="729.190986" y="333.767688" style="stroke: #000000; stroke-width: 0.8"/>
      </g>
     </g>
     <g id="text_19">
      <!-- 70 -->
      <g transform="translate(690.378486 343.265735)scale(0.25 -0.25)">
       <use xlink:href="#DejaVuSans-37"/>
       <use xlink:href="#DejaVuSans-30" x="63.623047"/>
      </g>
     </g>
    </g>
    <g id="ytick_14">
     <g id="line2d_27">
      <path d="M 729.190986 263.170286 
L 1206.114063 263.170286 
" clip-path="url(#p2857150858)" style="fill: none; stroke: #b0b0b0; stroke-opacity: 0.5; stroke-width: 0.8; stroke-linecap: square"/>
     </g>
     <g id="line2d_28">
      <g>
       <use xlink:href="#m6cd2221c52" x="729.190986" y="263.170286" style="stroke: #000000; stroke-width: 0.8"/>
      </g>
     </g>
     <g id="text_20">
      <!-- 80 -->
      <g transform="translate(690.378486 272.668333)scale(0.25 -0.25)">
       <use xlink:href="#DejaVuSans-38"/>
       <use xlink:href="#DejaVuSans-30" x="63.623047"/>
      </g>
     </g>
    </g>
    <g id="ytick_15">
     <g id="line2d_29">
      <path d="M 729.190986 192.572883 
L 1206.114063 192.572883 
" clip-path="url(#p2857150858)" style="fill: none; stroke: #b0b0b0; stroke-opacity: 0.5; stroke-width: 0.8; stroke-linecap: square"/>
     </g>
     <g id="line2d_30">
      <g>
       <use xlink:href="#m6cd2221c52" x="729.190986" y="192.572883" style="stroke: #000000; stroke-width: 0.8"/>
      </g>
     </g>
     <g id="text_21">
      <!-- 90 -->
      <g transform="translate(690.378486 202.07093)scale(0.25 -0.25)">
       <use xlink:href="#DejaVuSans-39"/>
       <use xlink:href="#DejaVuSans-30" x="63.623047"/>
      </g>
     </g>
    </g>
    <g id="ytick_16">
     <g id="line2d_31">
      <path d="M 729.190986 121.975481 
L 1206.114063 121.975481 
" clip-path="url(#p2857150858)" style="fill: none; stroke: #b0b0b0; stroke-opacity: 0.5; stroke-width: 0.8; stroke-linecap: square"/>
     </g>
     <g id="line2d_32">
      <g>
       <use xlink:href="#m6cd2221c52" x="729.190986" y="121.975481" style="stroke: #000000; stroke-width: 0.8"/>
      </g>
     </g>
     <g id="text_22">
      <!-- 100 -->
      <g transform="translate(674.472236 131.473527)scale(0.25 -0.25)">
       <use xlink:href="#DejaVuSans-31"/>
       <use xlink:href="#DejaVuSans-30" x="63.623047"/>
       <use xlink:href="#DejaVuSans-30" x="127.246094"/>
      </g>
     </g>
    </g>
    <g id="text_23">
     <!-- TP Scaffold diversity % -->
     <g transform="translate(665.273017 522.868891)rotate(-90)scale(0.25 -0.25)">
      <defs>
       <path id="DejaVuSans-54" d="M -19 4666 
L 3928 4666 
L 3928 4134 
L 2272 4134 
L 2272 0 
L 1638 0 
L 1638 4134 
L -19 4134 
L -19 4666 
z
" transform="scale(0.015625)"/>
      </defs>
      <use xlink:href="#DejaVuSans-54"/>
      <use xlink:href="#DejaVuSans-50" x="61.083984"/>
      <use xlink:href="#DejaVuSans-20" x="121.386719"/>
      <use xlink:href="#DejaVuSans-53" x="153.173828"/>
      <use xlink:href="#DejaVuSans-63" x="216.650391"/>
      <use xlink:href="#DejaVuSans-61" x="271.630859"/>
      <use xlink:href="#DejaVuSans-66" x="332.910156"/>
      <use xlink:href="#DejaVuSans-66" x="368.115234"/>
      <use xlink:href="#DejaVuSans-6f" x="403.320312"/>
      <use xlink:href="#DejaVuSans-6c" x="464.501953"/>
      <use xlink:href="#DejaVuSans-64" x="492.285156"/>
      <use xlink:href="#DejaVuSans-20" x="555.761719"/>
      <use xlink:href="#DejaVuSans-64" x="587.548828"/>
      <use xlink:href="#DejaVuSans-69" x="651.025391"/>
      <use xlink:href="#DejaVuSans-76" x="678.808594"/>
      <use xlink:href="#DejaVuSans-65" x="737.988281"/>
      <use xlink:href="#DejaVuSans-72" x="799.511719"/>
      <use xlink:href="#DejaVuSans-73" x="840.625"/>
      <use xlink:href="#DejaVuSans-69" x="892.724609"/>
      <use xlink:href="#DejaVuSans-74" x="920.507812"/>
      <use xlink:href="#DejaVuSans-79" x="959.716797"/>
      <use xlink:href="#DejaVuSans-20" x="1018.896484"/>
      <use xlink:href="#DejaVuSans-25" x="1050.683594"/>
     </g>
    </g>
   </g>
   <g id="patch_13">
    <path d="M 729.190986 651.456 
L 729.190986 107.856 
" style="fill: none; stroke: #000000; stroke-width: 0.8; stroke-linejoin: miter; stroke-linecap: square"/>
   </g>
   <g id="patch_14">
    <path d="M 1206.114063 651.456 
L 1206.114063 107.856 
" style="fill: none; stroke: #000000; stroke-width: 0.8; stroke-linejoin: miter; stroke-linecap: square"/>
   </g>
   <g id="patch_15">
    <path d="M 729.190986 651.456 
L 1206.114063 651.456 
" style="fill: none; stroke: #000000; stroke-width: 0.8; stroke-linejoin: miter; stroke-linecap: square"/>
   </g>
   <g id="patch_16">
    <path d="M 729.190986 107.856 
L 1206.114063 107.856 
" style="fill: none; stroke: #000000; stroke-width: 0.8; stroke-linejoin: miter; stroke-linecap: square"/>
   </g>
   <g id="text_24">
    <!-- b. -->
    <g transform="translate(695.125052 93.736519)scale(0.27 -0.27)">
     <defs>
      <path id="DejaVuSans-Bold-62" d="M 2400 722 
Q 2759 722 2948 984 
Q 3138 1247 3138 1747 
Q 3138 2247 2948 2509 
Q 2759 2772 2400 2772 
Q 2041 2772 1848 2508 
Q 1656 2244 1656 1747 
Q 1656 1250 1848 986 
Q 2041 722 2400 722 
z
M 1656 2988 
Q 1888 3294 2169 3439 
Q 2450 3584 2816 3584 
Q 3463 3584 3878 3070 
Q 4294 2556 4294 1747 
Q 4294 938 3878 423 
Q 3463 -91 2816 -91 
Q 2450 -91 2169 54 
Q 1888 200 1656 506 
L 1656 0 
L 538 0 
L 538 4863 
L 1656 4863 
L 1656 2988 
z
" transform="scale(0.015625)"/>
     </defs>
     <use xlink:href="#DejaVuSans-Bold-62"/>
     <use xlink:href="#DejaVuSans-Bold-2e" x="71.582031"/>
    </g>
   </g>
   <g id="PolyCollection_5">
    <defs>
     <path id="m8eda4e2b76" d="M 787.272481 -26.502343 
L 776.404196 -26.502343 
L 776.168025 -29.692071 
L 775.92851 -32.881799 
L 775.685497 -36.071527 
L 775.438842 -39.261256 
L 775.18843 -42.450984 
L 774.934192 -45.640712 
L 774.676116 -48.83044 
L 774.414267 -52.020169 
L 774.14879 -55.209897 
L 773.879927 -58.399625 
L 773.608011 -61.589353 
L 773.333474 -64.779082 
L 773.056835 -67.96881 
L 772.778689 -71.158538 
L 772.4997 -74.348266 
L 772.220571 -77.537995 
L 771.942029 -80.727723 
L 771.664794 -83.917451 
L 771.389553 -87.107179 
L 771.116929 -90.296908 
L 770.847451 -93.486636 
L 770.581525 -96.676364 
L 770.319407 -99.866092 
L 770.061181 -103.05582 
L 769.806735 -106.245549 
L 769.555752 -109.435277 
L 769.307697 -112.625005 
L 769.061815 -115.814733 
L 768.817136 -119.004462 
L 768.572486 -122.19419 
L 768.3265 -125.383918 
L 768.077651 -128.573646 
L 767.824273 -131.763375 
L 767.564595 -134.953103 
L 767.29678 -138.142831 
L 767.018965 -141.332559 
L 766.729297 -144.522288 
L 766.425983 -147.712016 
L 766.107325 -150.901744 
L 765.771765 -154.091472 
L 765.41792 -157.2812 
L 765.044621 -160.470929 
L 764.650941 -163.660657 
L 764.236226 -166.850385 
L 763.800116 -170.040113 
L 763.342566 -173.229842 
L 762.863857 -176.41957 
L 762.364609 -179.609298 
L 761.845786 -182.799026 
L 761.308694 -185.988755 
L 760.754983 -189.178483 
L 760.186635 -192.368211 
L 759.60596 -195.557939 
L 759.015577 -198.747668 
L 758.418402 -201.937396 
L 757.817627 -205.127124 
L 757.216696 -208.316852 
L 756.619285 -211.50658 
L 756.029265 -214.696309 
L 755.450679 -217.886037 
L 754.887704 -221.075765 
L 754.344613 -224.265493 
L 753.825736 -227.455222 
L 753.335414 -230.64495 
L 752.877959 -233.834678 
L 752.4576 -237.024406 
L 752.078438 -240.214135 
L 751.744392 -243.403863 
L 751.459155 -246.593591 
L 751.226135 -249.783319 
L 751.048416 -252.973048 
L 750.928709 -256.162776 
L 750.869307 -259.352504 
L 750.872057 -262.542232 
L 750.93832 -265.731961 
L 751.068951 -268.921689 
L 751.264283 -272.111417 
L 751.524112 -275.301145 
L 751.847702 -278.490873 
L 752.233785 -281.680602 
L 752.680583 -284.87033 
L 753.185825 -288.060058 
L 753.746777 -291.249786 
L 754.360283 -294.439515 
L 755.022806 -297.629243 
L 755.730472 -300.818971 
L 756.479125 -304.008699 
L 757.264378 -307.198428 
L 758.081671 -310.388156 
L 758.926326 -313.577884 
L 759.793599 -316.767612 
L 760.678736 -319.957341 
L 761.577023 -323.147069 
L 762.483835 -326.336797 
L 763.394674 -329.526525 
L 764.305213 -332.716253 
L 765.21133 -335.905982 
L 766.109131 -339.09571 
L 766.994981 -342.285438 
L 796.681695 -342.285438 
L 796.681695 -342.285438 
L 797.567546 -339.09571 
L 798.465347 -335.905982 
L 799.371463 -332.716253 
L 800.282003 -329.526525 
L 801.192842 -326.336797 
L 802.099653 -323.147069 
L 802.997941 -319.957341 
L 803.883078 -316.767612 
L 804.75035 -313.577884 
L 805.595005 -310.388156 
L 806.412299 -307.198428 
L 807.197552 -304.008699 
L 807.946204 -300.818971 
L 808.65387 -297.629243 
L 809.316393 -294.439515 
L 809.9299 -291.249786 
L 810.490852 -288.060058 
L 810.996093 -284.87033 
L 811.442891 -281.680602 
L 811.828975 -278.490873 
L 812.152564 -275.301145 
L 812.412394 -272.111417 
L 812.607725 -268.921689 
L 812.738357 -265.731961 
L 812.80462 -262.542232 
L 812.807369 -259.352504 
L 812.747968 -256.162776 
L 812.62826 -252.973048 
L 812.450541 -249.783319 
L 812.217522 -246.593591 
L 811.932284 -243.403863 
L 811.598239 -240.214135 
L 811.219077 -237.024406 
L 810.798718 -233.834678 
L 810.341262 -230.64495 
L 809.850941 -227.455222 
L 809.332063 -224.265493 
L 808.788972 -221.075765 
L 808.225997 -217.886037 
L 807.647412 -214.696309 
L 807.057392 -211.50658 
L 806.45998 -208.316852 
L 805.85905 -205.127124 
L 805.258274 -201.937396 
L 804.661099 -198.747668 
L 804.070716 -195.557939 
L 803.490041 -192.368211 
L 802.921693 -189.178483 
L 802.367982 -185.988755 
L 801.83089 -182.799026 
L 801.312067 -179.609298 
L 800.81282 -176.41957 
L 800.334111 -173.229842 
L 799.87656 -170.040113 
L 799.44045 -166.850385 
L 799.025735 -163.660657 
L 798.632055 -160.470929 
L 798.258756 -157.2812 
L 797.904911 -154.091472 
L 797.569351 -150.901744 
L 797.250693 -147.712016 
L 796.947379 -144.522288 
L 796.657712 -141.332559 
L 796.379896 -138.142831 
L 796.112082 -134.953103 
L 795.852404 -131.763375 
L 795.599025 -128.573646 
L 795.350176 -125.383918 
L 795.104191 -122.19419 
L 794.85954 -119.004462 
L 794.614862 -115.814733 
L 794.36898 -112.625005 
L 794.120924 -109.435277 
L 793.869941 -106.245549 
L 793.615496 -103.05582 
L 793.357269 -99.866092 
L 793.095152 -96.676364 
L 792.829226 -93.486636 
L 792.559748 -90.296908 
L 792.287124 -87.107179 
L 792.011883 -83.917451 
L 791.734648 -80.727723 
L 791.456106 -77.537995 
L 791.176977 -74.348266 
L 790.897987 -71.158538 
L 790.619842 -67.96881 
L 790.343202 -64.779082 
L 790.068665 -61.589353 
L 789.79675 -58.399625 
L 789.527886 -55.209897 
L 789.26241 -52.020169 
L 789.00056 -48.83044 
L 788.742484 -45.640712 
L 788.488246 -42.450984 
L 788.237835 -39.261256 
L 787.99118 -36.071527 
L 787.748166 -32.881799 
L 787.508651 -29.692071 
L 787.272481 -26.502343 
z
" style="stroke: #000000; stroke-opacity: 0.8"/>
    </defs>
    <g clip-path="url(#p2857150858)">
     <use xlink:href="#m8eda4e2b76" x="0" y="662.156" style="fill: #6495ed; fill-opacity: 0.8; stroke: #000000; stroke-opacity: 0.8"/>
    </g>
   </g>
   <g id="PolyCollection_6">
    <defs>
     <path id="m53fb968c85" d="M 909.559859 -39.580756 
L 901.869066 -39.580756 
L 901.784515 -42.795599 
L 901.702455 -46.010442 
L 901.621423 -49.225285 
L 901.539756 -52.440128 
L 901.455619 -55.654971 
L 901.367045 -58.869814 
L 901.271976 -62.084657 
L 901.168316 -65.2995 
L 901.053973 -68.514343 
L 900.92692 -71.729186 
L 900.785244 -74.944029 
L 900.627193 -78.158872 
L 900.451233 -81.373716 
L 900.256082 -84.588559 
L 900.040752 -87.803402 
L 899.804576 -91.018245 
L 899.547226 -94.233088 
L 899.268727 -97.447931 
L 898.969452 -100.662774 
L 898.650113 -103.877617 
L 898.311737 -107.09246 
L 897.955635 -110.307303 
L 897.583356 -113.522146 
L 897.196641 -116.736989 
L 896.797365 -119.951832 
L 896.387473 -123.166676 
L 895.968913 -126.381519 
L 895.54358 -129.596362 
L 895.113242 -132.811205 
L 894.679487 -136.026048 
L 894.243669 -139.240891 
L 893.806866 -142.455734 
L 893.369842 -145.670577 
L 892.93303 -148.88542 
L 892.496522 -152.100263 
L 892.060072 -155.315106 
L 891.623117 -158.529949 
L 891.184805 -161.744792 
L 890.744042 -164.959635 
L 890.299541 -168.174479 
L 889.849889 -171.389322 
L 889.393611 -174.604165 
L 888.929245 -177.819008 
L 888.455411 -181.033851 
L 887.970889 -184.248694 
L 887.474678 -187.463537 
L 886.966062 -190.67838 
L 886.44466 -193.893223 
L 885.910465 -197.108066 
L 885.363873 -200.322909 
L 884.805703 -203.537752 
L 884.237195 -206.752595 
L 883.660005 -209.967438 
L 883.076181 -213.182282 
L 882.488135 -216.397125 
L 881.898601 -219.611968 
L 881.310586 -222.826811 
L 880.727323 -226.041654 
L 880.152208 -229.256497 
L 879.588752 -232.47134 
L 879.040523 -235.686183 
L 878.511091 -238.901026 
L 878.003984 -242.115869 
L 877.522646 -245.330712 
L 877.070396 -248.545555 
L 876.650399 -251.760398 
L 876.265644 -254.975242 
L 875.918923 -258.190085 
L 875.612816 -261.404928 
L 875.349686 -264.619771 
L 875.131669 -267.834614 
L 874.960673 -271.049457 
L 874.838377 -274.2643 
L 874.766225 -277.479143 
L 874.745431 -280.693986 
L 874.776973 -283.908829 
L 874.861589 -287.123672 
L 874.999774 -290.338515 
L 875.191775 -293.553358 
L 875.43758 -296.768201 
L 875.736915 -299.983045 
L 876.089231 -303.197888 
L 876.493704 -306.412731 
L 876.949219 -309.627574 
L 877.454374 -312.842417 
L 878.007473 -316.05726 
L 878.606527 -319.272103 
L 879.249259 -322.486946 
L 879.933111 -325.701789 
L 880.655257 -328.916632 
L 881.412615 -332.131475 
L 882.201869 -335.346318 
L 883.019495 -338.561161 
L 883.861781 -341.776004 
L 884.724865 -344.990848 
L 885.604763 -348.205691 
L 886.497405 -351.420534 
L 887.398676 -354.635377 
L 888.304451 -357.85022 
L 923.124473 -357.85022 
L 923.124473 -357.85022 
L 924.030248 -354.635377 
L 924.931519 -351.420534 
L 925.824161 -348.205691 
L 926.704059 -344.990848 
L 927.567143 -341.776004 
L 928.409429 -338.561161 
L 929.227055 -335.346318 
L 930.01631 -332.131475 
L 930.773667 -328.916632 
L 931.495813 -325.701789 
L 932.179665 -322.486946 
L 932.822397 -319.272103 
L 933.421451 -316.05726 
L 933.97455 -312.842417 
L 934.479705 -309.627574 
L 934.935221 -306.412731 
L 935.339693 -303.197888 
L 935.69201 -299.983045 
L 935.991344 -296.768201 
L 936.237149 -293.553358 
L 936.42915 -290.338515 
L 936.567335 -287.123672 
L 936.651951 -283.908829 
L 936.683493 -280.693986 
L 936.662699 -277.479143 
L 936.590548 -274.2643 
L 936.468251 -271.049457 
L 936.297255 -267.834614 
L 936.079238 -264.619771 
L 935.816108 -261.404928 
L 935.510001 -258.190085 
L 935.16328 -254.975242 
L 934.778525 -251.760398 
L 934.358528 -248.545555 
L 933.906278 -245.330712 
L 933.42494 -242.115869 
L 932.917834 -238.901026 
L 932.388402 -235.686183 
L 931.840172 -232.47134 
L 931.276716 -229.256497 
L 930.701602 -226.041654 
L 930.118338 -222.826811 
L 929.530323 -219.611968 
L 928.940789 -216.397125 
L 928.352743 -213.182282 
L 927.76892 -209.967438 
L 927.191729 -206.752595 
L 926.623221 -203.537752 
L 926.065051 -200.322909 
L 925.518459 -197.108066 
L 924.984264 -193.893223 
L 924.462862 -190.67838 
L 923.954246 -187.463537 
L 923.458035 -184.248694 
L 922.973513 -181.033851 
L 922.499679 -177.819008 
L 922.035313 -174.604165 
L 921.579035 -171.389322 
L 921.129383 -168.174479 
L 920.684883 -164.959635 
L 920.244119 -161.744792 
L 919.805808 -158.529949 
L 919.368852 -155.315106 
L 918.932403 -152.100263 
L 918.495894 -148.88542 
L 918.059083 -145.670577 
L 917.622059 -142.455734 
L 917.185255 -139.240891 
L 916.749438 -136.026048 
L 916.315682 -132.811205 
L 915.885344 -129.596362 
L 915.460011 -126.381519 
L 915.041452 -123.166676 
L 914.631559 -119.951832 
L 914.232283 -116.736989 
L 913.845569 -113.522146 
L 913.47329 -110.307303 
L 913.117187 -107.09246 
L 912.778811 -103.877617 
L 912.459472 -100.662774 
L 912.160197 -97.447931 
L 911.881698 -94.233088 
L 911.624348 -91.018245 
L 911.388172 -87.803402 
L 911.172842 -84.588559 
L 910.977691 -81.373716 
L 910.801731 -78.158872 
L 910.643681 -74.944029 
L 910.502004 -71.729186 
L 910.374951 -68.514343 
L 910.260609 -65.2995 
L 910.156948 -62.084657 
L 910.06188 -58.869814 
L 909.973305 -55.654971 
L 909.889168 -52.440128 
L 909.807501 -49.225285 
L 909.726469 -46.010442 
L 909.644409 -42.795599 
L 909.559859 -39.580756 
z
" style="stroke: #000000; stroke-opacity: 0.8"/>
    </defs>
    <g clip-path="url(#p2857150858)">
     <use xlink:href="#m53fb968c85" x="0" y="662.156" style="fill: #cd5c5c; fill-opacity: 0.8; stroke: #000000; stroke-opacity: 0.8"/>
    </g>
   </g>
   <g id="PolyCollection_7">
    <defs>
     <path id="m7500d7991a" d="M 1037.558329 -258.043193 
L 1021.622843 -258.043193 
L 1021.322666 -260.308197 
L 1021.032393 -262.573202 
L 1020.753678 -264.838206 
L 1020.488119 -267.103211 
L 1020.237234 -269.368215 
L 1020.002437 -271.63322 
L 1019.785016 -273.898224 
L 1019.586109 -276.163229 
L 1019.406679 -278.428233 
L 1019.247495 -280.693238 
L 1019.109105 -282.958243 
L 1018.991818 -285.223247 
L 1018.895686 -287.488252 
L 1018.820485 -289.753256 
L 1018.765703 -292.018261 
L 1018.730528 -294.283265 
L 1018.713843 -296.54827 
L 1018.714219 -298.813274 
L 1018.729917 -301.078279 
L 1018.758894 -303.343283 
L 1018.798814 -305.608288 
L 1018.84706 -307.873292 
L 1018.900756 -310.138297 
L 1018.95679 -312.403301 
L 1019.011846 -314.668306 
L 1019.062435 -316.93331 
L 1019.104936 -319.198315 
L 1019.135636 -321.463319 
L 1019.150779 -323.728324 
L 1019.146611 -325.993328 
L 1019.119431 -328.258333 
L 1019.065646 -330.523337 
L 1018.981822 -332.788342 
L 1018.864734 -335.053346 
L 1018.711421 -337.318351 
L 1018.519236 -339.583355 
L 1018.28589 -341.84836 
L 1018.009497 -344.113365 
L 1017.688613 -346.378369 
L 1017.32227 -348.643374 
L 1016.910004 -350.908378 
L 1016.45188 -353.173383 
L 1015.9485 -355.438387 
L 1015.40102 -357.703392 
L 1014.811145 -359.968396 
L 1014.181123 -362.233401 
L 1013.513732 -364.498405 
L 1012.812258 -366.76341 
L 1012.080467 -369.028414 
L 1011.322564 -371.293419 
L 1010.543161 -373.558423 
L 1009.74722 -375.823428 
L 1008.940003 -378.088432 
L 1008.127019 -380.353437 
L 1007.313958 -382.618441 
L 1006.506629 -384.883446 
L 1005.710901 -387.14845 
L 1004.932629 -389.413455 
L 1004.177596 -391.678459 
L 1003.451448 -393.943464 
L 1002.759628 -396.208468 
L 1002.107325 -398.473473 
L 1001.499414 -400.738477 
L 1000.940407 -403.003482 
L 1000.434413 -405.268486 
L 999.985092 -407.533491 
L 999.595629 -409.798496 
L 999.268704 -412.0635 
L 999.006478 -414.328505 
L 998.810576 -416.593509 
L 998.682084 -418.858514 
L 998.621555 -421.123518 
L 998.629011 -423.388523 
L 998.703964 -425.653527 
L 998.845432 -427.918532 
L 999.051969 -430.183536 
L 999.321695 -432.448541 
L 999.652328 -434.713545 
L 1000.041228 -436.97855 
L 1000.485431 -439.243554 
L 1000.981697 -441.508559 
L 1001.526553 -443.773563 
L 1002.116334 -446.038568 
L 1002.74723 -448.303572 
L 1003.415325 -450.568577 
L 1004.116644 -452.833581 
L 1004.847186 -455.098586 
L 1005.602961 -457.36359 
L 1006.380028 -459.628595 
L 1007.174519 -461.893599 
L 1007.982667 -464.158604 
L 1008.800831 -466.423608 
L 1009.625515 -468.688613 
L 1010.453381 -470.953617 
L 1011.281263 -473.218622 
L 1012.106178 -475.483627 
L 1012.925332 -477.748631 
L 1013.736122 -480.013636 
L 1014.536139 -482.27864 
L 1044.645033 -482.27864 
L 1044.645033 -482.27864 
L 1045.44505 -480.013636 
L 1046.255839 -477.748631 
L 1047.074994 -475.483627 
L 1047.899909 -473.218622 
L 1048.727791 -470.953617 
L 1049.555657 -468.688613 
L 1050.380341 -466.423608 
L 1051.198505 -464.158604 
L 1052.006653 -461.893599 
L 1052.801144 -459.628595 
L 1053.578211 -457.36359 
L 1054.333986 -455.098586 
L 1055.064528 -452.833581 
L 1055.765847 -450.568577 
L 1056.433942 -448.303572 
L 1057.064838 -446.038568 
L 1057.654619 -443.773563 
L 1058.199474 -441.508559 
L 1058.695741 -439.243554 
L 1059.139944 -436.97855 
L 1059.528844 -434.713545 
L 1059.859477 -432.448541 
L 1060.129203 -430.183536 
L 1060.33574 -427.918532 
L 1060.477208 -425.653527 
L 1060.552161 -423.388523 
L 1060.559617 -421.123518 
L 1060.499088 -418.858514 
L 1060.370596 -416.593509 
L 1060.174694 -414.328505 
L 1059.912468 -412.0635 
L 1059.585543 -409.798496 
L 1059.19608 -407.533491 
L 1058.746759 -405.268486 
L 1058.240765 -403.003482 
L 1057.681758 -400.738477 
L 1057.073847 -398.473473 
L 1056.421544 -396.208468 
L 1055.729724 -393.943464 
L 1055.003575 -391.678459 
L 1054.248543 -389.413455 
L 1053.470271 -387.14845 
L 1052.674543 -384.883446 
L 1051.867214 -382.618441 
L 1051.054153 -380.353437 
L 1050.241168 -378.088432 
L 1049.433952 -375.823428 
L 1048.638011 -373.558423 
L 1047.858607 -371.293419 
L 1047.100705 -369.028414 
L 1046.368914 -366.76341 
L 1045.66744 -364.498405 
L 1045.000049 -362.233401 
L 1044.370027 -359.968396 
L 1043.780151 -357.703392 
L 1043.232672 -355.438387 
L 1042.729292 -353.173383 
L 1042.271168 -350.908378 
L 1041.858902 -348.643374 
L 1041.492559 -346.378369 
L 1041.171675 -344.113365 
L 1040.895282 -341.84836 
L 1040.661936 -339.583355 
L 1040.469751 -337.318351 
L 1040.316438 -335.053346 
L 1040.19935 -332.788342 
L 1040.115526 -330.523337 
L 1040.061741 -328.258333 
L 1040.034561 -325.993328 
L 1040.030393 -323.728324 
L 1040.045536 -321.463319 
L 1040.076236 -319.198315 
L 1040.118737 -316.93331 
L 1040.169326 -314.668306 
L 1040.224382 -312.403301 
L 1040.280416 -310.138297 
L 1040.334112 -307.873292 
L 1040.382358 -305.608288 
L 1040.422278 -303.343283 
L 1040.451255 -301.078279 
L 1040.466953 -298.813274 
L 1040.467329 -296.54827 
L 1040.450644 -294.283265 
L 1040.415469 -292.018261 
L 1040.360687 -289.753256 
L 1040.285486 -287.488252 
L 1040.189354 -285.223247 
L 1040.072067 -282.958243 
L 1039.933677 -280.693238 
L 1039.774493 -278.428233 
L 1039.595063 -276.163229 
L 1039.396156 -273.898224 
L 1039.178735 -271.63322 
L 1038.943938 -269.368215 
L 1038.693053 -267.103211 
L 1038.427494 -264.838206 
L 1038.148779 -262.573202 
L 1037.858506 -260.308197 
L 1037.558329 -258.043193 
z
" style="stroke: #000000; stroke-opacity: 0.8"/>
    </defs>
    <g clip-path="url(#p2857150858)">
     <use xlink:href="#m7500d7991a" x="0" y="662.156" style="fill: #c0c0c0; fill-opacity: 0.8; stroke: #000000; stroke-opacity: 0.8"/>
    </g>
   </g>
   <g id="PolyCollection_8">
    <defs>
     <path id="m71b97e2594" d="M 1156.925865 -185.59628 
L 1150.007555 -185.59628 
L 1149.930757 -188.960197 
L 1149.860427 -192.324114 
L 1149.79573 -195.688031 
L 1149.735651 -199.051948 
L 1149.67903 -202.415865 
L 1149.62459 -205.779782 
L 1149.57098 -209.143699 
L 1149.516813 -212.507616 
L 1149.460703 -215.871533 
L 1149.401307 -219.23545 
L 1149.337355 -222.599367 
L 1149.267679 -225.963284 
L 1149.191235 -229.327201 
L 1149.107123 -232.691118 
L 1149.014586 -236.055035 
L 1148.913014 -239.418952 
L 1148.801933 -242.782869 
L 1148.680987 -246.146786 
L 1148.549914 -249.510703 
L 1148.408518 -252.87462 
L 1148.256631 -256.238537 
L 1148.094075 -259.602454 
L 1147.920628 -262.966371 
L 1147.735982 -266.330288 
L 1147.539709 -269.694205 
L 1147.331227 -273.058122 
L 1147.109778 -276.422039 
L 1146.874403 -279.785955 
L 1146.623938 -283.149872 
L 1146.357005 -286.513789 
L 1146.072023 -289.877706 
L 1145.767225 -293.241623 
L 1145.440683 -296.60554 
L 1145.090346 -299.969457 
L 1144.714083 -303.333374 
L 1144.309742 -306.697291 
L 1143.875201 -310.061208 
L 1143.408442 -313.425125 
L 1142.907618 -316.789042 
L 1142.371124 -320.152959 
L 1141.797673 -323.516876 
L 1141.186368 -326.880793 
L 1140.536769 -330.24471 
L 1139.84896 -333.608627 
L 1139.123607 -336.972544 
L 1138.362005 -340.336461 
L 1137.566122 -343.700378 
L 1136.738622 -347.064295 
L 1135.882882 -350.428212 
L 1135.002994 -353.792129 
L 1134.103752 -357.156046 
L 1133.190618 -360.519963 
L 1132.269686 -363.88388 
L 1131.347615 -367.247797 
L 1130.431559 -370.611714 
L 1129.52908 -373.975631 
L 1128.648044 -377.339548 
L 1127.796509 -380.703465 
L 1126.98261 -384.067382 
L 1126.214427 -387.431299 
L 1125.499855 -390.795216 
L 1124.846469 -394.159133 
L 1124.261396 -397.52305 
L 1123.751184 -400.886967 
L 1123.321685 -404.250884 
L 1122.977942 -407.614801 
L 1122.724096 -410.978717 
L 1122.563304 -414.342634 
L 1122.497679 -417.706551 
L 1122.528243 -421.070468 
L 1122.654912 -424.434385 
L 1122.876494 -427.798302 
L 1123.190712 -431.162219 
L 1123.594256 -434.526136 
L 1124.082845 -437.890053 
L 1124.651313 -441.25397 
L 1125.29372 -444.617887 
L 1126.003461 -447.981804 
L 1126.773406 -451.345721 
L 1127.596027 -454.709638 
L 1128.463545 -458.073555 
L 1129.368071 -461.437472 
L 1130.301741 -464.801389 
L 1131.256847 -468.165306 
L 1132.225955 -471.529223 
L 1133.202013 -474.89314 
L 1134.178438 -478.257057 
L 1135.149191 -481.620974 
L 1136.10883 -484.984891 
L 1137.052545 -488.348808 
L 1137.976176 -491.712725 
L 1138.876213 -495.076642 
L 1139.749777 -498.440559 
L 1140.594593 -501.804476 
L 1141.408949 -505.168393 
L 1142.19164 -508.53231 
L 1142.941915 -511.896227 
L 1143.659418 -515.260144 
L 1144.34412 -518.624061 
L 1162.5893 -518.624061 
L 1162.5893 -518.624061 
L 1163.274002 -515.260144 
L 1163.991504 -511.896227 
L 1164.74178 -508.53231 
L 1165.524471 -505.168393 
L 1166.338826 -501.804476 
L 1167.183643 -498.440559 
L 1168.057207 -495.076642 
L 1168.957244 -491.712725 
L 1169.880875 -488.348808 
L 1170.82459 -484.984891 
L 1171.784229 -481.620974 
L 1172.754982 -478.257057 
L 1173.731407 -474.89314 
L 1174.707465 -471.529223 
L 1175.676573 -468.165306 
L 1176.631678 -464.801389 
L 1177.565348 -461.437472 
L 1178.469875 -458.073555 
L 1179.337393 -454.709638 
L 1180.160014 -451.345721 
L 1180.929958 -447.981804 
L 1181.6397 -444.617887 
L 1182.282107 -441.25397 
L 1182.850575 -437.890053 
L 1183.339163 -434.526136 
L 1183.742707 -431.162219 
L 1184.056926 -427.798302 
L 1184.278507 -424.434385 
L 1184.405176 -421.070468 
L 1184.435741 -417.706551 
L 1184.370115 -414.342634 
L 1184.209324 -410.978717 
L 1183.955478 -407.614801 
L 1183.611735 -404.250884 
L 1183.182235 -400.886967 
L 1182.672023 -397.52305 
L 1182.08695 -394.159133 
L 1181.433565 -390.795216 
L 1180.718992 -387.431299 
L 1179.95081 -384.067382 
L 1179.136911 -380.703465 
L 1178.285376 -377.339548 
L 1177.404339 -373.975631 
L 1176.50186 -370.611714 
L 1175.585805 -367.247797 
L 1174.663734 -363.88388 
L 1173.742802 -360.519963 
L 1172.829668 -357.156046 
L 1171.930425 -353.792129 
L 1171.050538 -350.428212 
L 1170.194798 -347.064295 
L 1169.367297 -343.700378 
L 1168.571414 -340.336461 
L 1167.809813 -336.972544 
L 1167.08446 -333.608627 
L 1166.396651 -330.24471 
L 1165.747052 -326.880793 
L 1165.135746 -323.516876 
L 1164.562296 -320.152959 
L 1164.025802 -316.789042 
L 1163.524977 -313.425125 
L 1163.058219 -310.061208 
L 1162.623678 -306.697291 
L 1162.219336 -303.333374 
L 1161.843074 -299.969457 
L 1161.492737 -296.60554 
L 1161.166195 -293.241623 
L 1160.861396 -289.877706 
L 1160.576414 -286.513789 
L 1160.309481 -283.149872 
L 1160.059016 -279.785955 
L 1159.823642 -276.422039 
L 1159.602192 -273.058122 
L 1159.393711 -269.694205 
L 1159.197437 -266.330288 
L 1159.012792 -262.966371 
L 1158.839345 -259.602454 
L 1158.676789 -256.238537 
L 1158.524901 -252.87462 
L 1158.383505 -249.510703 
L 1158.252433 -246.146786 
L 1158.131487 -242.782869 
L 1158.020406 -239.418952 
L 1157.918834 -236.055035 
L 1157.826297 -232.691118 
L 1157.742184 -229.327201 
L 1157.665741 -225.963284 
L 1157.596065 -222.599367 
L 1157.532112 -219.23545 
L 1157.472716 -215.871533 
L 1157.416607 -212.507616 
L 1157.36244 -209.143699 
L 1157.30883 -205.779782 
L 1157.25439 -202.415865 
L 1157.197768 -199.051948 
L 1157.13769 -195.688031 
L 1157.072993 -192.324114 
L 1157.002663 -188.960197 
L 1156.925865 -185.59628 
z
" style="stroke: #000000; stroke-opacity: 0.8"/>
    </defs>
    <g clip-path="url(#p2857150858)">
     <use xlink:href="#m71b97e2594" x="0" y="662.156" style="fill: #808080; fill-opacity: 0.8; stroke: #000000; stroke-opacity: 0.8"/>
    </g>
   </g>
   <g id="PathCollection_2">
    <g clip-path="url(#p2857150858)">
     <use xlink:href="#m2043d2da87" x="781.838338" y="413.741344" style="fill: #ffffff; stroke: #000000"/>
     <use xlink:href="#m2043d2da87" x="905.714462" y="412.418027" style="fill: #ffffff; stroke: #000000"/>
     <use xlink:href="#m2043d2da87" x="1029.590586" y="252.072411" style="fill: #ffffff; stroke: #000000"/>
     <use xlink:href="#m2043d2da87" x="1153.46671" y="246.725911" style="fill: #ffffff; stroke: #000000"/>
    </g>
   </g>
  </g>
 </g>
 <defs>
  <clipPath id="p66db247fc1">
   <rect x="90.114063" y="107.856" width="476.923077" height="543.6"/>
  </clipPath>
  <clipPath id="p2857150858">
   <rect x="729.190986" y="107.856" width="476.923077" height="543.6"/>
  </clipPath>
 </defs>
</svg>
